<svg xmlns="http://www.w3.org/2000/svg" xmlns:xlink="http://www.w3.org/1999/xlink" width="30" zoomAndPan="magnify" viewBox="0 0 30 30.000001" height="30" preserveAspectRatio="xMidYMid meet" version="1.0"><defs><clipPath id="15562ed8f4"><path d="M 3.386719 6 L 27.339844 6 L 27.339844 23 L 3.386719 23 Z M 3.386719 6 " clip-rule="nonzero"/></clipPath></defs><g clip-path="url(#15562ed8f4)"><path fill="currentColor" d="M 22.183594 6.117188 L 8.3125 6.117188 C 5.59375 6.117188 3.386719 8.324219 3.386719 11.042969 L 3.386719 17.976562 C 3.386719 20.699219 5.59375 22.90625 8.3125 22.90625 L 22.183594 22.90625 C 24.90625 22.90625 27.113281 20.699219 27.113281 17.976562 L 27.113281 11.042969 C 27.113281 8.324219 24.90625 6.117188 22.183594 6.117188 Z M 18.851562 14.847656 L 12.363281 17.941406 C 12.191406 18.027344 11.992188 17.898438 11.992188 17.707031 L 11.992188 11.328125 C 11.992188 11.132812 12.195312 11.007812 12.371094 11.09375 L 18.859375 14.382812 C 19.050781 14.480469 19.046875 14.757812 18.851562 14.847656 Z M 18.851562 14.847656 " fill-opacity="1" fill-rule="nonzero"/></g></svg>