<svg xmlns="http://www.w3.org/2000/svg" xmlns:xlink="http://www.w3.org/1999/xlink" width="93" zoomAndPan="magnify" viewBox="0 0 69.75 44.999999" height="60" preserveAspectRatio="xMidYMid meet" version="1.0"><defs><clipPath id="cd9eeae165"><path d="M 31 13 L 61.820312 13 L 61.820312 44 L 31 44 Z M 31 13 " clip-rule="nonzero"/></clipPath><clipPath id="7a1c24cd5d"><path d="M 8.015625 9 L 36 9 L 36 44.324219 L 8.015625 44.324219 Z M 8.015625 9 " clip-rule="nonzero"/></clipPath></defs><g clip-path="url(#cd9eeae165)"><path fill="#ffffff" d="M 61.46875 28.339844 L 61.46875 14.476562 C 61.46875 14.0625 61.136719 13.730469 60.722656 13.730469 L 46.859375 13.730469 C 46.636719 13.730469 46.421875 13.832031 46.28125 14.007812 C 46.140625 14.183594 46.085938 14.414062 46.132812 14.636719 C 46.445312 16.058594 46.625 17.230469 46.625 17.847656 C 46.625 18.265625 46.625 19.25 46.292969 19.476562 C 46.257812 19.496094 46.203125 19.527344 46.09375 19.527344 C 45.964844 19.527344 45.796875 19.484375 45.609375 19.40625 C 45.019531 19.160156 44.25 18.878906 43.539062 18.878906 C 43.121094 18.878906 42.761719 18.976562 42.472656 19.171875 C 41.882812 19.566406 41.582031 20.332031 41.582031 21.453125 C 41.582031 22.570312 41.882812 23.335938 42.472656 23.730469 C 42.761719 23.925781 43.121094 24.023438 43.539062 24.023438 C 44.25 24.023438 45.019531 23.742188 45.609375 23.496094 C 45.796875 23.417969 45.964844 23.375 46.09375 23.375 C 46.203125 23.375 46.257812 23.40625 46.289062 23.425781 C 46.625 23.652344 46.625 24.632812 46.625 25.054688 C 46.625 25.652344 46.457031 26.78125 46.15625 28.15625 C 46.144531 28.210938 46.164062 28.261719 46.164062 28.316406 C 45.363281 28.140625 43.660156 27.785156 42.695312 27.785156 C 41.957031 27.785156 40.230469 27.785156 40.230469 29.109375 C 40.230469 29.34375 40.289062 29.601562 40.410156 29.890625 C 40.628906 30.414062 40.878906 31.089844 40.878906 31.65625 C 40.878906 32.140625 40.699219 32.351562 40.5625 32.464844 C 40.273438 32.707031 39.78125 32.832031 39.09375 32.832031 C 37.304688 32.832031 37.304688 32.007812 37.304688 31.65625 C 37.304688 31.089844 37.554688 30.414062 37.773438 29.890625 C 37.894531 29.601562 37.953125 29.34375 37.953125 29.109375 C 37.953125 27.785156 36.226562 27.785156 35.488281 27.785156 C 34.539062 27.785156 32.867188 28.128906 31.953125 28.332031 C 31.613281 28.40625 31.371094 28.710938 31.371094 29.058594 L 31.371094 43.082031 C 31.371094 43.492188 31.703125 43.828125 32.117188 43.828125 L 46.140625 43.828125 C 46.265625 43.828125 46.375 43.765625 46.480469 43.707031 C 46.597656 43.777344 46.722656 43.828125 46.859375 43.828125 L 60.722656 43.828125 C 61.136719 43.828125 61.46875 43.492188 61.46875 43.082031 L 61.46875 29.058594 C 61.46875 28.933594 61.40625 28.824219 61.347656 28.71875 C 61.417969 28.601562 61.46875 28.476562 61.46875 28.339844 Z M 46.09375 22.632812 C 45.863281 22.632812 45.605469 22.691406 45.324219 22.808594 C 44.792969 23.027344 44.105469 23.277344 43.539062 23.277344 C 43.289062 23.277344 43.066406 23.230469 42.882812 23.109375 C 42.515625 22.863281 42.328125 22.304688 42.328125 21.453125 C 42.328125 20.597656 42.515625 20.039062 42.882812 19.792969 C 43.066406 19.671875 43.292969 19.625 43.539062 19.625 C 44.105469 19.625 44.792969 19.875 45.324219 20.09375 C 45.605469 20.210938 45.863281 20.269531 46.09375 20.269531 C 46.324219 20.269531 46.527344 20.210938 46.703125 20.09375 C 47.320312 19.683594 47.371094 18.71875 47.371094 17.847656 C 47.371094 16.914062 47.035156 15.261719 46.859375 14.476562 L 60.722656 14.476562 L 60.722656 28.296875 C 59.789062 28.089844 58.257812 27.785156 57.351562 27.785156 C 56.613281 27.785156 54.886719 27.785156 54.886719 29.109375 C 54.886719 29.34375 54.945312 29.601562 55.066406 29.890625 C 55.285156 30.414062 55.535156 31.089844 55.535156 31.65625 C 55.535156 32.140625 55.351562 32.351562 55.214844 32.464844 C 54.929688 32.707031 54.4375 32.832031 53.746094 32.832031 C 51.960938 32.832031 51.960938 32.007812 51.960938 31.65625 C 51.960938 31.089844 52.210938 30.414062 52.429688 29.890625 C 52.550781 29.601562 52.609375 29.34375 52.609375 29.109375 C 52.609375 27.785156 50.882812 27.785156 50.144531 27.785156 C 49.273438 27.785156 47.816406 28.070312 46.894531 28.269531 C 47.074219 27.441406 47.371094 25.933594 47.371094 25.054688 C 47.371094 24.183594 47.320312 23.21875 46.703125 22.808594 C 46.527344 22.691406 46.324219 22.632812 46.09375 22.632812 Z M 32.117188 29.058594 C 32.792969 28.90625 34.566406 28.53125 35.488281 28.53125 C 36.710938 28.53125 37.207031 28.699219 37.207031 29.109375 C 37.207031 29.242188 37.167969 29.410156 37.085938 29.605469 C 36.839844 30.191406 36.558594 30.957031 36.558594 31.65625 C 36.558594 32.53125 37 33.574219 39.09375 33.574219 C 39.972656 33.574219 40.613281 33.398438 41.042969 33.035156 C 41.429688 32.707031 41.625 32.242188 41.625 31.65625 C 41.625 30.957031 41.34375 30.191406 41.097656 29.605469 C 41.015625 29.410156 40.976562 29.242188 40.976562 29.109375 C 40.976562 28.699219 41.472656 28.53125 42.695312 28.53125 C 43.636719 28.53125 45.472656 28.925781 46.109375 29.070312 C 46.113281 29.113281 46.105469 29.160156 46.113281 29.207031 C 46.433594 30.644531 46.628906 31.878906 46.628906 32.503906 C 46.628906 32.921875 46.628906 33.90625 46.292969 34.128906 C 46.257812 34.152344 46.203125 34.179688 46.09375 34.179688 C 45.964844 34.179688 45.796875 34.140625 45.609375 34.0625 C 45.019531 33.816406 44.25 33.535156 43.539062 33.535156 C 43.121094 33.535156 42.761719 33.632812 42.46875 33.828125 C 41.878906 34.222656 41.582031 34.988281 41.582031 36.105469 C 41.582031 37.226562 41.882812 37.992188 42.472656 38.386719 C 42.761719 38.582031 43.121094 38.679688 43.539062 38.679688 C 44.25 38.679688 45.019531 38.398438 45.609375 38.152344 C 45.796875 38.074219 45.964844 38.03125 46.09375 38.03125 C 46.203125 38.03125 46.257812 38.0625 46.292969 38.082031 C 46.628906 38.304688 46.628906 39.289062 46.628906 39.710938 C 46.628906 40.589844 46.28125 42.25 46.132812 42.921875 C 46.121094 42.976562 46.132812 43.027344 46.132812 43.082031 L 32.117188 43.082031 Z M 46.902344 43.082031 C 47.109375 42.148438 47.414062 40.613281 47.414062 39.710938 C 47.414062 38.761719 47.332031 37.828125 46.726562 37.429688 C 46.546875 37.308594 46.332031 37.246094 46.089844 37.246094 C 45.855469 37.246094 45.59375 37.304688 45.308594 37.425781 C 44.824219 37.625 44.117188 37.894531 43.539062 37.894531 C 43.277344 37.894531 43.070312 37.839844 42.90625 37.730469 C 42.460938 37.433594 42.367188 36.683594 42.367188 36.105469 C 42.367188 35.53125 42.460938 34.777344 42.90625 34.480469 C 43.070312 34.375 43.277344 34.320312 43.539062 34.320312 C 44.117188 34.320312 44.828125 34.585938 45.308594 34.789062 C 45.597656 34.910156 45.855469 34.96875 46.089844 34.96875 C 46.332031 34.96875 46.546875 34.90625 46.726562 34.785156 C 47.332031 34.382812 47.414062 33.449219 47.414062 32.503906 C 47.414062 31.550781 47.066406 29.867188 46.886719 29.058594 C 46.9375 29.058594 46.992188 29.050781 47.042969 29.039062 C 48.417969 28.742188 49.546875 28.570312 50.144531 28.570312 C 51.617188 28.570312 51.824219 28.828125 51.824219 29.105469 C 51.824219 29.238281 51.78125 29.398438 51.703125 29.589844 C 51.457031 30.179688 51.175781 30.949219 51.175781 31.65625 C 51.175781 32.550781 51.621094 33.617188 53.746094 33.617188 C 55.875 33.617188 56.320312 32.550781 56.320312 31.65625 C 56.320312 30.941406 56.019531 30.132812 55.792969 29.589844 C 55.710938 29.398438 55.671875 29.238281 55.671875 29.109375 C 55.671875 28.828125 55.875 28.570312 57.351562 28.570312 C 57.96875 28.570312 59.140625 28.75 60.5625 29.066406 C 60.617188 29.078125 60.671875 29.082031 60.722656 29.082031 L 60.722656 43.082031 Z M 46.902344 43.082031 " fill-opacity="1" fill-rule="nonzero"/></g><path fill="#ffffff" d="M 32.800781 19.9375 C 33.015625 19.9375 33.089844 20.003906 33.15625 20.144531 C 33.214844 20.261719 33.25 20.425781 33.261719 20.628906 C 33.300781 21.269531 33.386719 22.085938 33.699219 22.71875 C 34.128906 23.59375 34.816406 23.777344 35.320312 23.777344 C 35.769531 23.777344 36.277344 23.636719 36.875 23.34375 C 37.675781 22.949219 38.175781 22.503906 38.40625 21.976562 C 38.613281 21.5 38.582031 20.988281 38.320312 20.449219 C 38.003906 19.804688 37.375 19.214844 36.929688 18.824219 C 36.777344 18.691406 36.667969 18.5625 36.613281 18.449219 C 36.488281 18.199219 36.558594 17.878906 37.882812 17.226562 C 38.445312 16.949219 39.636719 16.578125 41.070312 16.230469 C 41.261719 16.1875 41.425781 16.066406 41.53125 15.894531 C 41.632812 15.726562 41.664062 15.523438 41.617188 15.332031 C 41.402344 14.445312 40.976562 12.828125 40.566406 11.988281 C 40.148438 11.136719 39.660156 10.339844 38.945312 10.242188 C 38.910156 10.238281 38.839844 10.234375 38.808594 10.234375 C 38.417969 10.234375 38.035156 10.449219 37.667969 10.867188 C 37.164062 11.441406 36.417969 12.207031 35.757812 12.207031 C 35.722656 12.207031 35.6875 12.207031 35.648438 12.199219 C 35.589844 12.191406 35.535156 12.15625 35.480469 12.132812 C 35.363281 12.371094 35.207031 12.578125 35.003906 12.75 C 35.179688 12.847656 35.363281 12.914062 35.550781 12.9375 C 35.621094 12.949219 35.691406 12.953125 35.757812 12.953125 C 36.703125 12.953125 37.570312 12.109375 38.230469 11.359375 C 38.382812 11.183594 38.605469 10.980469 38.808594 10.980469 C 38.820312 10.980469 38.832031 10.980469 38.847656 10.984375 C 39.269531 11.039062 39.726562 11.96875 39.898438 12.316406 C 40.289062 13.117188 40.71875 14.789062 40.894531 15.507812 C 40.152344 15.6875 38.425781 16.128906 37.554688 16.558594 C 36.847656 16.90625 35.378906 17.625 35.945312 18.777344 C 36.046875 18.984375 36.207031 19.183594 36.441406 19.386719 C 36.835938 19.734375 37.394531 20.253906 37.652344 20.777344 C 37.816406 21.113281 37.839844 21.410156 37.722656 21.679688 C 37.570312 22.03125 37.171875 22.367188 36.546875 22.675781 C 36.019531 22.933594 35.625 23.035156 35.320312 23.035156 C 34.777344 23.035156 34.527344 22.714844 34.367188 22.390625 C 34.113281 21.875 34.042969 21.152344 34.003906 20.582031 C 33.988281 20.273438 33.929688 20.023438 33.824219 19.816406 C 33.597656 19.351562 33.21875 19.191406 32.800781 19.191406 C 32.195312 19.191406 31.503906 19.53125 31.085938 19.738281 C 30.246094 20.148438 28.914062 21.179688 28.285156 21.683594 L 26.132812 17.304688 L 25.082031 16.851562 L 27.617188 22.011719 C 27.714844 22.214844 27.902344 22.359375 28.121094 22.410156 C 28.175781 22.421875 28.230469 22.425781 28.285156 22.425781 C 28.453125 22.425781 28.617188 22.371094 28.75 22.265625 C 29.289062 21.835938 30.625 20.792969 31.414062 20.40625 C 31.769531 20.230469 32.367188 19.9375 32.800781 19.9375 Z M 32.800781 19.9375 " fill-opacity="1" fill-rule="nonzero"/><path fill="#ffffff" d="M 23.53125 12.011719 L 22.171875 9.242188 L 34.757812 3.054688 C 35.191406 3.597656 36.3125 5.023438 36.71875 5.847656 C 36.890625 6.199219 37.347656 7.128906 37.132812 7.496094 C 37.023438 7.683594 36.707031 7.742188 36.460938 7.757812 C 35.386719 7.824219 34.089844 8.015625 33.570312 8.910156 C 33.476562 9.074219 33.417969 9.257812 33.386719 9.449219 C 33.515625 9.421875 33.644531 9.390625 33.777344 9.390625 C 33.914062 9.390625 34.042969 9.410156 34.171875 9.4375 C 34.1875 9.386719 34.1875 9.328125 34.214844 9.285156 C 34.5625 8.6875 35.6875 8.550781 36.503906 8.5 C 37.128906 8.460938 37.558594 8.25 37.777344 7.871094 C 38.140625 7.246094 37.804688 6.371094 37.386719 5.519531 C 36.964844 4.664062 35.921875 3.316406 35.335938 2.589844 C 35.191406 2.410156 34.976562 2.3125 34.757812 2.3125 C 34.644531 2.3125 34.53125 2.335938 34.429688 2.386719 L 29.851562 4.636719 C 29.734375 4.445312 29.585938 4.269531 29.382812 4.140625 C 28.683594 3.703125 27.761719 3.914062 27.328125 4.613281 L 26.179688 6.441406 L 21.84375 8.574219 C 21.664062 8.660156 21.53125 8.8125 21.464844 9 C 21.402344 9.1875 21.414062 9.390625 21.503906 9.570312 L 22.480469 11.558594 Z M 23.53125 12.011719 " fill-opacity="1" fill-rule="nonzero"/><path fill="#ffffff" d="M 13.25 4.933594 C 12.992188 7.234375 14.648438 9.308594 16.945312 9.566406 C 19.246094 9.824219 21.320312 8.171875 21.578125 5.871094 C 21.839844 3.570312 20.183594 1.496094 17.882812 1.238281 C 15.585938 0.980469 13.511719 2.632812 13.25 4.933594 Z M 13.25 4.933594 " fill-opacity="1" fill-rule="nonzero"/><g clip-path="url(#7a1c24cd5d)"><path fill="#ffffff" d="M 26.871094 17.15625 C 27.058594 17.238281 27.257812 17.277344 27.460938 17.277344 C 27.761719 17.277344 28.066406 17.183594 28.320312 17.003906 L 34.640625 12.523438 C 35.3125 12.046875 35.472656 11.117188 34.996094 10.449219 C 34.519531 9.777344 33.589844 9.617188 32.917969 10.09375 L 27.28125 14.089844 L 22.175781 11.894531 L 20.46875 11.160156 C 20.449219 11.148438 20.429688 11.152344 20.410156 11.144531 L 20.40625 11.136719 L 13.492188 9.570312 C 12.871094 9.429688 12.226562 9.789062 12.058594 10.402344 C 12.054688 10.40625 12.054688 10.414062 12.054688 10.417969 L 8.949219 22.167969 C 8.695312 22.742188 8.671875 23.417969 8.941406 24.039062 L 12.484375 32.179688 L 8.546875 40.699219 C 8.007812 41.867188 8.515625 43.25 9.683594 43.789062 C 10 43.933594 10.332031 44.003906 10.660156 44.003906 C 11.539062 44.003906 12.378906 43.503906 12.773438 42.652344 L 17.148438 33.183594 C 17.429688 32.582031 17.4375 31.886719 17.171875 31.28125 L 15.59375 27.65625 L 20.183594 32.730469 L 20.4375 41.558594 C 20.476562 42.820312 21.507812 43.816406 22.765625 43.816406 C 22.785156 43.816406 22.808594 43.816406 22.832031 43.816406 C 24.117188 43.78125 25.128906 42.707031 25.09375 41.421875 L 24.8125 31.738281 C 24.796875 31.183594 24.585938 30.65625 24.210938 30.242188 L 18.8125 24.273438 L 21.289062 14.90625 L 21.777344 14.964844 L 23.910156 15.882812 Z M 26.871094 17.15625 " fill-opacity="1" fill-rule="nonzero"/></g></svg>