<svg xmlns="http://www.w3.org/2000/svg" xmlns:xlink="http://www.w3.org/1999/xlink" width="250" zoomAndPan="magnify" viewBox="0 0 810 809.999993" height="250" preserveAspectRatio="xMidYMid meet" version="1.0"><path fill="#b16901" d="M 52.429688 273.945312 C 35.585938 311.277344 10.660156 382.742188 20.679688 471.625 C 33.535156 585.660156 97.175781 675.566406 159.078125 726.089844 C 364.496094 893.738281 740.539062 785.433594 790.332031 627.511719 C 799.367188 598.863281 796.828125 571.234375 793.707031 537.230469 C 783.765625 429.089844 731.398438 396.949219 696.1875 282.121094 C 664.140625 177.628906 695.734375 165.875 665.765625 119.417969 C 600.761719 18.640625 413.113281 13.5625 283.992188 61.878906 C 234.398438 80.4375 114.050781 137.355469 52.429688 273.945312 " fill-opacity="1" fill-rule="nonzero"/><path fill="#000000" d="M 764.566406 31.539062 L 421.574219 52.53125 C 407.433594 52.53125 391.9375 43.003906 390.625 57.144531 L 328.234375 729.976562 C 326.921875 744.113281 342.660156 740.046875 356.800781 740.046875 L 697.429688 755.582031 C 711.566406 755.582031 724.097656 744.113281 725.410156 729.976562 L 787.800781 57.144531 C 789.105469 43.003906 778.710938 31.539062 764.566406 31.539062 " fill-opacity="1" fill-rule="nonzero"/><path fill="#000000" d="M 356.800781 738.640625 L 697.496094 754.171875 C 710.84375 754.171875 722.761719 743.261719 724.007812 729.84375 L 786.398438 57.015625 C 786.996094 50.554688 785.046875 44.492188 780.902344 39.949219 C 776.796875 35.441406 771.015625 32.953125 764.609375 32.945312 L 421.660156 53.933594 C 421.65625 53.933594 421.648438 53.933594 421.644531 53.933594 C 417.066406 53.933594 412.414062 53 408.308594 52.171875 C 402.523438 51.003906 397.066406 49.90625 394.339844 51.933594 C 393.027344 52.914062 392.269531 54.660156 392.027344 57.277344 L 329.640625 730.101562 C 329.363281 733.074219 329.878906 735.195312 331.21875 736.59375 C 334.199219 739.691406 341.265625 739.320312 348.746094 738.925781 C 351.386719 738.785156 354.117188 738.640625 356.800781 738.640625 Z M 697.429688 756.988281 L 356.734375 741.453125 C 354.191406 741.453125 351.5 741.597656 348.894531 741.734375 C 340.75 742.164062 333.0625 742.566406 329.191406 738.539062 C 327.25 736.519531 326.480469 733.675781 326.832031 729.84375 L 389.226562 57.015625 C 389.546875 53.558594 390.671875 51.164062 392.660156 49.679688 C 396.390625 46.902344 402.171875 48.0625 408.859375 49.410156 C 413.042969 50.257812 417.363281 51.121094 421.574219 51.121094 L 764.484375 30.132812 C 764.511719 30.132812 764.535156 30.132812 764.566406 30.132812 C 771.789062 30.132812 778.328125 32.945312 782.976562 38.050781 C 787.660156 43.1875 789.875 50.011719 789.199219 57.277344 L 726.808594 730.101562 C 725.433594 744.925781 712.25 756.988281 697.429688 756.988281 " fill-opacity="1" fill-rule="nonzero"/><path fill="#eb9f18" d="M 751.296875 31.539062 L 405.339844 31.539062 C 391.199219 31.539062 378.671875 43.003906 377.359375 57.144531 L 314.96875 729.976562 C 313.660156 744.113281 324.058594 755.582031 338.203125 755.582031 L 684.164062 755.582031 C 698.308594 755.582031 710.832031 744.113281 712.140625 729.976562 L 774.535156 57.144531 C 775.847656 43.003906 765.441406 31.539062 751.296875 31.539062 " fill-opacity="1" fill-rule="nonzero"/><path fill="#000000" d="M 405.339844 32.945312 C 391.925781 32.945312 380.007812 43.859375 378.757812 57.277344 L 316.371094 730.101562 C 315.769531 736.566406 317.722656 742.625 321.863281 747.167969 C 325.976562 751.6875 331.785156 754.171875 338.203125 754.171875 L 684.160156 754.171875 C 697.570312 754.171875 709.496094 743.261719 710.742188 729.84375 L 773.132812 57.015625 C 773.730469 50.554688 771.777344 44.492188 767.640625 39.949219 C 763.519531 35.429688 757.722656 32.945312 751.296875 32.945312 Z M 684.160156 756.988281 L 338.203125 756.988281 C 330.980469 756.988281 324.441406 754.171875 319.785156 749.066406 C 315.105469 743.933594 312.894531 737.101562 313.570312 729.84375 L 375.957031 57.015625 C 377.332031 42.191406 390.515625 30.132812 405.339844 30.132812 L 751.296875 30.132812 C 758.523438 30.132812 765.058594 32.945312 769.71875 38.050781 C 774.394531 43.1875 776.605469 50.011719 775.933594 57.277344 L 713.542969 730.101562 C 712.167969 744.925781 698.988281 756.988281 684.160156 756.988281 " fill-opacity="1" fill-rule="nonzero"/><path fill="#000000" d="M 477.972656 31.539062 L 476.640625 45.898438 C 475.230469 61.15625 486.449219 73.523438 501.707031 73.523438 L 647.144531 73.523438 C 662.40625 73.523438 675.917969 61.15625 677.332031 45.898438 L 678.664062 31.539062 L 477.972656 31.539062 " fill-opacity="1" fill-rule="nonzero"/><path fill="#b16901" d="M 575.632812 60.554688 C 570.089844 60.554688 566.003906 56.058594 566.523438 50.507812 C 567.035156 44.964844 571.949219 40.46875 577.492188 40.46875 C 583.039062 40.46875 587.121094 44.964844 586.605469 50.507812 C 586.089844 56.058594 581.175781 60.554688 575.632812 60.554688 " fill-opacity="1" fill-rule="nonzero"/><path fill="#ffffff" d="M 653.714844 464.800781 L 422.585938 464.800781 C 415.429688 464.800781 410.164062 459.003906 410.828125 451.847656 L 415.925781 396.894531 C 416.589844 389.738281 422.925781 383.9375 430.082031 383.9375 L 661.214844 383.9375 C 668.371094 383.9375 673.628906 389.738281 672.964844 396.894531 L 667.871094 451.847656 C 667.207031 459.003906 660.867188 464.800781 653.714844 464.800781 " fill-opacity="1" fill-rule="nonzero"/><path fill="#ffffff" d="M 643.671875 573.097656 L 412.539062 573.097656 C 405.382812 573.097656 400.117188 567.296875 400.785156 560.140625 L 405.882812 505.183594 C 406.546875 498.03125 412.882812 492.230469 420.039062 492.230469 L 651.167969 492.230469 C 658.324219 492.230469 663.585938 498.03125 662.925781 505.183594 L 657.828125 560.140625 C 657.164062 567.296875 650.828125 573.097656 643.671875 573.097656 " fill-opacity="1" fill-rule="nonzero"/><path fill="#ffffff" d="M 633.628906 681.394531 L 402.496094 681.394531 C 395.34375 681.394531 390.078125 675.59375 390.746094 668.4375 L 395.839844 613.480469 C 396.503906 606.324219 402.839844 600.527344 409.996094 600.527344 L 641.125 600.527344 C 648.28125 600.527344 653.542969 606.324219 652.878906 613.480469 L 647.78125 668.4375 C 647.117188 675.59375 640.785156 681.394531 633.628906 681.394531 " fill-opacity="1" fill-rule="nonzero"/><path fill="#ffffff" d="M 675.550781 236.035156 C 669.601562 300.207031 612.757812 352.226562 548.585938 352.226562 C 484.417969 352.226562 437.214844 300.207031 443.171875 236.035156 C 449.117188 171.863281 505.964844 119.84375 570.132812 119.84375 C 634.304688 119.84375 681.503906 171.863281 675.550781 236.035156 " fill-opacity="1" fill-rule="nonzero"/><path fill="#ffffff" d="M 492.910156 219.808594 L 487.289062 280.40625 C 485.597656 298.648438 514.65625 313.433594 552.183594 313.433594 C 589.71875 313.433594 621.519531 298.648438 623.207031 280.40625 L 628.824219 219.808594 L 492.910156 219.808594 " fill-opacity="1" fill-rule="nonzero"/><path fill="#000000" d="M 494.191406 221.214844 L 488.683594 280.535156 C 488.253906 285.199219 489.984375 289.707031 493.832031 293.929688 C 503.863281 304.925781 526.765625 312.03125 552.179688 312.03125 C 588.949219 312.03125 620.179688 297.785156 621.808594 280.273438 L 627.28125 221.214844 Z M 552.179688 314.84375 C 525.609375 314.84375 502.453125 307.558594 491.757812 295.828125 C 487.414062 291.0625 485.382812 285.683594 485.886719 280.273438 L 491.507812 219.679688 C 491.578125 218.957031 492.179688 218.402344 492.902344 218.402344 L 628.824219 218.402344 C 629.21875 218.402344 629.597656 218.570312 629.867188 218.859375 C 630.128906 219.15625 630.257812 219.542969 630.226562 219.9375 L 624.605469 280.535156 C 623.742188 289.878906 615.613281 298.578125 601.726562 305.035156 C 588.132812 311.363281 570.535156 314.84375 552.179688 314.84375 " fill-opacity="1" fill-rule="nonzero"/><path fill="#b16901" d="M 633.863281 206.28125 L 566.882812 176.785156 C 565.617188 176.316406 564.183594 176.316406 562.820312 176.785156 L 490.375 206.28125 L 462.621094 206.28125 L 461.996094 213.015625 C 461.921875 213.855469 462.316406 214.6875 463.226562 215.027344 L 556.105469 249.25 C 557.375 249.714844 558.808594 249.714844 560.164062 249.25 L 659.386719 215.027344 C 660.367188 214.6875 660.914062 213.855469 660.992188 213.015625 L 661.617188 206.28125 L 633.863281 206.28125 " fill-opacity="1" fill-rule="nonzero"/><path fill="#000000" d="M 463.898438 207.691406 L 463.394531 213.148438 C 463.355469 213.578125 463.625 213.675781 463.710938 213.710938 L 556.589844 247.929688 C 557.554688 248.285156 558.660156 248.28125 559.703125 247.917969 L 658.929688 213.703125 C 659.375 213.546875 659.5625 213.179688 659.589844 212.890625 L 660.074219 207.691406 L 633.863281 207.691406 C 633.671875 207.691406 633.472656 207.652344 633.300781 207.570312 L 566.316406 178.074219 C 565.433594 177.75 564.328125 177.753906 563.28125 178.117188 L 490.902344 207.585938 C 490.730469 207.65625 490.554688 207.691406 490.371094 207.691406 Z M 558.101562 251.007812 C 557.246094 251.007812 556.40625 250.863281 555.613281 250.570312 L 462.742188 216.351562 C 461.292969 215.8125 460.449219 214.457031 460.59375 212.890625 L 461.214844 206.15625 C 461.28125 205.433594 461.890625 204.878906 462.621094 204.878906 L 490.09375 204.878906 L 562.289062 175.488281 C 564.023438 174.886719 565.800781 174.886719 567.367188 175.46875 L 634.15625 204.878906 L 661.613281 204.878906 C 662.007812 204.878906 662.390625 205.046875 662.65625 205.335938 C 662.921875 205.628906 663.050781 206.023438 663.019531 206.410156 L 662.394531 213.148438 C 662.253906 214.613281 661.253906 215.871094 659.839844 216.359375 L 560.621094 250.578125 C 559.792969 250.863281 558.941406 251.007812 558.101562 251.007812 " fill-opacity="1" fill-rule="nonzero"/><path fill="#ffffff" d="M 660.386719 204.273438 L 567.511719 170.050781 C 566.242188 169.585938 564.804688 169.585938 563.449219 170.050781 L 464.222656 204.273438 C 462.277344 204.945312 462.023438 207.617188 463.859375 208.292969 L 556.734375 242.511719 C 557.996094 242.980469 559.433594 242.980469 560.789062 242.511719 L 660.011719 208.292969 C 661.96875 207.617188 662.214844 204.945312 660.386719 204.273438 " fill-opacity="1" fill-rule="nonzero"/><path fill="#000000" d="M 565.515625 171.101562 C 564.980469 171.101562 564.4375 171.195312 563.914062 171.378906 L 464.6875 205.601562 C 464.199219 205.765625 464.019531 206.175781 464.019531 206.480469 C 464.015625 206.851562 464.25 206.9375 464.339844 206.972656 L 557.21875 241.195312 C 558.183594 241.546875 559.289062 241.542969 560.332031 241.183594 L 659.550781 206.964844 C 660.042969 206.792969 660.222656 206.382812 660.222656 206.085938 C 660.226562 205.707031 659.992188 205.621094 659.90625 205.59375 L 567.027344 171.367188 C 566.546875 171.195312 566.035156 171.101562 565.515625 171.101562 Z M 558.730469 244.269531 C 557.875 244.269531 557.035156 244.125 556.242188 243.832031 L 463.367188 209.613281 C 462.023438 209.117188 461.191406 207.90625 461.207031 206.445312 C 461.226562 204.875 462.253906 203.464844 463.765625 202.941406 L 562.988281 168.71875 C 564.652344 168.148438 566.429688 168.148438 568 168.730469 L 660.875 202.949219 C 662.222656 203.449219 663.050781 204.660156 663.03125 206.113281 C 663.019531 207.6875 661.988281 209.097656 660.472656 209.621094 L 561.25 243.839844 C 560.425781 244.125 559.574219 244.269531 558.730469 244.269531 " fill-opacity="1" fill-rule="nonzero"/><path fill="#000000" d="M 612.074219 255.476562 C 610.179688 255.476562 608.460938 256.949219 608.152344 258.847656 L 599.507812 312.3125 L 614.101562 312.3125 L 615.375 258.847656 C 615.421875 256.949219 613.980469 255.476562 612.074219 255.476562 " fill-opacity="1" fill-rule="nonzero"/><path fill="#000000" d="M 612.140625 256.214844 C 612.101562 256.214844 612.054688 256.207031 612.007812 256.207031 C 611.238281 256.136719 610.667969 255.449219 610.742188 254.675781 L 613.265625 227.476562 L 561.613281 207.59375 C 560.890625 207.316406 560.523438 206.503906 560.804688 205.78125 C 561.085938 205.050781 561.898438 204.691406 562.625 204.972656 L 615.261719 225.230469 C 615.851562 225.460938 616.222656 226.046875 616.164062 226.675781 L 613.539062 254.933594 C 613.46875 255.664062 612.855469 256.214844 612.140625 256.214844 " fill-opacity="1" fill-rule="nonzero"/><path fill="#ffffff" d="M 33.820312 657.835938 C 44.574219 635.699219 45.597656 613.394531 33.820312 590.859375 L 42.273438 580.71875 L 273.539062 588.324219 L 265.566406 661.789062 L 41.707031 664.367188 L 33.820312 657.835938 " fill-opacity="1" fill-rule="nonzero"/><path fill="#000000" d="M 35.558594 657.453125 L 42.207031 662.957031 L 264.304688 660.398438 L 271.976562 589.679688 L 42.914062 582.144531 L 35.496094 591.046875 C 46.316406 612.308594 46.339844 634.644531 35.558594 657.453125 Z M 41.707031 665.773438 C 41.378906 665.773438 41.0625 665.660156 40.808594 665.453125 L 32.921875 658.921875 C 32.421875 658.507812 32.269531 657.808594 32.554688 657.222656 C 43.695312 634.292969 43.703125 612.796875 32.574219 591.511719 C 32.308594 591.007812 32.375 590.394531 32.738281 589.960938 L 41.195312 579.816406 C 41.472656 579.484375 41.886719 579.300781 42.320312 579.308594 L 273.585938 586.917969 C 273.976562 586.929688 274.34375 587.109375 274.601562 587.402344 C 274.859375 587.699219 274.980469 588.085938 274.9375 588.476562 L 266.964844 661.941406 C 266.886719 662.648438 266.296875 663.1875 265.582031 663.195312 L 41.722656 665.773438 C 41.71875 665.773438 41.710938 665.773438 41.707031 665.773438 " fill-opacity="1" fill-rule="nonzero"/><path fill="#ffffff" d="M 458.765625 572.628906 L 29.527344 572.628906 C 24.507812 572.628906 20.441406 576.699219 20.441406 581.714844 C 20.441406 586.730469 24.507812 590.796875 29.527344 590.796875 L 226.863281 590.796875 C 241.316406 590.796875 253.03125 602.515625 253.03125 616.964844 L 253.03125 631.671875 C 253.03125 646.125 241.316406 657.835938 226.863281 657.835938 L 29.527344 657.835938 C 24.507812 657.835938 20.441406 661.902344 20.441406 666.921875 C 20.441406 671.9375 24.507812 676.003906 29.527344 676.003906 L 458.765625 676.003906 C 485.40625 676.003906 507.007812 654.40625 507.007812 627.761719 L 507.007812 620.871094 C 507.007812 594.234375 485.40625 572.628906 458.765625 572.628906 " fill-opacity="1" fill-rule="nonzero"/><path fill="#000000" d="M 29.527344 659.242188 C 25.292969 659.242188 21.847656 662.691406 21.847656 666.921875 C 21.847656 671.15625 25.292969 674.601562 29.527344 674.601562 L 458.765625 674.601562 C 484.589844 674.601562 505.601562 653.585938 505.601562 627.761719 L 505.601562 620.871094 C 505.601562 595.046875 484.589844 574.035156 458.765625 574.035156 L 29.527344 574.035156 C 25.292969 574.035156 21.847656 577.480469 21.847656 581.714844 C 21.847656 585.949219 25.292969 589.390625 29.527344 589.390625 L 226.863281 589.390625 C 242.066406 589.390625 254.4375 601.761719 254.4375 616.964844 L 254.4375 631.671875 C 254.4375 646.878906 242.066406 659.242188 226.863281 659.242188 Z M 458.765625 677.410156 L 29.527344 677.410156 C 23.742188 677.410156 19.035156 672.707031 19.035156 666.921875 C 19.035156 661.136719 23.742188 656.429688 29.527344 656.429688 L 226.863281 656.429688 C 240.515625 656.429688 251.621094 645.324219 251.621094 631.671875 L 251.621094 616.964844 C 251.621094 603.3125 240.515625 592.203125 226.863281 592.203125 L 29.527344 592.203125 C 23.742188 592.203125 19.035156 587.5 19.035156 581.714844 C 19.035156 575.929688 23.742188 571.222656 29.527344 571.222656 L 458.765625 571.222656 C 486.144531 571.222656 508.417969 593.496094 508.417969 620.871094 L 508.417969 627.761719 C 508.417969 655.136719 486.144531 677.410156 458.765625 677.410156 " fill-opacity="1" fill-rule="nonzero"/><path fill="#000000" d="M 158.417969 611.683594 L 141.515625 611.683594 C 140.742188 611.683594 140.109375 611.058594 140.109375 610.277344 C 140.109375 609.503906 140.742188 608.875 141.515625 608.875 L 158.417969 608.875 C 159.195312 608.875 159.824219 609.503906 159.824219 610.277344 C 159.824219 611.058594 159.195312 611.683594 158.417969 611.683594 " fill-opacity="1" fill-rule="nonzero"/><path fill="#000000" d="M 130.9375 611.683594 L 41.464844 611.683594 C 40.6875 611.683594 40.058594 611.058594 40.058594 610.277344 C 40.058594 609.503906 40.6875 608.875 41.464844 608.875 L 130.9375 608.875 C 131.714844 608.875 132.34375 609.503906 132.34375 610.277344 C 132.34375 611.058594 131.714844 611.683594 130.9375 611.683594 " fill-opacity="1" fill-rule="nonzero"/><path fill="#000000" d="M 148.148438 622.632812 L 42.285156 622.632812 C 41.511719 622.632812 40.882812 622.003906 40.882812 621.226562 C 40.882812 620.449219 41.511719 619.820312 42.285156 619.820312 L 148.148438 619.820312 C 148.925781 619.820312 149.554688 620.449219 149.554688 621.226562 C 149.554688 622.003906 148.925781 622.632812 148.148438 622.632812 " fill-opacity="1" fill-rule="nonzero"/><path fill="#000000" d="M 174.777344 642.25 L 155.539062 642.25 C 154.761719 642.25 154.132812 641.621094 154.132812 640.84375 C 154.132812 640.0625 154.761719 639.433594 155.539062 639.433594 L 174.777344 639.433594 C 175.554688 639.433594 176.183594 640.0625 176.183594 640.84375 C 176.183594 641.621094 175.554688 642.25 174.777344 642.25 " fill-opacity="1" fill-rule="nonzero"/><path fill="#000000" d="M 147.324219 642.25 L 41.464844 642.25 C 40.6875 642.25 40.058594 641.621094 40.058594 640.84375 C 40.058594 640.0625 40.6875 639.433594 41.464844 639.433594 L 147.324219 639.433594 C 148.101562 639.433594 148.730469 640.0625 148.730469 640.84375 C 148.730469 641.621094 148.101562 642.25 147.324219 642.25 " fill-opacity="1" fill-rule="nonzero"/><path fill="#ffffff" d="M 40.496094 787.238281 L 428.210938 787.238281 L 428.210938 692.246094 L 40.496094 692.246094 C 51.941406 724.332031 52.253906 756.007812 40.496094 787.238281 " fill-opacity="1" fill-rule="nonzero"/><path fill="#000000" d="M 42.511719 785.828125 L 426.804688 785.828125 L 426.804688 693.652344 L 42.476562 693.652344 C 53.25 725.035156 53.257812 756.027344 42.511719 785.828125 Z M 428.210938 788.640625 L 40.496094 788.640625 C 40.035156 788.640625 39.601562 788.417969 39.339844 788.035156 C 39.078125 787.65625 39.015625 787.171875 39.179688 786.738281 C 50.605469 756.398438 50.601562 724.765625 39.171875 692.71875 C 39.019531 692.289062 39.082031 691.8125 39.347656 691.4375 C 39.609375 691.066406 40.039062 690.839844 40.496094 690.839844 L 428.210938 690.839844 C 428.988281 690.839844 429.617188 691.472656 429.617188 692.246094 L 429.617188 787.238281 C 429.617188 788.011719 428.988281 788.640625 428.210938 788.640625 " fill-opacity="1" fill-rule="nonzero"/><path fill="#ffffff" d="M 381.53125 696.933594 L 37.828125 696.933594 C 33.695312 696.933594 30.34375 693.585938 30.34375 689.449219 C 30.34375 685.316406 33.695312 681.96875 37.828125 681.96875 L 483.84375 681.96875 C 502.007812 681.96875 516.730469 696.691406 516.730469 714.855469 L 516.730469 766.558594 C 516.730469 784.726562 502.007812 799.449219 483.84375 799.449219 L 37.828125 799.449219 C 33.695312 799.449219 30.34375 796.097656 30.34375 791.964844 C 30.34375 787.832031 33.695312 784.480469 37.828125 784.480469 L 381.53125 784.480469 C 394.367188 784.480469 404.769531 774.078125 404.769531 761.246094 L 404.769531 720.171875 C 404.769531 707.335938 394.367188 696.933594 381.53125 696.933594 " fill-opacity="1" fill-rule="nonzero"/><path fill="#000000" d="M 37.828125 785.886719 C 34.476562 785.886719 31.75 788.613281 31.75 791.964844 C 31.75 795.3125 34.476562 798.042969 37.828125 798.042969 L 483.84375 798.042969 C 501.203125 798.042969 515.324219 783.921875 515.324219 766.5625 L 515.324219 714.855469 C 515.324219 697.496094 501.203125 683.371094 483.84375 683.371094 L 37.828125 683.371094 C 34.476562 683.371094 31.75 686.097656 31.75 689.449219 C 31.75 692.804688 34.476562 695.527344 37.828125 695.527344 L 381.53125 695.527344 C 395.125 695.527344 406.175781 706.582031 406.175781 720.171875 L 406.175781 761.246094 C 406.175781 774.832031 395.125 785.886719 381.53125 785.886719 Z M 483.84375 800.855469 L 37.828125 800.855469 C 32.925781 800.855469 28.9375 796.863281 28.9375 791.964844 C 28.9375 787.0625 32.925781 783.074219 37.828125 783.074219 L 381.53125 783.074219 C 393.570312 783.074219 403.363281 773.277344 403.363281 761.246094 L 403.363281 720.171875 C 403.363281 708.132812 393.570312 698.339844 381.53125 698.339844 L 37.828125 698.339844 C 32.925781 698.339844 28.9375 694.355469 28.9375 689.449219 C 28.9375 684.546875 32.925781 680.558594 37.828125 680.558594 L 483.84375 680.558594 C 502.753906 680.558594 518.140625 695.945312 518.140625 714.855469 L 518.140625 766.5625 C 518.140625 785.46875 502.753906 800.855469 483.84375 800.855469 " fill-opacity="1" fill-rule="nonzero"/><path fill="#000000" d="M 104.605469 716.210938 L 47.351562 716.210938 C 46.578125 716.210938 45.949219 715.582031 45.949219 714.804688 C 45.949219 714.027344 46.578125 713.398438 47.351562 713.398438 L 104.605469 713.398438 C 105.382812 713.398438 106.011719 714.027344 106.011719 714.804688 C 106.011719 715.582031 105.382812 716.210938 104.605469 716.210938 " fill-opacity="1" fill-rule="nonzero"/><path fill="#000000" d="M 218.488281 716.210938 L 114.417969 716.210938 C 113.640625 716.210938 113.011719 715.582031 113.011719 714.804688 C 113.011719 714.027344 113.640625 713.398438 114.417969 713.398438 L 218.488281 713.398438 C 219.265625 713.398438 219.894531 714.027344 219.894531 714.804688 C 219.894531 715.582031 219.265625 716.210938 218.488281 716.210938 " fill-opacity="1" fill-rule="nonzero"/><path fill="#000000" d="M 191.625 728.886719 L 48.558594 728.886719 C 47.785156 728.886719 47.152344 728.257812 47.152344 727.480469 C 47.152344 726.703125 47.785156 726.074219 48.558594 726.074219 L 191.625 726.074219 C 192.402344 726.074219 193.03125 726.703125 193.03125 727.480469 C 193.03125 728.257812 192.402344 728.886719 191.625 728.886719 " fill-opacity="1" fill-rule="nonzero"/><path fill="#000000" d="M 232.84375 728.886719 L 203.730469 728.886719 C 202.953125 728.886719 202.324219 728.257812 202.324219 727.480469 C 202.324219 726.703125 202.953125 726.074219 203.730469 726.074219 L 232.84375 726.074219 C 233.621094 726.074219 234.25 726.703125 234.25 727.480469 C 234.25 728.257812 233.621094 728.886719 232.84375 728.886719 " fill-opacity="1" fill-rule="nonzero"/><path fill="#000000" d="M 200.265625 755.351562 L 48.558594 755.351562 C 47.785156 755.351562 47.152344 754.722656 47.152344 753.941406 C 47.152344 753.164062 47.785156 752.535156 48.558594 752.535156 L 200.265625 752.535156 C 201.042969 752.535156 201.671875 753.164062 201.671875 753.941406 C 201.671875 754.722656 201.042969 755.351562 200.265625 755.351562 " fill-opacity="1" fill-rule="nonzero"/><path fill="#000000" d="M 218.488281 755.351562 L 210.925781 755.351562 C 210.148438 755.351562 209.519531 754.722656 209.519531 753.941406 C 209.519531 753.164062 210.148438 752.535156 210.925781 752.535156 L 218.488281 752.535156 C 219.265625 752.535156 219.894531 753.164062 219.894531 753.941406 C 219.894531 754.722656 219.265625 755.351562 218.488281 755.351562 " fill-opacity="1" fill-rule="nonzero"/><path fill="#ffffff" d="M 316.652344 746.535156 C 319.105469 744.058594 333.277344 699.976562 333.277344 699.976562 L 361.273438 719.957031 L 330.578125 761.210938 L 316.652344 746.535156 " fill-opacity="1" fill-rule="nonzero"/><path fill="#000000" d="M 318.40625 746.34375 L 330.449219 759.03125 L 359.289062 720.269531 L 334.023438 702.242188 C 330.449219 713.3125 321.675781 740.074219 318.40625 746.34375 Z M 330.578125 762.617188 C 330.195312 762.617188 329.828125 762.460938 329.558594 762.179688 L 315.632812 747.503906 C 315.113281 746.960938 315.117188 746.101562 315.640625 745.558594 C 317.421875 743.433594 326.578125 716.214844 331.9375 699.546875 C 332.074219 699.121094 332.40625 698.785156 332.835938 698.640625 C 333.261719 698.503906 333.726562 698.574219 334.09375 698.832031 L 362.089844 718.8125 C 362.402344 719.03125 362.605469 719.363281 362.664062 719.738281 C 362.722656 720.109375 362.628906 720.496094 362.40625 720.796875 L 331.707031 762.050781 C 331.457031 762.382812 331.078125 762.589844 330.664062 762.617188 C 330.636719 762.617188 330.609375 762.617188 330.578125 762.617188 " fill-opacity="1" fill-rule="nonzero"/><path fill="#000000" d="M 367.113281 802.269531 L 348.492188 802.160156 C 336.171875 802.089844 324.714844 795.828125 317.996094 785.5 L 299.582031 756.351562 C 294.496094 748.296875 297.339844 737.625 305.757812 733.148438 C 313.441406 729.066406 321.492188 725.089844 323.378906 725.265625 C 327.207031 725.632812 328.753906 743.757812 328.753906 743.757812 L 345.347656 744.394531 C 345.347656 744.394531 353.539062 778.472656 360.75 782.347656 C 366.003906 785.167969 369.671875 789.3125 372.140625 793.097656 C 374.726562 797.058594 371.84375 802.300781 367.113281 802.269531 " fill-opacity="1" fill-rule="nonzero"/><path fill="#ffffff" d="M 365.238281 796.40625 C 365.171875 796.40625 365.097656 796.402344 365.027344 796.390625 L 339.558594 792.558594 C 333.410156 791.628906 328.050781 788.035156 324.855469 782.703125 L 302.347656 745.101562 C 301.949219 744.433594 302.164062 743.570312 302.832031 743.171875 C 303.5 742.769531 304.363281 742.988281 304.761719 743.65625 L 327.269531 781.253906 C 330.027344 785.867188 334.664062 788.972656 339.980469 789.773438 L 365.449219 793.609375 C 366.214844 793.726562 366.742188 794.441406 366.628906 795.207031 C 366.523438 795.90625 365.925781 796.40625 365.238281 796.40625 " fill-opacity="1" fill-rule="nonzero"/><path fill="#ffffff" d="M 333.800781 768.132812 C 333.183594 768.132812 332.613281 767.722656 332.445312 767.097656 C 332.238281 766.34375 332.683594 765.574219 333.429688 765.367188 L 347.621094 761.503906 C 348.371094 761.300781 349.144531 761.742188 349.351562 762.492188 C 349.554688 763.242188 349.109375 764.015625 348.359375 764.21875 L 334.167969 768.082031 C 334.046875 768.117188 333.921875 768.132812 333.800781 768.132812 " fill-opacity="1" fill-rule="nonzero"/><path fill="#ffffff" d="M 341.191406 775.421875 C 340.558594 775.421875 339.984375 774.988281 339.828125 774.347656 C 339.644531 773.59375 340.101562 772.832031 340.859375 772.644531 L 350.375 770.316406 C 351.128906 770.132812 351.886719 770.597656 352.074219 771.351562 C 352.257812 772.105469 351.792969 772.867188 351.042969 773.050781 L 341.527344 775.378906 C 341.414062 775.410156 341.300781 775.421875 341.191406 775.421875 " fill-opacity="1" fill-rule="nonzero"/><path fill="#ffffff" d="M 412.195312 738.125 L 444.699219 770.789062 L 461.933594 764.460938 L 431.96875 722.675781 L 412.195312 738.125 " fill-opacity="1" fill-rule="nonzero"/><path fill="#000000" d="M 414.304688 738.257812 L 445.0625 769.15625 L 459.714844 763.777344 L 431.679688 724.683594 Z M 444.699219 772.195312 C 444.332031 772.195312 443.972656 772.050781 443.703125 771.78125 L 411.195312 739.121094 C 410.910156 738.835938 410.761719 738.441406 410.789062 738.042969 C 410.8125 737.636719 411.007812 737.269531 411.328125 737.015625 L 431.101562 721.566406 C 431.402344 721.332031 431.785156 721.230469 432.167969 721.28125 C 432.546875 721.335938 432.886719 721.542969 433.109375 721.855469 L 463.074219 763.640625 C 463.332031 763.996094 463.40625 764.453125 463.273438 764.875 C 463.148438 765.292969 462.828125 765.628906 462.417969 765.777344 L 445.183594 772.109375 C 445.027344 772.167969 444.863281 772.195312 444.699219 772.195312 " fill-opacity="1" fill-rule="nonzero"/><path fill="#000000" d="M 434.429688 765.675781 C 434.429688 765.675781 432.859375 779.574219 435.523438 791.855469 C 436.945312 798.394531 442.84375 803 449.535156 803 L 529.320312 803 C 535.023438 803 537.605469 795.878906 533.234375 792.21875 C 519.046875 780.335938 492.953125 762.1875 460.871094 756.859375 L 451.921875 769.382812 L 434.429688 765.675781 " fill-opacity="1" fill-rule="nonzero"/><path fill="#ffffff" d="M 525.523438 793.4375 L 442.84375 793.4375 C 442.066406 793.4375 441.433594 792.808594 441.433594 792.027344 C 441.433594 791.253906 442.066406 790.621094 442.84375 790.621094 L 525.523438 790.621094 C 526.304688 790.621094 526.929688 791.253906 526.929688 792.027344 C 526.929688 792.808594 526.304688 793.4375 525.523438 793.4375 " fill-opacity="1" fill-rule="nonzero"/><path fill="#ffffff" d="M 479.390625 778.75 C 479.210938 778.75 479.027344 778.714844 478.855469 778.640625 C 478.136719 778.34375 477.792969 777.523438 478.089844 776.804688 L 482.464844 766.191406 C 482.765625 765.472656 483.582031 765.128906 484.300781 765.425781 C 485.019531 765.71875 485.363281 766.542969 485.066406 767.261719 L 480.691406 777.878906 C 480.464844 778.421875 479.941406 778.75 479.390625 778.75 " fill-opacity="1" fill-rule="nonzero"/><path fill="#ffffff" d="M 493.78125 781.539062 C 493.636719 781.539062 493.484375 781.515625 493.339844 781.46875 C 492.597656 781.226562 492.199219 780.425781 492.445312 779.691406 L 495.609375 770.113281 C 495.859375 769.378906 496.652344 768.980469 497.386719 769.222656 C 498.128906 769.464844 498.527344 770.261719 498.285156 770.996094 L 495.113281 780.578125 C 494.917969 781.167969 494.371094 781.539062 493.78125 781.539062 " fill-opacity="1" fill-rule="nonzero"/><path fill="#000000" d="M 240.121094 509.574219 C 240.121094 509.574219 388.691406 492.277344 432.867188 530.519531 C 477.046875 568.761719 363.125 733.214844 363.125 733.214844 L 327.101562 706.496094 L 361.273438 590.261719 L 223.941406 551.261719 L 240.121094 509.574219 " fill-opacity="1" fill-rule="nonzero"/><path fill="#000000" d="M 158.355469 585.261719 C 179.9375 592.109375 218.550781 600.96875 272.523438 600.230469 C 287.855469 600.019531 302.011719 608.492188 308.976562 622.15625 C 324.964844 653.503906 359.566406 709.949219 415.925781 746.535156 L 442.84375 732.035156 L 374.136719 577.382812 C 367.867188 563.257812 356.136719 552.285156 341.632812 546.964844 L 205.472656 497.039062 C 205.472656 497.039062 163.253906 485.238281 142.554688 522.929688 C 138.855469 529.65625 131.992188 517.625 130.355469 523.058594 C 124.753906 541.679688 139.820312 579.378906 158.355469 585.261719 " fill-opacity="1" fill-rule="nonzero"/><path fill="#ffffff" d="M 405.1875 648.675781 C 404.644531 648.675781 404.132812 648.363281 403.902344 647.839844 L 372.855469 577.957031 C 366.773438 564.257812 355.214844 553.445312 341.148438 548.289062 L 275.941406 524.378906 C 275.210938 524.113281 274.835938 523.304688 275.105469 522.574219 C 275.371094 521.84375 276.179688 521.46875 276.910156 521.738281 L 342.113281 545.648438 C 356.894531 551.066406 369.035156 562.429688 375.425781 576.8125 L 406.46875 646.699219 C 406.789062 647.410156 406.464844 648.238281 405.757812 648.554688 C 405.574219 648.636719 405.378906 648.675781 405.1875 648.675781 " fill-opacity="1" fill-rule="nonzero"/><path fill="#ffffff" d="M 368.9375 708.75 C 368.566406 708.75 368.203125 708.605469 367.925781 708.324219 C 361.675781 701.820312 355.519531 694.839844 349.640625 687.570312 C 349.152344 686.964844 349.246094 686.082031 349.851562 685.589844 C 350.453125 685.101562 351.339844 685.195312 351.828125 685.800781 C 357.660156 693.007812 363.757812 699.925781 369.953125 706.371094 C 370.488281 706.933594 370.472656 707.820312 369.914062 708.363281 C 369.636719 708.625 369.289062 708.75 368.9375 708.75 " fill-opacity="1" fill-rule="nonzero"/><path fill="#ffffff" d="M 350.734375 688.089844 C 350.328125 688.089844 349.917969 687.910156 349.640625 687.570312 C 346.757812 684.007812 343.878906 680.296875 341.089844 676.546875 C 340.625 675.929688 340.753906 675.042969 341.375 674.578125 C 341.996094 674.117188 342.878906 674.246094 343.34375 674.871094 C 346.117188 678.589844 348.964844 682.265625 351.828125 685.800781 C 352.316406 686.402344 352.222656 687.289062 351.621094 687.78125 C 351.359375 687.988281 351.046875 688.089844 350.734375 688.089844 " fill-opacity="1" fill-rule="nonzero"/><path fill="#ffffff" d="M 433.769531 292.269531 L 395.0625 313.164062 C 395.0625 313.164062 371.34375 375.035156 337.378906 378.761719 C 303.414062 382.488281 269.824219 335.515625 269.824219 335.515625 L 247.28125 383.746094 C 247.28125 383.746094 280.378906 434.933594 332.878906 426.679688 C 385.375 418.429688 399.679688 339.574219 399.679688 339.574219 C 399.652344 339.625 412.105469 340.800781 416.796875 328.683594 C 420.785156 318.363281 419.121094 312.285156 419.121094 312.285156 C 419.121094 312.285156 437.769531 302.332031 433.769531 292.269531 " fill-opacity="1" fill-rule="nonzero"/><path fill="#000000" d="M 248.890625 383.617188 C 252.929688 389.429688 284.859375 432.808594 332.65625 425.292969 C 383.554688 417.292969 398.152344 340.101562 398.292969 339.324219 C 398.402344 338.738281 398.867188 338.28125 399.453125 338.183594 C 399.621094 338.160156 399.78125 338.164062 399.9375 338.191406 C 400.554688 338.238281 411.347656 338.863281 415.484375 328.175781 C 419.226562 318.496094 417.777344 312.710938 417.761719 312.652344 C 417.597656 312.023438 417.882812 311.355469 418.457031 311.046875 C 418.625 310.960938 433.960938 302.648438 432.875 294.351562 L 396.191406 314.152344 C 393.710938 320.441406 370.726562 376.515625 337.53125 380.15625 C 336.171875 380.308594 334.804688 380.378906 333.453125 380.378906 C 304.125 380.382812 276.640625 346.820312 270.101562 338.242188 Z M 321.582031 428.976562 C 299.296875 428.976562 281.308594 418.757812 269.519531 409.410156 C 254.671875 397.636719 246.441406 385.042969 246.097656 384.511719 C 245.835938 384.101562 245.800781 383.59375 246.003906 383.148438 L 268.546875 334.921875 C 268.761719 334.464844 269.195312 334.160156 269.695312 334.113281 C 270.191406 334.070312 270.675781 334.292969 270.964844 334.695312 C 271.296875 335.15625 304.488281 380.953125 337.226562 377.363281 C 369.945312 373.773438 393.515625 313.269531 393.75 312.65625 C 393.875 312.34375 394.101562 312.082031 394.398438 311.921875 L 433.101562 291.027344 C 433.457031 290.839844 433.871094 290.808594 434.25 290.945312 C 434.628906 291.085938 434.929688 291.375 435.078125 291.746094 C 438.992188 301.597656 424.554688 310.777344 420.683594 313.019531 C 421.007812 315.296875 421.285156 320.972656 418.105469 329.1875 C 414.660156 338.101562 407.292969 340.332031 403.214844 340.863281 C 402.207031 340.996094 401.425781 341.050781 400.816406 341.058594 C 399.84375 345.71875 395.894531 362.917969 387.226562 380.652344 C 373.75 408.226562 355.03125 424.621094 333.09375 428.070312 C 329.148438 428.6875 325.304688 428.972656 321.582031 428.976562 " fill-opacity="1" fill-rule="nonzero"/><path fill="#000000" d="M 398.574219 334.390625 C 397.972656 334.390625 397.417969 334.007812 397.230469 333.402344 C 397 332.660156 397.417969 331.871094 398.160156 331.644531 C 398.222656 331.621094 404.539062 329.59375 405.242188 324.539062 C 405.75 320.890625 407.851562 318.136719 409.523438 316.46875 C 410.875 315.125 411.679688 313.367188 411.816406 311.464844 L 400.710938 315.894531 C 399.988281 316.179688 399.171875 315.828125 398.882812 315.109375 C 398.59375 314.386719 398.949219 313.570312 399.671875 313.28125 L 412.71875 308.074219 C 413.15625 307.898438 413.648438 307.957031 414.03125 308.21875 C 414.417969 308.480469 414.652344 308.914062 414.652344 309.382812 L 414.652344 310.878906 C 414.652344 313.757812 413.53125 316.449219 411.511719 318.464844 C 410.140625 319.824219 408.425781 322.050781 408.027344 324.921875 C 407.082031 331.765625 399.316406 334.230469 398.988281 334.335938 C 398.851562 334.375 398.710938 334.390625 398.574219 334.390625 " fill-opacity="1" fill-rule="nonzero"/><path fill="#eb9f18" d="M 148.992188 314.164062 C 166.019531 310.160156 173.117188 310.109375 234.992188 312.351562 C 250.117188 312.898438 268.105469 331.878906 269.882812 346.910156 C 265.078125 361.324219 242.894531 432.492188 281.621094 488.101562 C 287.117188 495.988281 294.585938 504.644531 304.84375 512.9375 C 299.078125 517.597656 290.125 523.660156 278.101562 527.230469 C 258.140625 533.160156 248.101562 526.75 232.011719 527.230469 C 189.457031 528.5 173.851562 575.898438 146.363281 569.945312 C 139.027344 568.355469 129.296875 562.628906 120.175781 543.425781 C 115.007812 527.503906 110.40625 508.808594 107.847656 487.675781 C 100.90625 430.394531 112.265625 382.699219 122.414062 352.769531 C 125.429688 343.316406 128.925781 318.882812 148.992188 314.164062 " fill-opacity="1" fill-rule="nonzero"/><path fill="#eb9f18" d="M 300.226562 357.128906 C 300.226562 357.128906 267.722656 316.1875 239.066406 312.917969 L 253.1875 421.324219 L 300.226562 357.128906 " fill-opacity="1" fill-rule="nonzero"/><path fill="#ffffff" d="M 240.257812 428.984375 L 222.152344 430.957031 C 221.769531 431 221.394531 431.121094 221.050781 431.304688 L 183.476562 451.523438 C 182.929688 451.816406 182.304688 451.9375 181.6875 451.859375 L 141.777344 447.027344 C 134.648438 446.164062 129.804688 439.355469 131.332031 432.339844 L 139.878906 393.019531 C 140.085938 392.070312 139.820312 391.078125 139.167969 390.355469 L 101.988281 349.308594 C 100.34375 347.488281 97.332031 348.289062 96.8125 350.6875 C 92.984375 368.40625 67.0625 436.71875 85.824219 468.699219 C 105.714844 502.613281 181.214844 478.929688 181.214844 478.929688 C 181.214844 478.929688 181.519531 479.027344 181.945312 478.835938 C 181.945312 478.835938 191.472656 474.546875 196.992188 472.183594 C 202.316406 469.910156 208.167969 461.429688 210.980469 456.945312 C 211.921875 455.445312 213.9375 455.070312 215.347656 456.136719 L 222.347656 461.425781 C 227.292969 465.15625 234.316406 464.101562 237.984375 459.105469 C 240.441406 455.765625 242.507812 452.496094 242.402344 451.5 C 241.875 446.472656 240.457031 444.480469 235.921875 442.507812 C 235.753906 442.4375 235.59375 442.351562 235.445312 442.25 L 234.367188 441.523438 C 232.035156 439.949219 232.9375 436.328125 235.738281 436.023438 C 238.796875 435.691406 242.453125 435.988281 245.722656 438.121094 C 246.785156 438.808594 247.742188 439.335938 248.609375 439.722656 C 252.101562 441.285156 254.574219 436.113281 251.210938 434.292969 L 242.019531 429.328125 C 241.480469 429.035156 240.867188 428.914062 240.257812 428.984375 " fill-opacity="1" fill-rule="nonzero"/><path fill="#000000" d="M 241 451.539062 Z M 99.765625 349.71875 C 99.625 349.71875 99.480469 349.738281 99.335938 349.777344 C 98.746094 349.933594 98.316406 350.386719 98.1875 350.984375 C 97.496094 354.191406 96.125 358.910156 94.390625 364.882812 C 86.539062 391.917969 71.925781 442.226562 87.035156 467.988281 C 106.136719 500.558594 180.046875 477.820312 180.792969 477.585938 L 181.214844 477.453125 L 181.433594 477.523438 C 182.292969 477.140625 191.214844 473.128906 196.4375 470.894531 C 200.03125 469.359375 204.894531 464 209.789062 456.199219 C 210.445312 455.148438 211.519531 454.421875 212.734375 454.195312 C 213.949219 453.972656 215.210938 454.273438 216.195312 455.015625 L 223.195312 460.300781 C 225.273438 461.871094 227.835938 462.527344 230.414062 462.152344 C 233.011719 461.769531 235.296875 460.390625 236.851562 458.277344 C 239.925781 454.089844 240.898438 452.089844 240.996094 451.574219 C 240.511719 447.085938 239.394531 445.554688 235.359375 443.796875 C 235.109375 443.691406 234.875 443.5625 234.660156 443.414062 L 233.582031 442.6875 C 232.027344 441.640625 231.308594 439.785156 231.761719 437.96875 C 232.214844 436.140625 233.714844 434.832031 235.585938 434.625 C 239.765625 434.175781 243.433594 434.953125 246.492188 436.9375 C 247.445312 437.558594 248.351562 438.066406 249.183594 438.4375 C 250.472656 439.015625 251.089844 437.914062 251.203125 437.691406 C 251.273438 437.546875 251.867188 436.246094 250.542969 435.53125 L 241.351562 430.5625 C 241.0625 430.40625 240.738281 430.34375 240.410156 430.378906 L 222.304688 432.359375 C 222.101562 432.382812 221.902344 432.441406 221.71875 432.539062 L 184.144531 452.757812 C 183.332031 453.191406 182.425781 453.363281 181.515625 453.257812 L 141.605469 448.425781 C 137.816406 447.964844 134.375 445.917969 132.164062 442.808594 C 129.949219 439.695312 129.148438 435.773438 129.957031 432.042969 L 138.503906 392.722656 C 138.617188 392.21875 138.472656 391.6875 138.125 391.304688 L 100.949219 350.253906 C 100.632812 349.902344 100.210938 349.71875 99.765625 349.71875 Z M 130.273438 488.46875 C 111.742188 488.46875 93.273438 484.183594 84.609375 469.414062 C 68.886719 442.605469 83.71875 391.539062 91.6875 364.101562 C 93.40625 358.179688 94.765625 353.503906 95.441406 350.386719 C 95.789062 348.765625 97.003906 347.488281 98.609375 347.058594 C 100.21875 346.628906 101.914062 347.128906 103.03125 348.363281 L 140.210938 389.414062 C 141.164062 390.472656 141.554688 391.929688 141.253906 393.320312 L 132.707031 432.636719 C 132.0625 435.601562 132.699219 438.710938 134.453125 441.175781 C 136.207031 443.644531 138.9375 445.269531 141.945312 445.632812 L 181.855469 450.464844 C 182.1875 450.503906 182.515625 450.4375 182.808594 450.28125 L 220.386719 430.0625 C 220.890625 429.792969 221.433594 429.625 222 429.558594 L 240.105469 427.585938 C 241.003906 427.488281 241.894531 427.660156 242.6875 428.089844 L 251.878906 433.058594 C 254.339844 434.386719 254.671875 437.019531 253.726562 438.933594 C 252.796875 440.8125 250.546875 442.132812 248.035156 441.003906 C 247.070312 440.570312 246.035156 439.996094 244.957031 439.296875 C 242.457031 437.671875 239.40625 437.042969 235.886719 437.421875 C 234.84375 437.535156 234.554688 438.382812 234.492188 438.640625 C 234.429688 438.894531 234.289062 439.773438 235.152344 440.359375 L 236.230469 441.085938 C 236.308594 441.136719 236.394531 441.183594 236.480469 441.21875 C 241.441406 443.375 243.222656 445.839844 243.800781 451.351562 C 243.863281 451.929688 244.003906 453.289062 239.117188 459.9375 C 237.113281 462.667969 234.167969 464.441406 230.820312 464.9375 C 227.492188 465.417969 224.183594 464.574219 221.5 462.546875 L 214.503906 457.261719 C 214.136719 456.988281 213.6875 456.878906 213.242188 456.960938 C 212.796875 457.042969 212.414062 457.304688 212.171875 457.691406 C 209.121094 462.554688 203.164062 471.078125 197.546875 473.480469 C 192.101562 475.804688 182.617188 480.078125 182.523438 480.117188 C 182.070312 480.320312 181.660156 480.367188 181.351562 480.359375 C 178.058594 481.375 154.113281 488.46875 130.273438 488.46875 " fill-opacity="1" fill-rule="nonzero"/><path fill="#ffffff" d="M 219.890625 441.816406 L 240.257812 455.910156 L 219.890625 441.816406 " fill-opacity="1" fill-rule="nonzero"/><path fill="#000000" d="M 240.257812 457.316406 C 239.980469 457.316406 239.703125 457.230469 239.460938 457.0625 L 219.089844 442.972656 C 218.449219 442.53125 218.289062 441.65625 218.730469 441.019531 C 219.171875 440.378906 220.046875 440.21875 220.6875 440.660156 L 241.058594 454.75 C 241.699219 455.191406 241.859375 456.066406 241.417969 456.707031 C 241.140625 457.101562 240.703125 457.316406 240.257812 457.316406 " fill-opacity="1" fill-rule="nonzero"/><path fill="#ffffff" d="M 217.691406 448.972656 L 235.617188 462.03125 L 217.691406 448.972656 " fill-opacity="1" fill-rule="nonzero"/><path fill="#000000" d="M 235.613281 463.4375 C 235.328125 463.4375 235.039062 463.351562 234.789062 463.167969 L 216.859375 450.109375 C 216.234375 449.648438 216.097656 448.773438 216.554688 448.144531 C 217.011719 447.515625 217.890625 447.378906 218.519531 447.835938 L 236.445312 460.894531 C 237.070312 461.351562 237.210938 462.230469 236.753906 462.855469 C 236.476562 463.234375 236.050781 463.4375 235.613281 463.4375 " fill-opacity="1" fill-rule="nonzero"/><path fill="#eb9f18" d="M 72.214844 395.089844 C 72.214844 395.089844 82.988281 368.691406 90.046875 351.191406 C 105.714844 312.351562 155 312.351562 155 312.351562 L 143.78125 414.945312 L 72.214844 395.089844 " fill-opacity="1" fill-rule="nonzero"/><path fill="#000000" d="M 182.277344 276.832031 C 177.839844 279.070312 174.492188 279.390625 172.082031 279.25 C 163.367188 278.753906 157.777344 271.726562 156.660156 270.320312 C 150.882812 263.0625 148.097656 251.132812 152.996094 244.132812 C 156.519531 239.089844 160.960938 240.992188 165.019531 235.351562 C 169.628906 228.949219 164.902344 223.730469 169.15625 218.125 C 174.050781 211.675781 184.839844 212.167969 186.78125 212.257812 C 193.4375 212.5625 194.226562 215.863281 200.519531 215.691406 C 206.945312 215.519531 207.796875 212.289062 213.691406 212.257812 C 218.375 212.230469 225.203125 214.226562 228.261719 219.640625 C 232.101562 226.4375 228.175781 235.394531 223.617188 240.125 C 218.144531 245.796875 214.292969 242.753906 206.628906 247.375 C 193.347656 255.386719 196.523438 269.65625 182.277344 276.832031 " fill-opacity="1" fill-rule="nonzero"/><path fill="#ffffff" d="M 207.011719 307.058594 L 203.417969 284.6875 C 204.207031 284.601562 210.832031 283.445312 211.589844 283.070312 C 217.71875 280.015625 216.015625 264.625 216.015625 264.625 L 219.425781 260.550781 L 209.257812 237.796875 C 198.457031 246.796875 194.605469 237.957031 183.917969 242.386719 C 173.230469 246.816406 179.027344 258.714844 179.027344 258.714844 C 179.027344 258.714844 170.292969 254.867188 172.160156 263.3125 C 173.570312 269.695312 178.21875 270.09375 181.28125 269.835938 L 175.582031 308.195312 C 175.582031 308.195312 157.246094 313.40625 153.699219 314.34375 C 158.316406 314.125 190.222656 328 226.410156 312.839844 L 207.011719 307.058594 " fill-opacity="1" fill-rule="nonzero"/><path fill="#000000" d="M 159.699219 314.140625 C 170.484375 316.875 194.902344 322.992188 222.097656 313.023438 L 206.609375 308.40625 C 206.09375 308.253906 205.710938 307.8125 205.625 307.285156 L 202.027344 284.914062 C 201.96875 284.535156 202.0625 284.144531 202.296875 283.839844 C 202.527344 283.535156 202.878906 283.339844 203.257812 283.292969 C 204.125 283.195312 210.1875 282.113281 211 281.792969 C 215.261719 279.671875 215.058594 268.789062 214.617188 264.78125 C 214.574219 264.398438 214.691406 264.015625 214.9375 263.726562 L 217.78125 260.324219 L 208.707031 240.015625 C 202.859375 244.300781 198.769531 243.617188 194.804688 242.953125 C 191.660156 242.429688 188.691406 241.929688 184.457031 243.6875 C 181.921875 244.734375 180.230469 246.339844 179.429688 248.457031 C 177.769531 252.835938 180.265625 258.046875 180.292969 258.101562 C 180.550781 258.628906 180.449219 259.265625 180.042969 259.691406 C 179.632812 260.113281 179 260.242188 178.460938 260 C 177.109375 259.410156 174.691406 258.875 173.8125 259.597656 C 173.25 260.0625 173.152344 261.273438 173.535156 263.011719 C 174.445312 267.132812 176.796875 268.800781 181.160156 268.4375 C 181.585938 268.402344 182.011719 268.5625 182.304688 268.878906 C 182.597656 269.1875 182.734375 269.621094 182.671875 270.042969 L 176.972656 308.40625 C 176.890625 308.949219 176.496094 309.394531 175.964844 309.546875 C 175.832031 309.582031 166.308594 312.289062 159.699219 314.140625 Z M 190.578125 321.335938 C 176.652344 321.335938 165.347656 318.472656 158.898438 316.84375 C 156.507812 316.238281 154.445312 315.71875 153.765625 315.75 C 153.046875 315.785156 152.421875 315.269531 152.3125 314.5625 C 152.199219 313.84375 152.644531 313.171875 153.339844 312.984375 C 156.390625 312.179688 170.632812 308.136719 174.324219 307.089844 L 179.640625 271.289062 C 173.734375 271.101562 171.558594 267.105469 170.785156 263.621094 C 170.144531 260.707031 170.5625 258.625 172.027344 257.421875 C 173.363281 256.332031 175.210938 256.3125 176.757812 256.582031 C 176.09375 254.238281 175.554688 250.742188 176.800781 247.457031 C 177.886719 244.59375 180.101562 242.453125 183.378906 241.089844 C 188.359375 239.023438 192.03125 239.636719 195.269531 240.179688 C 199.261719 240.847656 202.710938 241.421875 208.355469 236.71875 C 208.695312 236.4375 209.144531 236.328125 209.574219 236.429688 C 210 236.53125 210.359375 236.820312 210.539062 237.222656 L 220.707031 259.980469 C 220.925781 260.472656 220.847656 261.046875 220.5 261.457031 L 217.472656 265.074219 C 217.769531 268.34375 218.507812 281.195312 212.214844 284.328125 C 211.410156 284.730469 207.285156 285.476562 205.027344 285.859375 L 208.261719 305.964844 L 226.8125 311.488281 C 227.382812 311.660156 227.785156 312.171875 227.816406 312.761719 C 227.847656 313.355469 227.5 313.90625 226.953125 314.132812 C 213.945312 319.585938 201.460938 321.335938 190.578125 321.335938 " fill-opacity="1" fill-rule="nonzero"/><path fill="#000000" d="M 200.917969 286.269531 C 191.523438 286.269531 187.222656 279.144531 187.027344 278.816406 C 186.636719 278.144531 186.859375 277.28125 187.527344 276.890625 C 188.199219 276.496094 189.058594 276.722656 189.449219 277.382812 C 189.628906 277.679688 193.863281 284.578125 203.226562 283.292969 C 203.996094 283.195312 204.703125 283.734375 204.808594 284.5 C 204.914062 285.269531 204.375 285.980469 203.605469 286.082031 C 202.667969 286.214844 201.769531 286.269531 200.917969 286.269531 " fill-opacity="1" fill-rule="nonzero"/><path fill="#b16901" d="M 446.617188 528.152344 L 236.941406 528.152344 C 235.074219 528.152344 233.558594 526.640625 233.558594 524.769531 L 233.558594 516.53125 L 450 516.53125 L 450 524.769531 C 450 526.640625 448.484375 528.152344 446.617188 528.152344 " fill-opacity="1" fill-rule="nonzero"/><path fill="#000000" d="M 234.964844 517.9375 L 234.964844 520.691406 C 234.964844 524.03125 237.683594 526.746094 241.023438 526.746094 L 442.535156 526.746094 C 445.878906 526.746094 448.59375 524.03125 448.59375 520.691406 L 448.59375 517.9375 Z M 442.535156 529.558594 L 241.023438 529.558594 C 236.132812 529.558594 232.152344 525.582031 232.152344 520.691406 L 232.152344 516.53125 C 232.152344 515.757812 232.78125 515.128906 233.558594 515.128906 L 450 515.128906 C 450.777344 515.128906 451.40625 515.757812 451.40625 516.53125 L 451.40625 520.691406 C 451.40625 525.582031 447.429688 529.558594 442.535156 529.558594 " fill-opacity="1" fill-rule="nonzero"/><path fill="#b16901" d="M 450.003906 516.53125 L 326.15625 516.53125 L 365.507812 400.914062 C 367.859375 397.289062 371.964844 395.089844 376.375 395.089844 L 481.0625 395.089844 C 485.816406 395.089844 488.875 399.703125 487.324219 403.769531 C 486.707031 405.390625 486.039062 406.984375 485.5 408.636719 L 450.003906 516.53125 " fill-opacity="1" fill-rule="nonzero"/><path fill="#000000" d="M 328.117188 515.128906 L 448.988281 515.128906 L 484.167969 408.191406 C 484.566406 406.976562 485.03125 405.785156 485.484375 404.628906 C 485.660156 404.175781 485.835938 403.722656 486.011719 403.273438 C 486.578125 401.785156 486.359375 400.097656 485.429688 398.746094 C 484.445312 397.316406 482.851562 396.496094 481.0625 396.496094 L 376.375 396.496094 C 372.472656 396.496094 368.898438 398.378906 366.777344 401.539062 Z M 450.003906 517.9375 L 326.15625 517.9375 C 325.699219 517.9375 325.273438 517.71875 325.011719 517.351562 C 324.75 516.980469 324.679688 516.507812 324.824219 516.078125 L 364.171875 400.457031 C 364.210938 400.351562 364.261719 400.246094 364.324219 400.148438 C 366.957031 396.101562 371.457031 393.683594 376.375 393.683594 L 481.0625 393.683594 C 483.792969 393.683594 486.226562 394.949219 487.746094 397.152344 C 489.199219 399.261719 489.535156 401.921875 488.636719 404.269531 C 488.460938 404.734375 488.28125 405.191406 488.101562 405.652344 C 487.664062 406.773438 487.214844 407.929688 486.839844 409.074219 L 451.335938 516.972656 C 451.152344 517.550781 450.609375 517.9375 450.003906 517.9375 " fill-opacity="1" fill-rule="nonzero"/><path fill="#ffffff" d="M 404.042969 454.351562 C 402.570312 459.25 404.824219 464.261719 409.078125 465.546875 C 413.335938 466.828125 417.984375 463.902344 419.460938 459.007812 C 420.9375 454.109375 418.683594 449.097656 414.425781 447.8125 C 410.167969 446.53125 405.515625 449.457031 404.042969 454.351562 " fill-opacity="1" fill-rule="nonzero"/><path fill="#000000" d="M 210.523438 175.136719 C 211.734375 173.933594 212.417969 172.5625 212.417969 171.105469 C 212.417969 166.3125 204.988281 162.425781 195.828125 162.425781 C 186.667969 162.425781 179.238281 166.3125 179.238281 171.105469 C 179.238281 172.5625 179.925781 173.933594 181.132812 175.136719 C 179.925781 176.339844 179.238281 177.714844 179.238281 179.164062 C 179.238281 181.445312 180.910156 183.511719 183.648438 185.0625 C 183.585938 185.316406 183.550781 185.582031 183.550781 185.847656 C 183.550781 189.398438 189.050781 192.273438 195.828125 192.273438 C 202.609375 192.273438 208.105469 189.398438 208.105469 185.847656 C 208.105469 185.582031 208.070312 185.316406 208.011719 185.0625 C 210.746094 183.511719 212.417969 181.445312 212.417969 179.164062 C 212.417969 177.714844 211.734375 176.339844 210.523438 175.136719 " fill-opacity="1" fill-rule="nonzero"/><path fill="#ffffff" d="M 240.34375 103.921875 C 240.34375 79.335938 220.414062 59.40625 195.828125 59.40625 C 171.289062 59.40625 151.476562 79.085938 151.3125 103.621094 C 151.230469 116.117188 156.296875 127.425781 164.515625 135.558594 C 170.441406 141.429688 174.765625 148.71875 176.863281 156.792969 L 176.964844 157.183594 C 179 165.019531 186.074219 170.484375 194.167969 170.484375 L 197.488281 170.484375 C 205.585938 170.484375 212.65625 165.019531 214.695312 157.183594 L 214.753906 156.945312 C 216.839844 148.929688 220.984375 141.570312 226.914062 135.789062 C 235.203125 127.703125 240.34375 116.417969 240.34375 103.921875 " fill-opacity="1" fill-rule="nonzero"/><path fill="#000000" d="M 195.828125 60.8125 C 172.214844 60.8125 152.875 80.019531 152.71875 103.632812 C 152.640625 115.339844 157.179688 126.324219 165.503906 134.5625 C 171.699219 140.695312 176.09375 148.257812 178.222656 156.4375 L 178.324219 156.832031 C 180.199219 164.042969 186.714844 169.078125 194.167969 169.078125 L 197.488281 169.078125 C 204.941406 169.078125 211.457031 164.042969 213.332031 156.832031 L 213.394531 156.59375 C 215.578125 148.195312 219.914062 140.648438 225.933594 134.78125 C 234.320312 126.597656 238.941406 115.640625 238.941406 103.925781 C 238.941406 80.152344 219.601562 60.8125 195.828125 60.8125 Z M 197.488281 171.894531 L 194.167969 171.894531 C 185.433594 171.894531 177.800781 165.988281 175.601562 157.535156 L 175.5 157.144531 C 173.5 149.453125 169.359375 142.332031 163.523438 136.558594 C 154.660156 127.789062 149.824219 116.082031 149.90625 103.609375 C 150.074219 78.464844 170.675781 58 195.828125 58 C 195.832031 58 195.828125 58 195.828125 58 C 221.152344 58 241.753906 78.597656 241.753906 103.925781 C 241.753906 116.398438 236.832031 128.078125 227.898438 136.792969 C 222.246094 142.304688 218.171875 149.398438 216.117188 157.300781 L 216.054688 157.535156 C 213.859375 165.988281 206.222656 171.894531 197.488281 171.894531 " fill-opacity="1" fill-rule="nonzero"/><path fill="#000000" d="M 198.921875 164.863281 C 198.203125 164.863281 197.589844 164.316406 197.523438 163.585938 C 195.265625 139.183594 206.582031 101.839844 207.066406 100.265625 C 207.292969 99.519531 208.078125 99.105469 208.820312 99.332031 C 209.5625 99.558594 209.980469 100.347656 209.753906 101.089844 C 209.636719 101.472656 198.117188 139.480469 200.320312 163.324219 C 200.394531 164.097656 199.824219 164.785156 199.050781 164.851562 C 199.007812 164.859375 198.964844 164.863281 198.921875 164.863281 " fill-opacity="1" fill-rule="nonzero"/><path fill="#000000" d="M 193.417969 163.832031 C 192.65625 163.832031 192.027344 163.222656 192.015625 162.453125 C 191.179688 116.550781 182.191406 103.359375 182.101562 103.230469 C 181.65625 102.601562 181.800781 101.722656 182.429688 101.273438 C 183.058594 100.820312 183.929688 100.964844 184.382812 101.585938 C 184.777344 102.128906 193.96875 115.339844 194.828125 162.402344 C 194.839844 163.175781 194.222656 163.820312 193.445312 163.832031 C 193.4375 163.832031 193.429688 163.832031 193.417969 163.832031 " fill-opacity="1" fill-rule="nonzero"/><path fill="#000000" d="M 199.425781 97.851562 C 199.222656 98.527344 199.070312 99.371094 199.109375 100.25 C 199.128906 100.652344 199.183594 101.066406 199.273438 101.472656 C 199.371094 101.078125 199.449219 100.683594 199.488281 100.300781 C 199.585938 99.441406 199.535156 98.570312 199.425781 97.851562 Z M 192.683594 98.527344 C 192.46875 99.238281 192.300781 100.335938 192.421875 101.433594 C 192.488281 101.984375 192.632812 102.570312 192.832031 103.140625 C 193.1875 102.285156 193.363281 101.335938 193.292969 100.511719 C 193.230469 99.761719 192.957031 99.027344 192.683594 98.527344 Z M 195.6875 109.15625 C 195.621094 109.15625 195.558594 109.15625 195.496094 109.15625 C 194.335938 109.097656 193.332031 108.574219 192.492188 107.785156 C 191.753906 108.207031 190.945312 108.4375 190.101562 108.453125 C 187.417969 108.503906 184.828125 106.40625 183.832031 103.355469 C 183.59375 102.613281 183.996094 101.824219 184.734375 101.582031 C 185.472656 101.339844 186.265625 101.742188 186.507812 102.484375 C 187.113281 104.339844 188.578125 105.671875 190.046875 105.640625 C 190.308594 105.636719 190.558594 105.582031 190.804688 105.484375 C 190.15625 104.238281 189.757812 102.882812 189.628906 101.75 C 189.421875 99.914062 189.757812 97.375 190.800781 96.074219 C 191.328125 95.414062 191.914062 95.222656 192.3125 95.183594 C 192.722656 95.136719 193.351562 95.199219 194.023438 95.753906 C 195.074219 96.617188 195.949219 98.519531 196.097656 100.269531 C 196.253906 102.132812 195.644531 104.273438 194.546875 105.855469 C 194.890625 106.148438 195.257812 106.328125 195.625 106.34375 C 196.292969 106.375 197.003906 105.84375 197.625 105.027344 C 196.824219 103.597656 196.363281 101.855469 196.300781 100.375 C 196.199219 98.113281 197.015625 95.480469 198.160156 94.375 C 198.761719 93.792969 199.359375 93.707031 199.757812 93.742188 C 200.121094 93.773438 200.65625 93.929688 201.136719 94.503906 C 202.183594 95.78125 202.511719 98.609375 202.285156 100.617188 C 202.136719 101.949219 201.699219 103.457031 201.027344 104.832031 C 201.21875 104.96875 201.421875 105.046875 201.59375 105.042969 C 202.273438 105.03125 203.363281 103.964844 204.007812 102.191406 C 204.273438 101.460938 205.082031 101.085938 205.808594 101.351562 C 206.539062 101.617188 206.914062 102.425781 206.648438 103.15625 C 205.605469 106.023438 203.683594 107.824219 201.636719 107.855469 C 200.84375 107.859375 200.125 107.613281 199.492188 107.183594 C 198.453125 108.363281 197.164062 109.15625 195.6875 109.15625 " fill-opacity="1" fill-rule="nonzero"/><path fill="#b16901" d="M 209.460938 79.566406 C 210.871094 80.9375 212.464844 82.105469 213.816406 83.535156 C 215.269531 85.078125 216.523438 86.882812 217.683594 88.648438 C 218.808594 90.359375 219.867188 92.175781 220.636719 94.074219 C 220.992188 94.957031 221.1875 95.898438 221.445312 96.808594 C 221.839844 98.191406 222.484375 101.324219 224.359375 101.441406 C 225.398438 101.507812 226.148438 100.445312 226.625 99.675781 C 227.476562 98.300781 227.855469 96.683594 227.980469 95.089844 C 228.238281 91.738281 227.371094 88.378906 226.050781 85.324219 C 224.6875 82.160156 222.761719 79.199219 220.355469 76.722656 C 219.359375 75.699219 218.242188 74.714844 217.027344 73.886719 C 216.988281 73.859375 216.953125 73.828125 216.917969 73.800781 C 215.511719 72.742188 213.964844 71.640625 212.15625 71.496094 C 210.785156 71.390625 209.308594 71.777344 208.238281 72.660156 C 205.628906 74.824219 207.5625 77.722656 209.460938 79.566406 " fill-opacity="1" fill-rule="nonzero"/><path fill="#b16901" d="M 205.601562 72.402344 C 206.183594 71.195312 205.988281 69.121094 205.058594 67.957031 C 205.054688 67.917969 205.039062 67.886719 205.015625 67.847656 C 203.390625 65.175781 199.273438 65.828125 198.683594 68.949219 C 198.0625 72.222656 203.808594 76.109375 205.601562 72.402344 " fill-opacity="1" fill-rule="nonzero"/><path fill="#000000" d="M 209.101562 137.144531 C 208.558594 137.144531 208.042969 136.832031 207.8125 136.300781 C 207.503906 135.589844 207.832031 134.761719 208.542969 134.453125 C 217.003906 130.785156 223.695312 123.730469 226.898438 115.09375 C 227.167969 114.363281 227.976562 113.992188 228.707031 114.261719 C 229.433594 114.527344 229.804688 115.335938 229.535156 116.070312 C 226.066406 125.421875 218.824219 133.066406 209.660156 137.035156 C 209.480469 137.109375 209.289062 137.144531 209.101562 137.144531 " fill-opacity="1" fill-rule="nonzero"/><path fill="#000000" d="M 169.003906 128.582031 C 168.625 128.582031 168.246094 128.433594 167.964844 128.132812 C 161.734375 121.339844 158.304688 112.511719 158.304688 103.289062 C 158.304688 89.097656 166.238281 76.421875 179.003906 70.210938 C 179.703125 69.871094 180.542969 70.164062 180.886719 70.863281 C 181.226562 71.5625 180.933594 72.402344 180.234375 72.742188 C 168.441406 78.476562 161.117188 90.179688 161.117188 103.289062 C 161.117188 111.804688 164.285156 119.953125 170.039062 126.226562 C 170.566406 126.796875 170.527344 127.6875 169.957031 128.210938 C 169.683594 128.460938 169.34375 128.582031 169.003906 128.582031 " fill-opacity="1" fill-rule="nonzero"/><path fill="#ffffff" d="M 189.667969 178.773438 C 185.453125 178.773438 182.546875 178.324219 182.28125 178.28125 C 181.515625 178.15625 180.996094 177.4375 181.117188 176.667969 C 181.238281 175.902344 181.957031 175.382812 182.726562 175.503906 C 182.871094 175.527344 196.984375 177.691406 208.539062 172.128906 C 209.238281 171.789062 210.078125 172.085938 210.417969 172.78125 C 210.753906 173.480469 210.457031 174.324219 209.757812 174.660156 C 202.78125 178.019531 195.125 178.773438 189.667969 178.773438 " fill-opacity="1" fill-rule="nonzero"/><path fill="#ffffff" d="M 191.339844 186.554688 C 188.242188 186.554688 186.113281 186.226562 185.917969 186.191406 C 185.152344 186.070312 184.628906 185.347656 184.75 184.582031 C 184.875 183.816406 185.59375 183.292969 186.363281 183.417969 C 186.460938 183.429688 196.617188 184.984375 204.902344 180.988281 C 205.605469 180.65625 206.445312 180.949219 206.78125 181.652344 C 207.117188 182.351562 206.824219 183.191406 206.125 183.523438 C 200.988281 186 195.355469 186.554688 191.339844 186.554688 " fill-opacity="1" fill-rule="nonzero"/><path fill="#000000" d="M 336.144531 91.242188 C 335.890625 91.242188 335.632812 91.171875 335.402344 91.035156 C 334.742188 90.625 334.539062 89.757812 334.949219 89.097656 L 337.570312 84.855469 C 337.980469 84.195312 338.84375 83.988281 339.507812 84.398438 C 340.167969 84.804688 340.371094 85.675781 339.960938 86.335938 L 337.339844 90.578125 C 337.074219 91.007812 336.613281 91.242188 336.144531 91.242188 " fill-opacity="1" fill-rule="nonzero"/><path fill="#000000" d="M 326.957031 106.085938 C 326.703125 106.085938 326.449219 106.019531 326.21875 105.878906 C 325.558594 105.464844 325.351562 104.601562 325.765625 103.9375 L 328.386719 99.699219 C 328.792969 99.039062 329.660156 98.835938 330.324219 99.246094 C 330.984375 99.652344 331.1875 100.519531 330.78125 101.179688 L 328.152344 105.417969 C 327.890625 105.851562 327.425781 106.085938 326.957031 106.085938 " fill-opacity="1" fill-rule="nonzero"/><path fill="#000000" d="M 327.679688 93.242188 C 327.425781 93.242188 327.160156 93.171875 326.929688 93.023438 L 322.785156 90.378906 C 322.128906 89.964844 321.933594 89.09375 322.355469 88.4375 C 322.769531 87.78125 323.644531 87.589844 324.296875 88.007812 L 328.441406 90.652344 C 329.09375 91.066406 329.285156 91.9375 328.871094 92.59375 C 328.601562 93.011719 328.148438 93.242188 327.679688 93.242188 " fill-opacity="1" fill-rule="nonzero"/><path fill="#000000" d="M 342.183594 102.492188 C 341.925781 102.492188 341.660156 102.421875 341.425781 102.269531 L 337.285156 99.628906 C 336.628906 99.210938 336.4375 98.339844 336.855469 97.6875 C 337.273438 97.03125 338.144531 96.839844 338.796875 97.257812 L 342.941406 99.902344 C 343.59375 100.3125 343.785156 101.1875 343.371094 101.839844 C 343.101562 102.261719 342.648438 102.492188 342.183594 102.492188 " fill-opacity="1" fill-rule="nonzero"/><path fill="#000000" d="M 683.9375 145.304688 C 683.179688 145.304688 682.550781 144.699219 682.539062 143.929688 L 682.425781 138.945312 C 682.414062 138.167969 683.03125 137.527344 683.800781 137.507812 C 684.578125 137.488281 685.21875 138.109375 685.238281 138.886719 L 685.34375 143.871094 C 685.359375 144.648438 684.746094 145.289062 683.972656 145.304688 C 683.960938 145.304688 683.953125 145.304688 683.9375 145.304688 " fill-opacity="1" fill-rule="nonzero"/><path fill="#000000" d="M 684.320312 162.757812 C 683.554688 162.757812 682.933594 162.144531 682.914062 161.375 L 682.808594 156.394531 C 682.789062 155.613281 683.40625 154.972656 684.1875 154.953125 C 684.933594 154.929688 685.605469 155.554688 685.613281 156.332031 L 685.730469 161.316406 C 685.746094 162.097656 685.128906 162.738281 684.347656 162.757812 C 684.34375 162.757812 684.328125 162.757812 684.320312 162.757812 " fill-opacity="1" fill-rule="nonzero"/><path fill="#000000" d="M 673.019531 151.628906 C 672.25 151.628906 671.621094 151.007812 671.609375 150.234375 C 671.605469 149.453125 672.230469 148.820312 673.007812 148.816406 L 677.921875 148.777344 C 677.925781 148.777344 677.929688 148.777344 677.9375 148.777344 C 678.703125 148.777344 679.328125 149.402344 679.339844 150.171875 C 679.34375 150.949219 678.71875 151.582031 677.941406 151.585938 L 673.027344 151.628906 C 673.023438 151.628906 673.023438 151.628906 673.019531 151.628906 " fill-opacity="1" fill-rule="nonzero"/><path fill="#000000" d="M 690.21875 151.492188 C 689.449219 151.492188 688.820312 150.867188 688.808594 150.097656 C 688.804688 149.320312 689.429688 148.683594 690.207031 148.679688 L 695.121094 148.636719 C 695.125 148.636719 695.128906 148.636719 695.136719 148.636719 C 695.898438 148.636719 696.527344 149.261719 696.539062 150.03125 C 696.542969 150.8125 695.921875 151.445312 695.140625 151.453125 L 690.226562 151.492188 C 690.222656 151.492188 690.21875 151.492188 690.21875 151.492188 " fill-opacity="1" fill-rule="nonzero"/><path fill="#000000" d="M 275.101562 119.816406 C 271.949219 121.230469 270.515625 125.011719 271.90625 128.238281 C 272.585938 129.816406 273.824219 131.015625 275.394531 131.628906 C 276.929688 132.222656 278.597656 132.179688 280.101562 131.507812 C 283.253906 130.085938 284.6875 126.308594 283.296875 123.078125 C 282.617188 121.507812 281.378906 120.300781 279.808594 119.695312 C 278.277344 119.097656 276.605469 119.140625 275.101562 119.816406 Z M 277.605469 134.855469 C 276.515625 134.855469 275.421875 134.65625 274.375 134.25 C 272.097656 133.367188 270.304688 131.625 269.324219 129.355469 C 267.324219 124.722656 269.402344 119.289062 273.953125 117.246094 C 276.144531 116.261719 278.585938 116.199219 280.828125 117.074219 C 283.105469 117.957031 284.898438 119.695312 285.878906 121.964844 C 287.878906 126.597656 285.800781 132.027344 281.253906 134.070312 C 280.085938 134.59375 278.847656 134.855469 277.605469 134.855469 " fill-opacity="1" fill-rule="nonzero"/><path fill="#000000" d="M 72.125 519.167969 C 67.273438 521.34375 65.066406 527.15625 67.207031 532.117188 C 68.25 534.535156 70.15625 536.386719 72.574219 537.328125 C 74.9375 538.246094 77.515625 538.179688 79.832031 537.140625 C 84.6875 534.960938 86.890625 529.152344 84.753906 524.191406 C 83.707031 521.769531 81.800781 519.917969 79.382812 518.976562 C 77.019531 518.058594 74.441406 518.128906 72.125 519.167969 Z M 75.980469 540.789062 C 74.488281 540.789062 72.992188 540.507812 71.554688 539.949219 C 68.429688 538.734375 65.96875 536.347656 64.621094 533.230469 C 61.878906 526.863281 64.726562 519.40625 70.972656 516.601562 C 73.980469 515.25 77.332031 515.160156 80.402344 516.355469 C 83.527344 517.570312 85.988281 519.960938 87.335938 523.074219 C 90.078125 529.441406 87.230469 536.898438 80.984375 539.703125 C 79.382812 540.425781 77.683594 540.789062 75.980469 540.789062 " fill-opacity="1" fill-rule="nonzero"/><path fill="#000000" d="M 474.804688 286.492188 C 474.453125 286.492188 474.101562 286.359375 473.832031 286.101562 C 473.269531 285.5625 473.25 284.671875 473.789062 284.113281 L 477.234375 280.507812 C 477.773438 279.945312 478.664062 279.929688 479.222656 280.464844 C 479.785156 281.003906 479.808594 281.890625 479.269531 282.453125 L 475.816406 286.058594 C 475.542969 286.347656 475.175781 286.492188 474.804688 286.492188 " fill-opacity="1" fill-rule="nonzero"/><path fill="#000000" d="M 462.726562 299.09375 C 462.378906 299.09375 462.027344 298.964844 461.753906 298.703125 C 461.191406 298.167969 461.175781 297.277344 461.710938 296.714844 L 465.164062 293.113281 C 465.703125 292.550781 466.589844 292.53125 467.152344 293.070312 C 467.710938 293.609375 467.730469 294.496094 467.195312 295.058594 L 463.742188 298.660156 C 463.464844 298.949219 463.097656 299.09375 462.726562 299.09375 " fill-opacity="1" fill-rule="nonzero"/><path fill="#000000" d="M 466.113281 286.679688 C 465.757812 286.679688 465.398438 286.550781 465.128906 286.277344 L 461.625 282.832031 C 461.070312 282.289062 461.066406 281.394531 461.609375 280.84375 C 462.152344 280.289062 463.046875 280.28125 463.597656 280.828125 L 467.101562 284.273438 C 467.652344 284.820312 467.660156 285.707031 467.117188 286.261719 C 466.839844 286.542969 466.476562 286.679688 466.113281 286.679688 " fill-opacity="1" fill-rule="nonzero"/><path fill="#000000" d="M 478.371094 298.746094 C 478.011719 298.746094 477.65625 298.609375 477.382812 298.34375 L 473.882812 294.898438 C 473.328125 294.351562 473.320312 293.460938 473.867188 292.90625 C 474.410156 292.355469 475.300781 292.347656 475.855469 292.890625 L 479.355469 296.335938 C 479.910156 296.878906 479.917969 297.773438 479.375 298.328125 C 479.097656 298.605469 478.738281 298.746094 478.371094 298.746094 " fill-opacity="1" fill-rule="nonzero"/><path fill="#ffffff" d="M 47.351562 463.441406 C 46.613281 463.441406 45.996094 462.867188 45.949219 462.117188 C 45.921875 461.671875 43.269531 416.542969 55.289062 359.6875 C 62.351562 326.273438 73.019531 295.394531 87.003906 267.894531 C 104.496094 233.492188 127.25 204.316406 154.632812 181.183594 C 155.222656 180.683594 156.113281 180.757812 156.613281 181.351562 C 157.113281 181.945312 157.039062 182.832031 156.445312 183.332031 C 95.085938 235.167969 69.074219 308.113281 58.058594 360.1875 C 46.101562 416.691406 48.726562 461.496094 48.757812 461.945312 C 48.804688 462.714844 48.214844 463.386719 47.441406 463.4375 C 47.410156 463.4375 47.382812 463.441406 47.351562 463.441406 " fill-opacity="1" fill-rule="nonzero"/><path fill="#000000" d="M 39.320312 250.859375 C 39.109375 250.859375 38.894531 250.808594 38.695312 250.707031 C 38 250.367188 37.714844 249.523438 38.058594 248.828125 C 38.460938 248.011719 79 166.957031 129.578125 133.914062 C 130.230469 133.488281 131.101562 133.675781 131.527344 134.324219 C 131.949219 134.976562 131.769531 135.84375 131.117188 136.269531 C 81.171875 168.898438 40.980469 249.265625 40.578125 250.074219 C 40.332031 250.570312 39.835938 250.859375 39.320312 250.859375 " fill-opacity="1" fill-rule="nonzero"/><path fill="#ffffff" d="M 690.21875 688.089844 C 689.59375 688.089844 689.023438 687.679688 688.859375 687.050781 C 688.660156 686.300781 689.101562 685.527344 689.851562 685.328125 C 731.917969 674.054688 757.726562 643.425781 766.566406 594.292969 C 773.183594 557.503906 767.25 523.644531 767.1875 523.308594 C 767.050781 522.542969 767.558594 521.8125 768.324219 521.675781 C 769.082031 521.539062 769.820312 522.046875 769.953125 522.8125 C 770.019531 523.152344 776.039062 557.511719 769.332031 594.789062 C 765.382812 616.75 757.859375 635.4375 746.96875 650.328125 C 733.316406 668.984375 714.351562 681.671875 690.582031 688.042969 C 690.460938 688.078125 690.339844 688.089844 690.21875 688.089844 " fill-opacity="1" fill-rule="nonzero"/><path fill="#ffffff" d="M 784.398438 595.746094 C 784.320312 595.746094 784.242188 595.738281 784.15625 595.722656 C 783.394531 595.59375 782.878906 594.863281 783.007812 594.101562 C 794.777344 525.40625 765.925781 466.019531 765.628906 465.425781 C 765.292969 464.730469 765.574219 463.886719 766.269531 463.542969 C 766.964844 463.199219 767.8125 463.484375 768.15625 464.183594 C 768.457031 464.78125 797.707031 524.992188 785.78125 594.574219 C 785.664062 595.261719 785.070312 595.746094 784.398438 595.746094 " fill-opacity="1" fill-rule="nonzero"/><path fill="#ffffff" d="M 570.777344 729.324219 L 644.671875 729.324219 C 644.671875 729.324219 654.800781 790.941406 610.699219 795.859375 C 566.59375 800.777344 570.777344 729.324219 570.777344 729.324219 " fill-opacity="1" fill-rule="nonzero"/><path fill="#000000" d="M 572.136719 730.730469 C 571.929688 737.910156 571.820312 772.328125 587.777344 787.464844 C 593.757812 793.125 601.414062 795.480469 610.542969 794.464844 C 620.652344 793.332031 628.621094 789.003906 634.246094 781.585938 C 647 764.75 644.230469 736.785156 643.453125 730.730469 Z M 606.46875 797.507812 C 598.378906 797.507812 591.453125 794.824219 585.84375 789.5 C 567.117188 771.738281 569.277344 730.96875 569.378906 729.242188 C 569.417969 728.5 570.039062 727.917969 570.78125 727.917969 L 644.675781 727.917969 C 645.363281 727.917969 645.949219 728.414062 646.058594 729.09375 C 646.292969 730.488281 651.503906 763.464844 636.488281 783.285156 C 630.382812 791.339844 621.761719 796.042969 610.859375 797.257812 C 609.359375 797.425781 607.898438 797.507812 606.46875 797.507812 " fill-opacity="1" fill-rule="nonzero"/><path fill="#b16901" d="M 592.9375 714.261719 C 587.65625 714.414062 576.402344 714.589844 565.8125 707.371094 C 561.886719 704.699219 551.128906 697.367188 552.136719 687.726562 C 553 679.460938 562.261719 671.84375 574.832031 670.476562 C 559.914062 672.246094 547.914062 661.0625 547.890625 649.511719 C 547.882812 640.664062 554.898438 631.878906 565.269531 628.972656 C 549.191406 616.824219 540.746094 597.246094 543.421875 577.8125 C 546.015625 558.914062 559.105469 540.3125 578.863281 534.566406 C 581.347656 533.84375 602.808594 527.964844 618.265625 541.136719 C 631.246094 552.191406 631.390625 569.347656 631.488281 581.042969 C 631.664062 601.84375 623.316406 617.652344 618.265625 625.585938 C 619.328125 625.515625 629.992188 622.007812 639.964844 630.863281 C 650.125 639.890625 650.625 660.640625 645.675781 668.851562 C 640.492188 677.445312 628 675.628906 625.777344 676.257812 C 635.125 684.503906 634.796875 691.382812 634.691406 692.675781 C 633.636719 706.101562 609.296875 713.785156 592.9375 714.261719 " fill-opacity="1" fill-rule="nonzero"/><path fill="#ffffff" d="M 598.273438 723.859375 C 598.210938 723.859375 598.148438 723.855469 598.085938 723.847656 C 597.316406 723.746094 596.777344 723.035156 596.882812 722.269531 C 606.296875 652.738281 584.300781 574.300781 584.074219 573.519531 C 583.859375 572.773438 584.292969 571.996094 585.042969 571.78125 C 585.789062 571.570312 586.570312 572 586.78125 572.746094 C 587.007812 573.535156 609.160156 652.539062 599.667969 722.644531 C 599.574219 723.351562 598.964844 723.859375 598.273438 723.859375 " fill-opacity="1" fill-rule="nonzero"/><path fill="#b16901" d="M 608.921875 717.46875 C 607.238281 713.363281 599.972656 694.402344 609.402344 678.425781 C 611.339844 675.144531 617.820312 664.152344 627.234375 664.933594 C 634.25 665.511719 638.675781 672.28125 639.648438 673.851562 C 636.820312 663.546875 641.898438 653.109375 650.371094 649.507812 C 660.378906 645.242188 673.675781 651.144531 677.363281 663.484375 C 679.835938 662.78125 686.515625 661.261719 693.269531 664.449219 C 702.152344 668.644531 707.496094 679.261719 706.28125 690.957031 C 702.582031 703.503906 691.117188 711.183594 680.25 709.753906 C 668.449219 708.203125 662.8125 696.625 662.421875 695.777344 C 664.257812 698.671875 666.964844 704.046875 665.3125 709.273438 C 662.527344 718.054688 648.710938 722.410156 638.804688 719.878906 C 629.601562 717.527344 626.933594 710.050781 619.523438 710.71875 C 614.636719 711.160156 611.015625 714.835938 608.921875 717.46875 " fill-opacity="1" fill-rule="nonzero"/><path fill="#b16901" d="M 608.179688 723.066406 C 608.097656 723.066406 608.011719 723.054688 607.933594 723.039062 C 607.164062 722.902344 606.65625 722.175781 606.792969 721.410156 C 607.007812 720.210938 612.285156 691.996094 638.644531 681.96875 C 657.582031 674.765625 674.582031 681.960938 679.339844 684.335938 C 680.03125 684.6875 680.316406 685.53125 679.96875 686.226562 C 679.625 686.921875 678.773438 687.199219 678.082031 686.859375 C 673.578125 684.609375 657.515625 677.800781 639.644531 684.597656 C 614.757812 694.058594 609.765625 720.769531 609.5625 721.902344 C 609.4375 722.585938 608.847656 723.066406 608.179688 723.066406 " fill-opacity="1" fill-rule="nonzero"/></svg>