<svg xmlns="http://www.w3.org/2000/svg" xmlns:xlink="http://www.w3.org/1999/xlink" width="93" zoomAndPan="magnify" viewBox="0 0 62.25 37.5" height="60" preserveAspectRatio="xMidYMid meet" version="1.0"><defs><clipPath id="d31fd76035"><path d="M 11.777344 0.710938 L 49.523438 0.710938 L 49.523438 36.238281 L 11.777344 36.238281 Z M 11.777344 0.710938 " clip-rule="nonzero"/></clipPath></defs><path fill="#ffffff" d="M 36.648438 16.96875 C 37 16.96875 37.238281 16.734375 37.238281 16.382812 C 37.238281 16.027344 37 15.792969 36.648438 15.792969 L 29.929688 15.792969 C 29.574219 15.792969 29.339844 16.027344 29.339844 16.382812 C 29.339844 16.734375 29.574219 16.96875 29.929688 16.96875 Z M 36.648438 16.96875 " fill-opacity="1" fill-rule="nonzero"/><path fill="#ffffff" d="M 29.988281 4.300781 L 38.769531 4.300781 C 39.121094 4.300781 39.359375 4.0625 39.359375 3.710938 C 39.359375 3.355469 39.121094 3.121094 38.769531 3.121094 L 29.988281 3.121094 C 29.632812 3.121094 29.398438 3.355469 29.398438 3.710938 C 29.398438 4.003906 29.691406 4.300781 29.988281 4.300781 Z M 29.988281 4.300781 " fill-opacity="1" fill-rule="nonzero"/><path fill="#ffffff" d="M 29.929688 14.199219 L 40.007812 14.199219 C 40.359375 14.199219 40.597656 13.964844 40.597656 13.609375 L 40.597656 10.074219 C 40.597656 9.722656 40.359375 9.484375 40.007812 9.484375 L 29.929688 9.484375 C 29.574219 9.484375 29.339844 9.722656 29.339844 10.074219 L 29.339844 13.609375 C 29.339844 13.90625 29.574219 14.199219 29.929688 14.199219 Z M 30.519531 10.664062 L 39.417969 10.664062 L 39.417969 13.023438 L 30.519531 13.023438 Z M 30.519531 10.664062 " fill-opacity="1" fill-rule="nonzero"/><g clip-path="url(#d31fd76035)"><path fill="#ffffff" d="M 49.496094 17.855469 L 46.960938 14.082031 C 46.902344 14.023438 46.726562 13.90625 46.667969 13.847656 L 43.957031 12.785156 L 43.957031 5.890625 C 43.957031 5.65625 43.777344 5.417969 43.484375 5.300781 C 41.773438 4.828125 41.953125 2.058594 43.835938 2.058594 C 44.605469 2.058594 44.605469 0.882812 43.835938 0.882812 L 28.21875 0.882812 C 26.6875 0.882812 25.507812 2.117188 25.507812 3.652344 C 25.507812 5.007812 25.507812 7.660156 25.507812 9.664062 L 24.742188 9.957031 C 24.742188 7.835938 24.742188 5.007812 24.742188 1.707031 C 24.742188 1.351562 24.449219 1.117188 24.152344 1.117188 L 18.671875 1.117188 C 18.316406 1.117188 18.082031 1.351562 18.082031 1.707031 C 18.082031 2.355469 18.082031 8.601562 18.082031 12.550781 L 14.839844 13.847656 C 14.488281 13.964844 14.371094 14.496094 12.011719 17.855469 C 11.777344 18.148438 11.953125 18.5625 12.246094 18.738281 L 14.429688 19.683594 L 14.429688 29.464844 C 14.429688 29.699219 14.605469 29.9375 14.78125 29.996094 L 30.519531 36.066406 C 30.636719 36.125 30.8125 36.125 30.929688 36.066406 L 46.667969 29.996094 C 46.902344 29.9375 47.019531 29.699219 47.019531 29.464844 L 47.019531 19.621094 L 49.199219 18.679688 C 49.613281 18.5625 49.730469 18.148438 49.496094 17.855469 Z M 26.628906 6.007812 C 27.101562 6.304688 27.628906 6.480469 28.160156 6.480469 L 42.71875 6.480469 L 42.71875 15.203125 L 30.753906 19.800781 L 26.628906 18.207031 C 26.628906 15.144531 26.628906 9.074219 26.628906 6.007812 Z M 44.839844 14.378906 L 44.542969 14.496094 L 43.957031 14.730469 L 43.957031 14.023438 Z M 28.21875 2.117188 L 41.597656 2.117188 C 40.949219 3.121094 40.949219 4.417969 41.539062 5.359375 L 28.21875 5.359375 C 27.335938 5.359375 26.6875 4.652344 26.6875 3.769531 C 26.628906 2.824219 27.335938 2.117188 28.21875 2.117188 Z M 25.449219 10.960938 L 25.449219 17.738281 L 24.683594 17.441406 C 24.683594 16.558594 24.683594 12.492188 24.683594 11.253906 Z M 23.5625 2.296875 C 23.5625 3.238281 23.5625 4.121094 23.5625 4.949219 L 21.265625 4.949219 C 20.910156 4.949219 20.675781 5.183594 20.675781 5.535156 C 20.675781 5.890625 20.910156 6.125 21.265625 6.125 L 23.5625 6.125 C 23.5625 6.832031 23.5625 7.539062 23.5625 8.128906 L 22.089844 8.128906 C 21.738281 8.128906 21.5 8.367188 21.5 8.71875 C 21.5 9.074219 21.738281 9.308594 22.089844 9.308594 L 23.5625 9.308594 C 23.5625 9.839844 23.5625 10.3125 23.5625 10.78125 C 23.5625 10.78125 23.5625 10.78125 23.5625 10.839844 C 23.5625 11.019531 23.5625 11.195312 23.5625 11.371094 L 21.265625 11.371094 C 20.910156 11.371094 20.675781 11.609375 20.675781 11.960938 C 20.675781 12.316406 20.910156 12.550781 21.265625 12.550781 L 23.5625 12.550781 C 23.5625 13.316406 23.5625 13.964844 23.5625 14.554688 L 22.089844 14.554688 C 21.738281 14.554688 21.5 14.789062 21.5 15.144531 C 21.5 15.496094 21.738281 15.734375 22.089844 15.734375 L 23.5625 15.734375 C 23.5625 16.203125 23.5625 16.617188 23.5625 16.96875 C 23.503906 16.96875 18.964844 15.203125 19.261719 15.320312 C 19.261719 13.316406 19.261719 4.710938 19.261719 2.296875 Z M 18.023438 14.90625 L 16.667969 14.378906 L 18.023438 13.847656 C 18.023438 14.257812 18.023438 14.613281 18.023438 14.90625 Z M 15.253906 15.085938 C 21.03125 17.324219 13.542969 14.4375 29.8125 20.683594 L 29.871094 20.683594 L 27.925781 23.984375 L 13.367188 17.914062 Z M 15.605469 20.09375 L 27.925781 25.28125 C 28.21875 25.398438 28.515625 25.28125 28.632812 25.042969 L 30.164062 22.628906 L 30.164062 34.652344 L 15.605469 29.050781 Z M 45.902344 29.050781 L 31.34375 34.652344 L 31.34375 22.628906 L 32.816406 25.105469 C 32.992188 25.339844 33.289062 25.457031 33.523438 25.339844 L 45.839844 20.152344 L 45.839844 29.050781 Z M 33.582031 24.042969 L 31.636719 20.742188 C 33.109375 20.152344 26.214844 22.863281 46.253906 15.085938 L 48.140625 17.855469 Z M 33.582031 24.042969 " fill-opacity="1" fill-rule="nonzero"/></g></svg>