<svg xmlns="http://www.w3.org/2000/svg" xmlns:xlink="http://www.w3.org/1999/xlink" width="40" zoomAndPan="magnify" viewBox="0 0 45 44.999999" height="40" preserveAspectRatio="xMidYMid meet" version="1.0"><path fill="#c6c6c4" d="M 42 8.238281 L 35.621094 38.25 C 35.304688 39.734375 33.535156 40.398438 32.304688 39.515625 L 17.105469 28.203125 L 33.882812 13.039062 C 33.882812 13.039062 35.019531 12.125 34.703125 11.839844 C 34.355469 11.492188 33.125 12.25 32.460938 12.691406 C 31.828125 13.136719 11.925781 25.710938 11.925781 25.710938 L 1.878906 22.550781 C 0.742188 22.203125 0.742188 20.65625 2.386719 19.960938 L 39.472656 5.679688 C 41.054688 4.890625 42.347656 6.722656 42 8.238281 Z M 42 8.238281 " fill-opacity="1" fill-rule="nonzero"/><path fill="#c6c6c4" d="M 26.742188 60.207031 C 6.082031 60.207031 -10.757812 43.402344 -10.757812 22.707031 C -10.757812 2.046875 6.082031 -14.792969 26.742188 -14.792969 C 47.4375 -14.792969 64.242188 2.046875 64.242188 22.707031 C 64.242188 43.402344 47.4375 60.207031 26.742188 60.207031 Z M 26.742188 -12.738281 C 7.1875 -12.738281 -8.703125 3.152344 -8.703125 22.707031 C -8.703125 42.261719 7.1875 58.15625 26.742188 58.15625 C 46.296875 58.15625 62.1875 42.261719 62.1875 22.707031 C 62.1875 3.152344 46.296875 -12.738281 26.742188 -12.738281 Z M 26.742188 -12.738281 " fill-opacity="1" fill-rule="nonzero"/></svg>