<svg xmlns="http://www.w3.org/2000/svg" xmlns:xlink="http://www.w3.org/1999/xlink" width="500" zoomAndPan="magnify" viewBox="0 0 375 449.999984" height="600" preserveAspectRatio="xMidYMid meet" version="1.0"><defs><clipPath id="7e7d8a779b"><path d="M 37.5 24.117188 L 349 24.117188 L 349 336 L 37.5 336 Z M 37.5 24.117188 " clip-rule="nonzero"/></clipPath><clipPath id="129f71c2da"><path d="M 120.625 99.375 L 139.375 99.375 L 139.375 107.8125 L 120.625 107.8125 Z M 120.625 99.375 " clip-rule="nonzero"/></clipPath></defs><g clip-path="url(#7e7d8a779b)"><path fill="#eb9f18" d="M 348.710938 179.875 C 348.710938 182.421875 348.648438 184.964844 348.523438 187.507812 C 348.398438 190.054688 348.210938 192.59375 347.960938 195.125 C 347.710938 197.660156 347.402344 200.1875 347.027344 202.707031 C 346.652344 205.226562 346.21875 207.734375 345.722656 210.230469 C 345.226562 212.730469 344.667969 215.214844 344.046875 217.683594 C 343.429688 220.152344 342.75 222.609375 342.011719 225.042969 C 341.273438 227.480469 340.472656 229.898438 339.617188 232.296875 C 338.757812 234.695312 337.839844 237.070312 336.867188 239.421875 C 335.890625 241.773438 334.859375 244.101562 333.773438 246.40625 C 332.683594 248.707031 331.539062 250.980469 330.339844 253.226562 C 329.136719 255.472656 327.882812 257.6875 326.574219 259.871094 C 325.265625 262.054688 323.902344 264.207031 322.488281 266.324219 C 321.074219 268.441406 319.605469 270.523438 318.089844 272.570312 C 316.574219 274.613281 315.007812 276.621094 313.390625 278.589844 C 311.773438 280.558594 310.113281 282.484375 308.402344 284.371094 C 306.691406 286.261719 304.9375 288.105469 303.136719 289.90625 C 301.335938 291.707031 299.492188 293.460938 297.605469 295.171875 C 295.71875 296.882812 293.789062 298.542969 291.820312 300.160156 C 289.851562 301.773438 287.84375 303.339844 285.800781 304.859375 C 283.753906 306.375 281.671875 307.839844 279.554688 309.257812 C 277.4375 310.671875 275.289062 312.03125 273.101562 313.34375 C 270.917969 314.652344 268.703125 315.90625 266.457031 317.105469 C 264.210938 318.308594 261.9375 319.453125 259.636719 320.539062 C 257.332031 321.628906 255.007812 322.660156 252.652344 323.636719 C 250.300781 324.609375 247.925781 325.527344 245.527344 326.382812 C 243.128906 327.242188 240.710938 328.039062 238.277344 328.78125 C 235.839844 329.519531 233.386719 330.199219 230.914062 330.816406 C 228.445312 331.4375 225.960938 331.992188 223.464844 332.492188 C 220.964844 332.988281 218.457031 333.421875 215.9375 333.796875 C 213.417969 334.167969 210.890625 334.480469 208.359375 334.730469 C 205.824219 334.980469 203.285156 335.167969 200.742188 335.292969 C 198.199219 335.417969 195.652344 335.480469 193.105469 335.480469 C 190.558594 335.480469 188.015625 335.417969 185.46875 335.292969 C 182.925781 335.167969 180.386719 334.980469 177.855469 334.730469 C 175.320312 334.480469 172.792969 334.167969 170.273438 333.796875 C 167.753906 333.421875 165.246094 332.988281 162.75 332.492188 C 160.25 331.992188 157.765625 331.4375 155.296875 330.816406 C 152.828125 330.199219 150.371094 329.519531 147.9375 328.78125 C 145.5 328.039062 143.082031 327.242188 140.683594 326.382812 C 138.285156 325.527344 135.910156 324.609375 133.558594 323.636719 C 131.207031 322.660156 128.878906 321.628906 126.574219 320.539062 C 124.273438 319.453125 122 318.308594 119.753906 317.105469 C 117.507812 315.90625 115.292969 314.652344 113.109375 313.34375 C 110.925781 312.03125 108.773438 310.671875 106.65625 309.257812 C 104.539062 307.839844 102.457031 306.375 100.410156 304.859375 C 98.367188 303.339844 96.359375 301.773438 94.390625 300.160156 C 92.421875 298.542969 90.496094 296.882812 88.605469 295.171875 C 86.71875 293.460938 84.875 291.707031 83.074219 289.90625 C 81.273438 288.105469 79.519531 286.261719 77.808594 284.371094 C 76.097656 282.484375 74.4375 280.558594 72.820312 278.589844 C 71.207031 276.621094 69.640625 274.613281 68.121094 272.570312 C 66.605469 270.523438 65.140625 268.441406 63.722656 266.324219 C 62.308594 264.207031 60.949219 262.054688 59.636719 259.871094 C 58.328125 257.6875 57.074219 255.472656 55.875 253.226562 C 54.671875 250.980469 53.527344 248.707031 52.441406 246.40625 C 51.351562 244.101562 50.320312 241.773438 49.34375 239.421875 C 48.371094 237.070312 47.453125 234.695312 46.597656 232.296875 C 45.738281 229.898438 44.941406 227.480469 44.199219 225.042969 C 43.460938 222.609375 42.78125 220.152344 42.164062 217.683594 C 41.542969 215.214844 40.988281 212.730469 40.488281 210.230469 C 39.992188 207.734375 39.558594 205.226562 39.183594 202.707031 C 38.808594 200.1875 38.5 197.660156 38.25 195.125 C 38 192.59375 37.8125 190.054688 37.6875 187.507812 C 37.5625 184.964844 37.5 182.421875 37.5 179.875 C 37.5 177.328125 37.5625 174.78125 37.6875 172.238281 C 37.8125 169.695312 38 167.15625 38.25 164.621094 C 38.5 162.089844 38.808594 159.5625 39.183594 157.042969 C 39.558594 154.523438 39.992188 152.015625 40.488281 149.515625 C 40.988281 147.019531 41.542969 144.535156 42.164062 142.066406 C 42.78125 139.59375 43.460938 137.140625 44.199219 134.703125 C 44.941406 132.265625 45.738281 129.851562 46.597656 127.453125 C 47.453125 125.054688 48.371094 122.679688 49.34375 120.328125 C 50.320312 117.972656 51.351562 115.644531 52.441406 113.34375 C 53.527344 111.042969 54.671875 108.769531 55.875 106.523438 C 57.074219 104.277344 58.328125 102.0625 59.636719 99.878906 C 60.949219 97.691406 62.308594 95.542969 63.722656 93.425781 C 65.140625 91.308594 66.605469 89.226562 68.121094 87.179688 C 69.640625 85.132812 71.207031 83.128906 72.820312 81.160156 C 74.4375 79.191406 76.097656 77.261719 77.808594 75.375 C 79.519531 73.488281 81.273438 71.644531 83.074219 69.84375 C 84.875 68.042969 86.71875 66.289062 88.605469 64.578125 C 90.496094 62.867188 92.421875 61.203125 94.390625 59.589844 C 96.359375 57.972656 98.367188 56.40625 100.410156 54.890625 C 102.457031 53.375 104.539062 51.90625 106.65625 50.492188 C 108.773438 49.078125 110.925781 47.714844 113.109375 46.40625 C 115.292969 45.097656 117.507812 43.84375 119.753906 42.640625 C 122 41.441406 124.273438 40.296875 126.574219 39.207031 C 128.878906 38.121094 131.207031 37.089844 133.558594 36.113281 C 135.910156 35.140625 138.285156 34.222656 140.683594 33.363281 C 143.082031 32.507812 145.5 31.707031 147.9375 30.96875 C 150.371094 30.230469 152.828125 29.550781 155.296875 28.933594 C 157.765625 28.3125 160.25 27.753906 162.75 27.257812 C 165.246094 26.761719 167.753906 26.328125 170.273438 25.953125 C 172.792969 25.578125 175.320312 25.265625 177.855469 25.019531 C 180.386719 24.769531 182.925781 24.582031 185.46875 24.457031 C 188.015625 24.332031 190.558594 24.269531 193.105469 24.269531 C 195.652344 24.269531 198.199219 24.332031 200.742188 24.457031 C 203.285156 24.582031 205.824219 24.769531 208.359375 25.019531 C 210.890625 25.265625 213.417969 25.578125 215.9375 25.953125 C 218.457031 26.328125 220.964844 26.761719 223.464844 27.257812 C 225.960938 27.753906 228.445312 28.3125 230.914062 28.933594 C 233.386719 29.550781 235.839844 30.230469 238.277344 30.96875 C 240.710938 31.707031 243.128906 32.507812 245.527344 33.363281 C 247.925781 34.222656 250.300781 35.140625 252.652344 36.113281 C 255.007812 37.089844 257.332031 38.121094 259.636719 39.207031 C 261.9375 40.296875 264.210938 41.441406 266.457031 42.640625 C 268.703125 43.84375 270.917969 45.097656 273.101562 46.40625 C 275.289062 47.714844 277.4375 49.078125 279.554688 50.492188 C 281.671875 51.90625 283.753906 53.375 285.800781 54.890625 C 287.84375 56.40625 289.851562 57.972656 291.820312 59.589844 C 293.789062 61.203125 295.71875 62.867188 297.605469 64.578125 C 299.492188 66.289062 301.335938 68.042969 303.136719 69.84375 C 304.9375 71.644531 306.691406 73.488281 308.402344 75.375 C 310.113281 77.261719 311.773438 79.191406 313.390625 81.160156 C 315.007812 83.128906 316.574219 85.132812 318.089844 87.179688 C 319.605469 89.226562 321.074219 91.308594 322.488281 93.425781 C 323.902344 95.542969 325.265625 97.691406 326.574219 99.878906 C 327.882812 102.0625 329.136719 104.277344 330.339844 106.523438 C 331.539062 108.769531 332.683594 111.042969 333.773438 113.34375 C 334.859375 115.644531 335.890625 117.972656 336.867188 120.328125 C 337.839844 122.679688 338.757812 125.054688 339.617188 127.453125 C 340.472656 129.851562 341.273438 132.265625 342.011719 134.703125 C 342.75 137.140625 343.429688 139.59375 344.046875 142.066406 C 344.667969 144.535156 345.226562 147.019531 345.722656 149.515625 C 346.21875 152.015625 346.652344 154.523438 347.027344 157.042969 C 347.402344 159.5625 347.710938 162.089844 347.960938 164.621094 C 348.210938 167.15625 348.398438 169.695312 348.523438 172.238281 C 348.648438 174.78125 348.710938 177.328125 348.710938 179.875 Z M 348.710938 179.875 " fill-opacity="1" fill-rule="nonzero"/></g><path fill="#000000" d="M 381.261719 452.6875 C 382.765625 436.402344 384.5 417.671875 384.5 415.050781 C 384.5 411.984375 370.636719 399.871094 361.273438 392.039062 C 361.972656 388.164062 362.535156 385.355469 362.535156 384.21875 C 362.535156 378.441406 372.289062 328.382812 341.976562 337.230469 C 337.648438 335.730469 333.875 333.332031 330.425781 330.25 C 321.101562 321.914062 312.539062 312.867188 304.667969 303.160156 C 303.328125 301.503906 301.804688 299.992188 300.308594 298.46875 C 299.6875 297.84375 298.953125 297.316406 298.207031 296.832031 C 295.449219 295.058594 294.050781 295.46875 292.90625 298.460938 C 292.21875 300.273438 291.660156 302.140625 291.085938 303.871094 C 288.523438 304.5625 287.644531 301.984375 285.417969 301.597656 C 285.050781 301.707031 284.3125 301.796875 283.71875 302.125 C 279.074219 304.757812 274.113281 304.523438 269.148438 303.652344 C 265.832031 303.074219 262.578125 302.125 259.863281 301.472656 C 256.414062 302.335938 253.519531 303.214844 250.574219 303.738281 C 248.863281 304.046875 247.042969 303.878906 245.28125 303.792969 C 241.023438 303.582031 236.765625 303.199219 232.507812 303.089844 C 230.75 303.042969 228.988281 303.550781 227.214844 303.730469 C 224.933594 303.96875 224.792969 303.878906 221.867188 301.746094 C 223.417969 297.703125 222.847656 293.445312 222.574219 289.210938 C 222.429688 287.054688 222.4375 284.945312 223.253906 282.898438 C 224.25 280.390625 224.683594 280.074219 228.265625 279.527344 C 229.105469 277.386719 230.085938 275.105469 230.898438 272.773438 C 231.652344 270.609375 232.234375 268.390625 232.914062 266.140625 C 229.574219 262.449219 224.476562 260.472656 223.230469 255.507812 C 222.15625 251.242188 218.988281 247.613281 219.492188 242.894531 C 219.804688 239.9375 219.335938 236.878906 220.730469 233.710938 C 224.917969 236.265625 228.09375 239.632812 231.675781 242.453125 C 235.457031 245.433594 239.140625 248.53125 242.945312 251.480469 C 246.605469 254.316406 250.328125 257.070312 254.101562 259.765625 C 258.015625 262.566406 261.949219 265.335938 265.964844 267.976562 C 269.816406 270.507812 273.609375 273.160156 277.890625 275.160156 C 278.519531 274.625 279.128906 274.242188 279.5625 273.707031 C 279.992188 273.183594 280.242188 272.515625 280.683594 271.714844 C 279.71875 271.003906 278.925781 270.320312 278.046875 269.78125 C 266.066406 262.324219 254.925781 253.722656 244.003906 244.835938 C 237.503906 239.550781 231.246094 233.984375 224.847656 228.574219 C 223.167969 227.15625 221.929688 225.683594 221.632812 223.296875 C 221.253906 220.289062 220.148438 217.441406 217.890625 215.191406 C 217.414062 214.71875 217.210938 213.976562 216.808594 213.246094 C 218.910156 206.417969 225.285156 202.332031 228.054688 196.113281 C 225.875 191.957031 225.804688 191.949219 226.148438 187.324219 C 226.484375 182.886719 227.074219 178.472656 227.394531 174.023438 C 227.558594 171.726562 227.488281 169.390625 227.347656 167.085938 C 227.160156 163.996094 225.589844 161.707031 222.855469 160.28125 C 221.4375 159.542969 219.914062 159.007812 218.488281 158.28125 C 216.128906 157.074219 213.710938 155.894531 211.996094 153.183594 C 212.683594 152.847656 213.234375 152.351562 213.789062 152.351562 C 215.921875 152.335938 218.085938 152.28125 220.171875 152.609375 C 223.671875 153.160156 226.492188 154.925781 228.28125 158.101562 C 228.804688 159.03125 229.371094 159.949219 229.792969 160.921875 C 231.777344 165.476562 235.289062 168.246094 239.925781 169.765625 C 241.78125 170.378906 243.625 171.046875 245.445312 171.773438 C 248.972656 173.195312 251.585938 175.367188 251.703125 179.570312 C 251.726562 180.234375 252.03125 180.964844 252.40625 181.527344 C 252.652344 181.890625 253.285156 182.195312 253.710938 182.148438 C 254.125 182.101562 254.738281 181.636719 254.824219 181.261719 C 255.558594 178.023438 254.46875 175.183594 252.21875 172.980469 C 250.730469 171.523438 248.839844 170.378906 246.957031 169.445312 C 244.738281 168.347656 242.292969 167.703125 240.003906 166.726562 C 236.230469 165.117188 233.148438 162.609375 232.210938 158.492188 C 231.160156 153.882812 228.273438 151.527344 223.976562 150.4375 C 223.632812 150.351562 223.277344 150.28125 222.949219 150.15625 C 222.628906 150.03125 222.335938 149.851562 221.609375 149.464844 C 222.589844 149.058594 223.261719 148.613281 223.984375 148.511719 C 229.121094 147.765625 233.917969 148.425781 238.058594 151.914062 C 240.496094 153.96875 243.4375 154.820312 246.527344 154.585938 C 250.359375 154.304688 252.855469 155.976562 255.058594 158.921875 C 256.855469 161.324219 259.011719 163.535156 261.308594 165.460938 C 266.097656 169.484375 273.734375 169.988281 278.300781 166.851562 C 278.730469 166.550781 279.128906 166.167969 279.421875 165.738281 C 279.585938 165.484375 279.617188 164.984375 279.476562 164.726562 C 279.136719 164.128906 278.660156 163.621094 278.09375 162.890625 C 277.183594 163.234375 276.378906 163.503906 275.601562 163.839844 C 268.828125 166.757812 264.851562 165.769531 260.132812 159.972656 C 258.890625 158.453125 257.691406 156.90625 256.445312 155.394531 C 254.671875 153.238281 252.460938 151.828125 249.609375 151.703125 C 245.367188 151.511719 241.640625 149.890625 238.214844 147.546875 C 234.292969 144.863281 230.046875 144.261719 225.464844 145.226562 C 221.113281 146.140625 216.761719 147.019531 212.394531 147.882812 C 211.917969 147.976562 211.398438 147.835938 210.449219 147.78125 C 212.347656 145.421875 214.746094 144.152344 216.621094 142.324219 C 218.511719 140.480469 220.566406 138.757812 221.476562 135.941406 C 220.964844 135.628906 220.574219 135.195312 220.148438 135.15625 C 211.460938 134.355469 202.773438 133.605469 194.078125 132.851562 C 192.839844 132.742188 191.59375 132.65625 190.347656 132.648438 C 188.433594 132.632812 186.878906 133.367188 185.882812 135.078125 C 181.445312 142.660156 175.613281 149.175781 170.046875 155.894531 C 169.527344 156.515625 169.253906 157.339844 168.828125 158.148438 C 174.382812 159.621094 180.859375 158.96875 190.304688 156.03125 C 191.292969 156.953125 192.414062 158.011719 193.542969 159.070312 C 193.167969 159.808594 193.058594 160.421875 192.691406 160.695312 C 190.972656 161.957031 189.246094 163.242188 187.398438 164.285156 C 184.949219 165.667969 183.859375 167.714844 183.84375 170.410156 C 183.835938 172.191406 183.804688 173.976562 183.964844 175.75 C 184.339844 180.125 183.570312 184.25 181.570312 188.171875 C 180.929688 189.425781 180.449219 190.773438 179.925781 192.019531 C 180.449219 192.890625 180.90625 193.628906 181.539062 194.679688 C 180.695312 196.613281 179.871094 198.761719 178.835938 200.800781 C 177.34375 203.742188 176.914062 206.527344 179.359375 209.191406 C 179.578125 209.433594 179.628906 209.835938 179.855469 210.4375 C 179.078125 214.34375 175.808594 217.839844 176.703125 222.5 C 174.617188 223.660156 174.121094 226.394531 171.550781 226.96875 C 171.246094 227.039062 170.851562 227.886719 170.9375 228.285156 C 171.363281 230.339844 170.085938 231.640625 169.027344 233.050781 C 159.625 245.636719 149.21875 257.359375 138.398438 268.730469 C 127.9375 279.707031 116.84375 290.019531 105.386719 299.9375 C 104.0625 301.089844 102.761719 302.273438 101.269531 303.613281 C 104.25 305.503906 106.800781 305.613281 109.308594 303.574219 C 112.21875 301.222656 115.1875 298.941406 118.003906 296.488281 C 130.792969 285.34375 142.367188 272.988281 153.78125 260.472656 C 158.824219 254.945312 163.757812 249.308594 168.703125 243.691406 C 169.285156 243.035156 169.683594 242.203125 170.171875 241.457031 C 170.476562 241.636719 170.78125 241.820312 171.082031 242 C 171.023438 242.726562 171.097656 243.488281 170.890625 244.171875 C 167.730469 255.03125 161.796875 264.21875 153.902344 272.210938 C 152.777344 273.339844 151.507812 274.320312 150.316406 275.363281 C 152.167969 277.324219 152.167969 277.324219 155.507812 278.601562 L 155.507812 281.644531 C 158.199219 283.484375 161.445312 282.363281 164.660156 283.4375 C 165.277344 284.929688 165.992188 286.675781 166.777344 288.574219 C 170.226562 287.957031 172.554688 285.054688 176.074219 284.167969 C 178.347656 285.265625 180.269531 287.070312 182.402344 288.9375 C 180.9375 292.457031 179.039062 295.246094 174.890625 295.609375 C 174.367188 295.65625 173.832031 295.796875 173.339844 295.976562 C 171.214844 296.738281 169.984375 298.714844 171.097656 300.570312 C 172.882812 303.542969 172.21875 306.296875 171.496094 309.285156 C 169.933594 315.753906 167.324219 321.757812 164.085938 327.539062 C 161.992188 331.269531 160.109375 335.082031 159.183594 339.332031 C 158.527344 342.363281 158.441406 345.273438 159.304688 348.285156 C 160.777344 353.414062 162.078125 358.597656 163.457031 363.753906 C 163.554688 364.101562 163.671875 364.4375 163.757812 364.78125 C 163.882812 365.308594 164 365.800781 164.101562 366.257812 C 152.183594 369.519531 139.550781 375.6875 132.769531 387.160156 C 122.753906 385.617188 115.070312 384.785156 112.867188 385.421875 C 109.96875 386.25 104.148438 401.195312 97.875 420.046875 C 84.46875 433.824219 74.621094 448.980469 76.257812 462.875 C 73.765625 476.34375 73.371094 489 73.976562 499.96875 C 75.246094 522.890625 80.882812 538.40625 80.882812 538.40625 L 405.316406 538.40625 C 405.308594 538.359375 405.082031 469.585938 381.261719 452.6875 Z M 193.402344 292.863281 C 194.53125 290.488281 195.566406 288.035156 197.449219 285.902344 C 199.371094 286.796875 198.4375 288.890625 199.582031 290.113281 C 199.933594 290.191406 200.507812 290.511719 200.921875 290.378906 C 202.265625 289.945312 203.542969 289.320312 204.851562 288.800781 C 206.484375 288.160156 208.113281 287.523438 210.324219 287.703125 C 211.03125 291.09375 211.632812 294.007812 212.308594 297.222656 C 211.546875 297.332031 210.875 297.625 210.285156 297.492188 C 204.742188 296.21875 199.152344 295.414062 193.097656 295.367188 C 193.199219 294.410156 193.089844 293.53125 193.402344 292.863281 Z M 193.402344 292.863281 " fill-opacity="1" fill-rule="nonzero"/><g clip-path="url(#129f71c2da)"><path fill="#eb9f18" d="M 120.625 99.375 L 139.378906 99.375 L 139.378906 107.8125 L 120.625 107.8125 Z M 120.625 99.375 " fill-opacity="1" fill-rule="nonzero"/></g></svg>