<svg xmlns="http://www.w3.org/2000/svg" xmlns:xlink="http://www.w3.org/1999/xlink" width="150" zoomAndPan="magnify" viewBox="0 0 112.5 80.999996" height="108" preserveAspectRatio="xMidYMid meet" version="1.0"><defs><clipPath id="53a6c2d422"><path d="M 2.496094 1.167969 L 109.734375 1.167969 L 109.734375 79.832031 L 2.496094 79.832031 Z M 2.496094 1.167969 " clip-rule="nonzero"/></clipPath><clipPath id="a53da8fe82"><path d="M 56 1.167969 C 26.449219 1.167969 2.496094 18.777344 2.496094 40.5 C 2.496094 62.222656 26.449219 79.832031 56 79.832031 C 85.550781 79.832031 109.507812 62.222656 109.507812 40.5 C 109.507812 18.777344 85.550781 1.167969 56 1.167969 Z M 56 1.167969 " clip-rule="nonzero"/></clipPath><clipPath id="0290368899"><path d="M 50 4.507812 L 54 4.507812 L 54 24 L 50 24 Z M 50 4.507812 " clip-rule="nonzero"/></clipPath><clipPath id="5201a352fc"><path d="M 10.75 26 L 101.566406 26 L 101.566406 55 L 10.75 55 Z M 10.75 26 " clip-rule="nonzero"/></clipPath></defs><g clip-path="url(#53a6c2d422)"><g clip-path="url(#a53da8fe82)"><path fill="#c6c6c4" d="M 2.496094 1.167969 L 109.425781 1.167969 L 109.425781 79.832031 L 2.496094 79.832031 Z M 2.496094 1.167969 " fill-opacity="1" fill-rule="nonzero"/></g></g><path fill="#b16901" d="M 45.839844 59.097656 L 21.15625 59.097656 C 20.570312 59.097656 20.09375 59.574219 20.09375 60.160156 C 20.09375 60.75 20.570312 61.226562 21.15625 61.226562 L 45.839844 61.226562 C 46.425781 61.226562 46.902344 60.75 46.902344 60.160156 C 46.902344 59.585938 46.425781 59.097656 45.839844 59.097656 Z M 45.839844 59.097656 " fill-opacity="1" fill-rule="nonzero"/><path fill="#b16901" d="M 85.859375 59.066406 L 59.605469 59.066406 C 59.015625 59.066406 58.542969 59.539062 58.542969 60.128906 C 58.542969 60.714844 59.015625 61.191406 59.605469 61.191406 L 85.859375 61.191406 C 86.445312 61.191406 86.921875 60.714844 86.921875 60.128906 C 86.933594 59.539062 86.445312 59.066406 85.859375 59.066406 Z M 85.859375 59.066406 " fill-opacity="1" fill-rule="nonzero"/><path fill="#b16901" d="M 33.757812 64.664062 C 33.757812 65.253906 34.234375 65.726562 34.820312 65.726562 L 78.394531 65.726562 C 78.980469 65.726562 79.457031 65.253906 79.457031 64.664062 C 79.457031 64.074219 78.980469 63.601562 78.394531 63.601562 L 34.820312 63.601562 C 34.234375 63.589844 33.757812 64.0625 33.757812 64.664062 Z M 33.757812 64.664062 " fill-opacity="1" fill-rule="nonzero"/><path fill="#b16901" d="M 68.109375 69.945312 C 68.699219 69.945312 69.175781 69.472656 69.175781 68.882812 C 69.175781 68.292969 68.699219 67.820312 68.109375 67.820312 L 45.839844 67.820312 C 45.25 67.820312 44.777344 68.292969 44.777344 68.882812 C 44.777344 69.472656 45.25 69.945312 45.839844 69.945312 Z M 68.109375 69.945312 " fill-opacity="1" fill-rule="nonzero"/><path fill="#b16901" d="M 89.996094 40.71875 C 90.53125 40.46875 90.753906 39.824219 90.496094 39.292969 C 90.246094 38.761719 89.601562 38.535156 89.070312 38.792969 L 81.660156 42.347656 C 81.128906 42.59375 80.902344 43.238281 81.164062 43.773438 C 81.34375 44.15625 81.730469 44.382812 82.125 44.382812 C 82.285156 44.382812 82.441406 44.347656 82.589844 44.28125 Z M 89.996094 40.71875 " fill-opacity="1" fill-rule="nonzero"/><path fill="#b16901" d="M 86.976562 19.53125 C 86.59375 19.078125 85.925781 19.035156 85.472656 19.417969 L 75.800781 27.675781 C 75.351562 28.058594 75.304688 28.726562 75.6875 29.179688 C 75.902344 29.429688 76.199219 29.554688 76.503906 29.554688 C 76.753906 29.554688 77 29.472656 77.195312 29.292969 L 86.863281 21.035156 C 87.304688 20.664062 87.363281 19.984375 86.976562 19.53125 Z M 86.976562 19.53125 " fill-opacity="1" fill-rule="nonzero"/><path fill="#b16901" d="M 69.59375 10.03125 L 63.53125 21.660156 C 63.257812 22.179688 63.460938 22.824219 63.980469 23.09375 C 64.140625 23.175781 64.308594 23.21875 64.480469 23.21875 C 64.863281 23.21875 65.238281 23.015625 65.429688 22.640625 L 71.492188 11.015625 C 71.765625 10.492188 71.5625 9.847656 71.039062 9.578125 C 70.519531 9.304688 69.863281 9.5 69.59375 10.03125 Z M 69.59375 10.03125 " fill-opacity="1" fill-rule="nonzero"/><path fill="#b16901" d="M 26.019531 20.992188 C 25.570312 21.363281 25.5 22.042969 25.875 22.496094 L 34.359375 32.824219 C 34.574219 33.082031 34.878906 33.207031 35.183594 33.207031 C 35.421875 33.207031 35.660156 33.128906 35.863281 32.96875 C 36.316406 32.597656 36.382812 31.917969 36.007812 31.464844 L 27.527344 21.136719 C 27.152344 20.683594 26.472656 20.617188 26.019531 20.992188 Z M 26.019531 20.992188 " fill-opacity="1" fill-rule="nonzero"/><path fill="#b16901" d="M 29.539062 40.0625 C 29.730469 40.199219 29.945312 40.265625 30.171875 40.265625 C 30.5 40.265625 30.828125 40.117188 31.03125 39.835938 C 31.382812 39.359375 31.28125 38.691406 30.804688 38.34375 L 17.753906 28.714844 C 17.277344 28.367188 16.609375 28.46875 16.257812 28.941406 C 15.910156 29.417969 16.011719 30.085938 16.484375 30.4375 Z M 29.539062 40.0625 " fill-opacity="1" fill-rule="nonzero"/><path fill="#b16901" d="M 42.003906 25.683594 C 42.175781 25.683594 42.34375 25.640625 42.5 25.5625 C 43.023438 25.289062 43.226562 24.644531 42.941406 24.125 L 35.863281 10.675781 C 35.589844 10.15625 34.933594 9.949219 34.414062 10.222656 C 33.894531 10.492188 33.691406 11.140625 33.972656 11.660156 L 41.054688 25.109375 C 41.246094 25.480469 41.621094 25.683594 42.003906 25.683594 Z M 42.003906 25.683594 " fill-opacity="1" fill-rule="nonzero"/><path fill="#b16901" d="M 19.222656 45.117188 C 18.679688 45.0625 18.113281 45.492188 18.070312 46.078125 C 18.011719 46.667969 18.453125 47.1875 19.042969 47.246094 L 28.101562 48.070312 C 28.136719 48.070312 28.171875 48.070312 28.203125 48.070312 C 28.746094 48.070312 29.210938 47.652344 29.269531 47.097656 C 29.324219 46.507812 28.882812 45.988281 28.296875 45.933594 Z M 19.222656 45.117188 " fill-opacity="1" fill-rule="nonzero"/><g clip-path="url(#0290368899)"><path fill="#b16901" d="M 51.652344 4.679688 C 51.066406 4.714844 50.613281 5.210938 50.644531 5.800781 L 51.539062 22.28125 C 51.574219 22.847656 52.039062 23.289062 52.601562 23.289062 C 52.625 23.289062 52.636719 23.289062 52.660156 23.289062 C 53.246094 23.253906 53.699219 22.753906 53.667969 22.167969 L 52.773438 5.6875 C 52.75 5.097656 52.332031 4.625 51.652344 4.679688 Z M 51.652344 4.679688 " fill-opacity="1" fill-rule="nonzero"/></g><path fill="#b16901" d="M 92.226562 28.523438 L 79.875 34.824219 C 79.355469 35.097656 79.140625 35.730469 79.410156 36.261719 C 79.601562 36.632812 79.976562 36.847656 80.359375 36.847656 C 80.53125 36.847656 80.6875 36.816406 80.847656 36.734375 L 93.210938 30.4375 C 93.730469 30.164062 93.945312 29.53125 93.675781 29 C 93.402344 28.457031 92.757812 28.253906 92.226562 28.523438 Z M 92.226562 28.523438 " fill-opacity="1" fill-rule="nonzero"/><path fill="#b16901" d="M 82.226562 48.339844 C 82.238281 48.917969 82.714844 49.382812 83.289062 49.382812 C 83.300781 49.382812 83.300781 49.382812 83.3125 49.382812 L 98.425781 49.019531 C 99.011719 49.007812 99.476562 48.511719 99.464844 47.921875 C 99.453125 47.335938 99.011719 46.9375 98.367188 46.882812 L 83.257812 47.246094 C 82.679688 47.265625 82.203125 47.753906 82.226562 48.339844 Z M 82.226562 48.339844 " fill-opacity="1" fill-rule="nonzero"/><g clip-path="url(#5201a352fc)"><path fill="#b16901" d="M 100.179688 52.664062 L 80.28125 52.664062 C 80.382812 51.78125 80.453125 50.910156 80.453125 50.039062 C 80.453125 36.941406 69.785156 26.273438 56.6875 26.273438 C 43.578125 26.273438 32.898438 36.929688 32.898438 50.039062 C 32.898438 50.898438 32.964844 51.78125 33.066406 52.664062 L 11.8125 52.664062 C 11.226562 52.664062 10.75 53.136719 10.75 53.726562 C 10.75 54.3125 11.226562 54.789062 11.8125 54.789062 L 100.167969 54.789062 C 100.753906 54.789062 101.230469 54.3125 101.230469 53.726562 C 101.242188 53.136719 100.765625 52.664062 100.179688 52.664062 Z M 45.964844 37.324219 C 45.917969 37.359375 41.15625 40.480469 40.863281 46.191406 C 40.828125 46.757812 40.363281 47.199219 39.796875 47.199219 C 39.789062 47.199219 39.765625 47.199219 39.742188 47.199219 C 39.152344 47.164062 38.703125 46.667969 38.734375 46.078125 C 39.085938 39.246094 44.582031 35.671875 44.820312 35.527344 C 45.320312 35.210938 45.972656 35.355469 46.292969 35.855469 C 46.609375 36.351562 46.460938 37.007812 45.964844 37.324219 Z M 51.914062 33.636719 C 51.585938 33.683594 50.296875 34.269531 49.175781 34.902344 C 49.015625 35.003906 48.835938 35.050781 48.65625 35.050781 C 48.28125 35.050781 47.921875 34.859375 47.726562 34.507812 C 47.433594 34 47.613281 33.34375 48.125 33.046875 C 48.894531 32.609375 50.804688 31.578125 51.753906 31.5 C 52.375 31.453125 52.851562 31.894531 52.898438 32.484375 C 52.941406 33.082031 52.5 33.589844 51.914062 33.636719 Z M 51.914062 33.636719 " fill-opacity="1" fill-rule="nonzero"/></g></svg>