<svg xmlns="http://www.w3.org/2000/svg" xmlns:xlink="http://www.w3.org/1999/xlink" width="500" zoomAndPan="magnify" viewBox="0 0 375 374.999991" height="500" preserveAspectRatio="xMidYMid meet" version="1.0"><defs><clipPath id="d3bb1a2b93"><path d="M 139 15.429688 L 276 15.429688 L 276 255 L 139 255 Z M 139 15.429688 " clip-rule="nonzero"/></clipPath><clipPath id="d9ecac3ace"><path d="M 37.695312 262 L 178.398438 262 L 178.398438 359.542969 L 37.695312 359.542969 Z M 37.695312 262 " clip-rule="nonzero"/></clipPath><clipPath id="d40ff3287e"><path d="M 177.488281 169.386719 L 341.449219 169.386719 L 341.449219 359.542969 L 177.488281 359.542969 Z M 177.488281 169.386719 " clip-rule="nonzero"/></clipPath><clipPath id="49db835785"><path d="M 177 238.375 L 268.265625 238.375 L 268.265625 359.542969 L 177 359.542969 Z M 177 238.375 " clip-rule="nonzero"/></clipPath></defs><g clip-path="url(#d3bb1a2b93)"><path fill="#c6c6c4" d="M 168.773438 254.3125 L 262.195312 247.785156 C 270.140625 247.234375 276.128906 240.34375 275.578125 232.398438 L 261.398438 29.390625 C 260.84375 21.445312 253.953125 15.457031 246.007812 16.007812 L 152.585938 22.53125 C 144.640625 23.089844 138.652344 29.980469 139.203125 37.925781 L 153.382812 240.929688 C 153.941406 248.878906 160.832031 254.867188 168.773438 254.3125 " fill-opacity="1" fill-rule="nonzero"/></g><path fill="#282b35" d="M 167.871094 241.394531 C 162.144531 241.796875 157.171875 237.648438 156.789062 232.152344 L 143.175781 37.230469 C 142.789062 31.730469 147.136719 26.933594 152.863281 26.53125 L 246.289062 20.007812 C 252.015625 19.609375 256.984375 23.757812 257.367188 29.257812 L 270.984375 224.171875 C 271.367188 229.671875 267.019531 234.472656 261.292969 234.871094 L 167.871094 241.394531 " fill-opacity="1" fill-rule="nonzero"/><path fill="#ffbf8a" d="M 263.027344 54.113281 C 263.027344 54.113281 280.632812 41.410156 287.917969 53.332031 C 295.199219 65.253906 278.21875 79.640625 267.066406 84.847656 C 265.214844 85.453125 265.214844 85.453125 265.214844 85.453125 L 263.027344 54.113281 " fill-opacity="1" fill-rule="nonzero"/><path fill="#ffbf8a" d="M 270.972656 166.859375 C 271.078125 169.859375 269.980469 172.769531 268.03125 175.050781 C 265.628906 177.863281 259.9375 185.757812 263.597656 194.003906 C 265.640625 198.601562 269.167969 199.984375 272.441406 200.105469 C 276.882812 200.265625 280.3125 197.300781 282.894531 193.683594 C 285.558594 189.957031 289.375 186.957031 289.226562 178.960938 C 288.972656 165.371094 274.660156 166.4375 270.953125 166.480469 C 270.964844 166.609375 270.96875 166.734375 270.972656 166.859375 " fill-opacity="1" fill-rule="nonzero"/><path fill="#ffbf8a" d="M 268.332031 129.75 C 268.4375 132.867188 267.324219 135.902344 265.289062 138.273438 C 262.792969 141.179688 256.789062 149.453125 260.632812 158.101562 C 262.761719 162.902344 266.441406 164.347656 269.867188 164.46875 C 274.507812 164.644531 278.089844 161.546875 280.789062 157.769531 C 283.570312 153.875 287.554688 150.742188 287.398438 142.386719 C 287.136719 128.191406 272.183594 129.304688 268.316406 129.351562 C 268.320312 129.484375 268.328125 129.617188 268.332031 129.75 " fill-opacity="1" fill-rule="nonzero"/><path fill="#ffbf8a" d="M 265.523438 90.4375 C 265.640625 93.808594 264.214844 97.132812 262.015625 99.695312 C 259.320312 102.839844 252.824219 111.800781 256.980469 121.15625 C 259.285156 126.351562 263.269531 127.910156 266.976562 128.050781 C 271.996094 128.234375 275.871094 124.882812 278.792969 120.792969 C 281.804688 116.582031 286.117188 113.191406 285.949219 104.148438 C 285.664062 88.785156 269.699219 89.925781 265.511719 89.972656 C 265.519531 90.117188 265.519531 90.296875 265.523438 90.4375 " fill-opacity="1" fill-rule="nonzero"/><path fill="#ffbf8a" d="M 102.761719 250.695312 C 102.605469 248.46875 102.222656 246.320312 102.148438 242.347656 C 102.132812 241.546875 102.128906 240.675781 102.144531 239.71875 C 102.171875 234.089844 102.414062 220.054688 104.003906 203.933594 C 104.816406 186.957031 109.34375 166.121094 113.375 150.425781 C 114.425781 146.339844 115.378906 142.226562 116.222656 138.09375 C 116.265625 137.882812 116.289062 137.769531 116.289062 137.769531 C 116.289062 137.769531 117.992188 131.742188 120.007812 127.019531 C 120.453125 125.980469 120.914062 125.003906 121.375 124.167969 C 123.695312 119.960938 124.945312 119.289062 128.035156 117.34375 C 131.117188 115.402344 137.746094 112.21875 143.484375 108.492188 C 147.429688 105.921875 152.496094 102.054688 155.542969 99.757812 C 158.007812 97.890625 161.433594 97.800781 163.914062 99.644531 C 165.925781 101.136719 168.605469 105.484375 167.605469 110.773438 C 164.789062 123.089844 152.589844 132.488281 148.644531 135.671875 C 147.890625 136.28125 147.4375 137.179688 147.398438 138.144531 C 147.320312 139.882812 147.035156 142.480469 146.691406 145.15625 C 145.800781 152.109375 145.199219 159.09375 144.9375 166.101562 C 144.878906 167.542969 144.851562 168.734375 144.902344 169.578125 C 146.917969 168.988281 146.785156 169.328125 148.253906 167.476562 L 148.660156 173.296875 L 151.132812 208.664062 L 153.382812 240.929688 C 153.875 248.007812 159.667969 254.949219 168.773438 254.3125 L 205.878906 251.722656 L 237.742188 249.496094 C 226.523438 271.792969 185.285156 293.414062 185.277344 293.425781 C 185.277344 293.425781 178.546875 295.75 176.84375 301.699219 C 159.003906 292.875 99.1875 262 99.1875 262 C 99.1875 262 103.167969 256.5 102.761719 250.695312 " fill-opacity="1" fill-rule="nonzero"/><g clip-path="url(#d9ecac3ace)"><path fill="#ffbf8a" d="M 178.339844 298.601562 L 149.394531 359.542969 L 37.695312 359.542969 L 99.199219 262.160156 L 178.339844 298.601562 " fill-opacity="1" fill-rule="nonzero"/></g><path fill="#edac7c" d="M 147.445312 168.449219 L 146.089844 169.257812 C 146.6875 169.09375 146.96875 168.964844 147.445312 168.449219 " fill-opacity="1" fill-rule="nonzero"/><path fill="#edac7c" d="M 205.878906 251.722656 L 168.773438 254.3125 C 159.667969 254.949219 153.875 248.007812 153.382812 240.929688 L 151.132812 208.664062 L 148.660156 173.296875 L 148.285156 167.949219 L 147.445312 168.449219 C 146.96875 168.964844 146.6875 169.09375 146.089844 169.257812 L 143.859375 170.585938 L 149.421875 250.226562 C 149.976562 258.167969 156.867188 264.15625 164.8125 263.605469 L 231.292969 258.960938 C 233.914062 255.859375 236.136719 252.6875 237.742188 249.496094 L 205.878906 251.722656 " fill-opacity="1" fill-rule="nonzero"/><path fill="#edac7c" d="M 148.253906 167.476562 C 147.914062 167.90625 147.65625 168.21875 147.445312 168.449219 L 148.285156 167.949219 L 148.253906 167.476562 " fill-opacity="1" fill-rule="nonzero"/><path fill="#d89371" d="M 269.589844 234.726562 L 250.101562 228.210938 L 248.515625 230.273438 C 223.6875 235.667969 229.316406 255.25 229.316406 255.25 C 229.316406 255.25 233.414062 265.074219 247.609375 265.097656 C 247.609375 265.097656 253.125 273.46875 262.277344 270.820312 C 261.632812 272.238281 256.425781 280.988281 265.898438 288.023438 C 277.960938 296.988281 282.226562 262.835938 282.226562 262.835938 L 269.589844 234.726562 " fill-opacity="1" fill-rule="nonzero"/><g clip-path="url(#d40ff3287e)"><path fill="#ffbf8a" d="M 335.914062 348.652344 C 333.550781 341.449219 331.914062 299.519531 331.449219 295.601562 C 330.984375 291.683594 316.800781 235.585938 313.667969 231.902344 C 305.015625 221.742188 283.1875 225.289062 278.789062 224.304688 C 274.390625 223.320312 263.402344 210.550781 256.707031 203.234375 C 255.664062 202.101562 254.597656 201.101562 253.527344 200.222656 C 252.402344 199.296875 251.277344 198.515625 250.179688 197.847656 L 217.773438 172.207031 C 212.207031 168.042969 207.382812 169.035156 202.230469 173.6875 C 197.183594 179.3125 198.074219 186.675781 203.949219 192.070312 C 203.949219 192.070312 244.589844 230.320312 245.128906 230.785156 C 245.132812 230.789062 249.664062 235.8125 254.886719 242.664062 C 269.421875 261.328125 253.722656 276.203125 245.269531 282.308594 C 242.769531 284.117188 239.8125 285.171875 236.738281 285.414062 C 233.160156 285.699219 232.5625 286.183594 227.097656 282.742188 C 226.136719 282.113281 225.261719 281.539062 224.457031 281.007812 C 224.390625 280.960938 224.324219 280.914062 224.242188 280.871094 C 219.664062 277.847656 217.609375 276.398438 217.609375 276.398438 C 217.609375 276.398438 217.582031 276.390625 217.542969 276.378906 C 212.964844 272.917969 208.519531 268.804688 207.25 266.257812 C 206.988281 265.734375 206.859375 265.277344 206.890625 264.90625 C 208.167969 254.171875 207.410156 248.382812 205.015625 244.75 C 205.015625 244.75 199.832031 238.65625 194.871094 238.296875 C 194.867188 238.296875 194.863281 238.296875 194.859375 238.296875 C 188.050781 236.484375 185.679688 241.878906 185.949219 245.84375 C 186.109375 248.195312 186.589844 249.878906 185.964844 251.859375 C 185.4375 253.515625 184.140625 255.378906 181.230469 258.011719 C 181.167969 258.070312 181.101562 258.125 181.039062 258.1875 C 176.824219 262.066406 176.402344 268.613281 179.984375 273.082031 L 193.261719 289.65625 L 193.265625 289.65625 C 198.121094 296.144531 202.695312 300.710938 202.695312 300.710938 C 202.695312 300.710938 202.945312 301 203.5625 301.660156 L 220 324.257812 L 220.03125 324.203125 C 229.289062 338.203125 247.789062 346.683594 261.546875 359.542969 L 341.449219 359.542969 C 338.761719 354.800781 336.625 350.8125 335.914062 348.652344 " fill-opacity="1" fill-rule="nonzero"/></g><g clip-path="url(#49db835785)"><path fill="#edac7c" d="M 221.46875 318.25 C 219.257812 314.285156 216.609375 310.582031 213.65625 307.132812 C 210.0625 302.929688 208.144531 300.164062 208.144531 300.164062 C 208.144531 300.164062 203.785156 295.816406 198.5 288.925781 L 198.5 288.929688 L 185.433594 272.539062 C 181.847656 268.074219 182.378906 261.644531 186.59375 257.765625 C 186.660156 257.707031 186.765625 257.703125 186.828125 257.648438 C 188.324219 256.292969 189.394531 255.152344 190.152344 254.132812 C 190.152344 254.132812 193.550781 240.726562 189.269531 238.667969 C 188.480469 238.292969 186.9375 240.363281 186.492188 242.0625 C 185.984375 243.996094 185.839844 244.699219 185.992188 246.355469 C 186.273438 249.46875 186.097656 251.40625 186.097656 251.40625 C 185.699219 253.269531 184.425781 255.277344 181 258.375 C 180.9375 258.433594 180.878906 258.46875 180.820312 258.527344 C 176.601562 262.410156 176.339844 268.492188 179.929688 272.960938 L 193.300781 289.546875 C 198.199219 296.175781 202.679688 300.671875 202.679688 300.671875 C 202.679688 300.671875 204.734375 303.265625 207.875 307.59375 C 209.339844 309.605469 211.425781 311.421875 212.949219 314.5625 C 226.296875 338.265625 246.96875 345.582031 261.871094 359.542969 L 268.085938 359.542969 C 252.386719 343.601562 229.714844 333.015625 221.46875 318.25 " fill-opacity="1" fill-rule="nonzero"/></g><path fill="#edac7c" d="M 202.207031 173.703125 C 202.214844 173.695312 202.222656 173.691406 202.230469 173.6875 C 202.234375 173.683594 202.238281 173.675781 202.242188 173.671875 L 202.207031 173.703125 " fill-opacity="1" fill-rule="nonzero"/><path fill="#edac7c" d="M 202.242188 173.671875 L 203.429688 172.476562 C 203.003906 172.867188 202.609375 173.265625 202.242188 173.671875 " fill-opacity="1" fill-rule="nonzero"/><path fill="#edac7c" d="M 277.453125 223.628906 C 277.453125 223.628906 284.488281 233.589844 291.347656 237.703125 C 298.207031 241.824219 296.960938 233.652344 290.761719 224.046875 C 280.691406 224.492188 277.453125 223.628906 277.453125 223.628906 " fill-opacity="1" fill-rule="nonzero"/><path fill="#edac7c" d="M 258.621094 242.878906 C 253.398438 236.023438 233.8125 218.03125 232.171875 218.625 C 232.359375 218.726562 240.941406 226.996094 243.121094 228.910156 C 243.125 228.914062 244.472656 230.179688 244.476562 230.183594 C 244.523438 230.222656 246.871094 232.773438 246.910156 232.820312 C 248.582031 234.792969 249.96875 236.21875 255.097656 242.933594 C 268.835938 260.933594 254.453125 275.664062 246 281.773438 C 244.316406 282.988281 241.140625 285.140625 237.296875 285.363281 C 238.136719 285.378906 241.1875 285.136719 242.402344 285.039062 C 245.480469 284.796875 248.433594 283.742188 250.933594 281.933594 C 259.390625 275.828125 273.15625 261.539062 258.621094 242.878906 " fill-opacity="1" fill-rule="nonzero"/></svg>