<svg xmlns="http://www.w3.org/2000/svg" xmlns:xlink="http://www.w3.org/1999/xlink" width="93" zoomAndPan="magnify" viewBox="0 0 69.75 44.999999" height="60" preserveAspectRatio="xMidYMid meet" version="1.0"><path fill="#ffffff" d="M 23.699219 23.785156 C 23.160156 23.769531 22.714844 24.203125 22.714844 24.746094 C 22.714844 25.285156 23.160156 25.722656 23.699219 25.707031 L 48.25 25.707031 C 48.789062 25.71875 49.234375 25.285156 49.234375 24.746094 C 49.234375 24.203125 48.789062 23.769531 48.25 23.785156 Z M 23.699219 23.785156 " fill-opacity="1" fill-rule="nonzero"/><path fill="#ffffff" d="M 58.902344 17.046875 C 59.429688 17.054688 59.851562 17.488281 59.847656 18.015625 L 59.847656 27.027344 C 59.847656 28.304688 59.8125 29.480469 59.367188 30.566406 C 58.921875 31.648438 57.988281 32.550781 56.617188 33.070312 L 56.46875 33.128906 L 56.46875 39.453125 C 57.816406 39.726562 59.007812 40.554688 59.710938 41.773438 C 59.976562 42.234375 59.820312 42.824219 59.359375 43.089844 C 58.898438 43.355469 58.308594 43.199219 58.042969 42.738281 C 57.519531 41.828125 56.554688 41.265625 55.503906 41.265625 C 54.453125 41.265625 53.484375 41.828125 52.960938 42.738281 C 52.699219 43.210938 52.101562 43.378906 51.628906 43.109375 C 51.164062 42.839844 51.011719 42.238281 51.292969 41.773438 C 52 40.554688 53.1875 39.726562 54.539062 39.453125 L 54.539062 33.855469 L 52.195312 34.742188 C 51.691406 34.960938 51.101562 34.71875 50.910156 34.203125 C 50.710938 33.6875 50.988281 33.113281 51.511719 32.945312 L 55.9375 31.273438 C 56.945312 30.894531 57.324219 30.46875 57.585938 29.832031 C 57.847656 29.195312 57.921875 28.246094 57.921875 27.027344 L 57.921875 18.015625 C 57.917969 17.476562 58.359375 17.039062 58.902344 17.046875 Z M 58.902344 17.046875 " fill-opacity="1" fill-rule="nonzero"/><path fill="#ffffff" d="M 13.140625 17.046875 C 12.613281 17.054688 12.1875 17.488281 12.195312 18.015625 L 12.195312 27.027344 C 12.195312 28.304688 12.230469 29.480469 12.675781 30.566406 C 13.121094 31.648438 14.050781 32.550781 15.425781 33.070312 L 15.578125 33.128906 L 15.578125 39.453125 C 14.226562 39.726562 13.035156 40.554688 12.332031 41.773438 C 12.066406 42.234375 12.222656 42.824219 12.683594 43.089844 C 13.144531 43.355469 13.730469 43.199219 13.996094 42.738281 C 14.523438 41.828125 15.492188 41.265625 16.542969 41.265625 C 17.59375 41.265625 18.558594 41.828125 19.085938 42.738281 C 19.34375 43.210938 19.941406 43.378906 20.410156 43.109375 C 20.878906 42.839844 21.03125 42.238281 20.75 41.773438 C 20.042969 40.554688 18.855469 39.726562 17.503906 39.453125 L 17.503906 33.855469 L 19.847656 34.742188 C 20.351562 34.960938 20.9375 34.71875 21.132812 34.203125 C 21.328125 33.6875 21.054688 33.113281 20.527344 32.945312 L 16.101562 31.273438 C 15.097656 30.894531 14.71875 30.46875 14.457031 29.832031 C 14.195312 29.195312 14.117188 28.246094 14.117188 27.027344 L 14.117188 18.015625 C 14.121094 17.476562 13.679688 17.039062 13.140625 17.046875 Z M 13.140625 17.046875 " fill-opacity="1" fill-rule="nonzero"/><path fill="#ffffff" d="M 57.019531 15.902344 L 57.019531 28.058594 C 57.019531 28.960938 56.460938 29.769531 55.605469 30.101562 L 49.683594 32.398438 L 48.167969 41.324219 C 47.773438 44.328125 43.179688 43.574219 43.792969 40.605469 L 45.515625 30.457031 C 45.640625 29.703125 46.164062 29.066406 46.882812 28.785156 L 50.421875 27.414062 L 50.421875 20.191406 L 49.050781 21.972656 C 48.695312 22.316406 48.214844 22.511719 47.714844 22.511719 L 42.855469 22.511719 C 40.328125 22.511719 40.328125 18.773438 42.855469 18.773438 L 46.941406 18.773438 L 50.695312 14.679688 C 51.277344 14.039062 51.902344 13.542969 52.644531 13.542969 L 54.796875 13.542969 C 56.246094 13.542969 57.019531 14.867188 57.019531 15.902344 Z M 57.019531 15.902344 " fill-opacity="1" fill-rule="nonzero"/><path fill="#ffffff" d="M 26.960938 13.289062 C 26.519531 13.289062 26.171875 13.460938 25.929688 13.707031 L 23.859375 15.789062 L 25.527344 17.609375 L 29.089844 17.609375 C 30.019531 17.609375 30.863281 17.992188 31.398438 18.585938 C 31.929688 19.175781 32.171875 19.914062 32.171875 20.636719 C 32.171875 21.332031 31.949219 22.03125 31.472656 22.609375 L 34.714844 22.609375 L 34.757812 18.054688 L 36.835938 19.652344 C 37.402344 20.089844 38.242188 20.113281 38.722656 19.585938 L 41.789062 16.203125 C 41.871094 16.128906 41.976562 16.089844 42.082031 16.089844 L 43.75 16.089844 C 44.296875 16.089844 44.660156 15.953125 44.878906 15.78125 C 45.097656 15.609375 45.191406 15.40625 45.191406 15.179688 C 45.195312 14.722656 44.78125 14.101562 43.703125 13.863281 L 41.527344 13.332031 C 41.164062 13.332031 40.820312 13.464844 40.558594 13.707031 L 37.945312 16.417969 C 37.792969 16.558594 37.554688 16.570312 37.390625 16.4375 L 33.886719 13.707031 C 33.574219 13.460938 33.25 13.289062 32.800781 13.289062 Z M 26.960938 13.289062 " fill-opacity="1" fill-rule="nonzero"/><path fill="#ffffff" d="M 25.847656 26.808594 L 29.132812 31.46875 L 29.132812 37.402344 C 29.132812 40.0625 33.367188 40.0625 33.367188 37.402344 L 33.367188 31.277344 L 32.003906 28.949219 C 31.78125 28.464844 32.15625 28.292969 32.449219 28.6875 L 34.15625 30.945312 C 34.195312 31.011719 34.21875 31.085938 34.21875 31.160156 L 34.21875 37.402344 C 34.21875 40.0625 38.410156 40.0625 38.410156 37.402344 L 38.410156 30.726562 C 38.410156 30.246094 38.246094 29.773438 37.945312 29.394531 L 36.144531 26.808594 Z M 25.847656 26.808594 " fill-opacity="1" fill-rule="nonzero"/><path fill="#ffffff" d="M 33.773438 9.1875 C 32.878906 11.230469 30.476562 12.171875 28.402344 11.289062 C 26.335938 10.410156 25.382812 8.035156 26.273438 5.996094 C 27.171875 3.953125 29.574219 3.011719 31.640625 3.890625 C 33.714844 4.777344 34.667969 7.144531 33.773438 9.1875 Z M 33.773438 9.1875 " fill-opacity="1" fill-rule="evenodd"/><path fill="#ffffff" d="M 14.929688 15.902344 L 14.929688 28.058594 C 14.929688 28.960938 15.488281 29.769531 16.339844 30.101562 L 22.261719 32.398438 L 23.777344 41.324219 C 24.171875 44.328125 28.765625 43.574219 28.152344 40.605469 L 26.433594 30.457031 C 26.300781 29.703125 25.78125 29.066406 25.058594 28.785156 L 21.527344 27.414062 L 21.527344 20.191406 L 22.894531 21.972656 C 23.25 22.316406 23.730469 22.511719 24.230469 22.511719 L 29.09375 22.511719 C 31.617188 22.511719 31.617188 18.773438 29.09375 18.773438 L 25.007812 18.773438 L 21.253906 14.679688 C 20.667969 14.039062 20.042969 13.542969 19.304688 13.542969 L 17.148438 13.542969 C 15.703125 13.542969 14.929688 14.867188 14.929688 15.902344 Z M 14.929688 15.902344 " fill-opacity="1" fill-rule="nonzero"/><path fill="#ffffff" d="M 14.222656 9.679688 C 15.179688 11.863281 17.746094 12.863281 19.960938 11.921875 C 22.171875 10.984375 23.183594 8.449219 22.234375 6.273438 C 21.273438 4.09375 18.710938 3.085938 16.503906 4.027344 C 14.285156 4.96875 13.273438 7.5 14.222656 9.679688 Z M 14.222656 9.679688 " fill-opacity="1" fill-rule="evenodd"/><path fill="#ffffff" d="M 57.726562 9.679688 C 56.769531 11.863281 54.203125 12.863281 51.988281 11.921875 C 49.78125 10.984375 48.765625 8.449219 49.71875 6.273438 C 50.671875 4.09375 53.238281 3.085938 55.445312 4.027344 C 57.664062 4.96875 58.679688 7.5 57.726562 9.679688 Z M 57.726562 9.679688 " fill-opacity="1" fill-rule="evenodd"/><path fill="#ffffff" d="M 42.460938 11.011719 C 41.976562 11.027344 41.476562 10.972656 40.972656 10.839844 C 39.6875 10.496094 38.683594 9.699219 38.0625 8.6875 L 36.71875 8.878906 C 36.28125 8.941406 36.113281 8.53125 36.386719 8.179688 L 37.40625 6.878906 C 37.308594 6.230469 37.339844 5.542969 37.523438 4.859375 C 38.222656 2.246094 40.820312 0.6875 43.5 1.410156 C 46.179688 2.128906 47.652344 4.777344 46.953125 7.386719 C 46.382812 9.507812 44.5625 10.9375 42.460938 11.011719 Z M 39.765625 7.042969 C 40.273438 7.042969 40.683594 6.628906 40.683594 6.121094 C 40.683594 5.617188 40.273438 5.207031 39.765625 5.207031 C 39.257812 5.207031 38.847656 5.617188 38.847656 6.121094 C 38.847656 6.628906 39.257812 7.042969 39.765625 7.042969 Z M 42.238281 7.042969 C 42.746094 7.042969 43.152344 6.628906 43.15625 6.121094 C 43.152344 5.617188 42.746094 5.207031 42.238281 5.207031 C 41.730469 5.207031 41.316406 5.617188 41.316406 6.121094 C 41.316406 6.628906 41.730469 7.042969 42.238281 7.042969 Z M 44.710938 7.042969 C 45.214844 7.042969 45.625 6.628906 45.625 6.121094 C 45.625 5.617188 45.214844 5.207031 44.710938 5.207031 C 44.199219 5.207031 43.789062 5.617188 43.789062 6.121094 C 43.789062 6.628906 44.199219 7.042969 44.710938 7.042969 Z M 44.710938 7.042969 " fill-opacity="1" fill-rule="evenodd"/></svg>