<svg xmlns="http://www.w3.org/2000/svg" xmlns:xlink="http://www.w3.org/1999/xlink" width="95" zoomAndPan="magnify" viewBox="0 0 69.75 44.999999" height="65" preserveAspectRatio="xMidYMid meet" version="1.0"><defs><clipPath id="b9f64d4f01"><path d="M 18.140625 0.789062 L 51.023438 0.789062 L 51.023438 44.132812 L 18.140625 44.132812 Z M 18.140625 0.789062 " clip-rule="nonzero"/></clipPath></defs><g clip-path="url(#b9f64d4f01)"><path fill="#ffffff" d="M 49.199219 12.601562 L 49.160156 14.878906 L 50.921875 16.40625 C 51.351562 16.789062 51.222656 17.519531 50.621094 17.691406 L 48.421875 18.363281 L 47.515625 20.515625 C 47.28125 21.070312 46.53125 21.117188 46.210938 20.640625 L 44.878906 18.734375 L 42.550781 18.53125 C 41.957031 18.480469 41.65625 17.800781 42.046875 17.3125 L 43.429688 15.484375 L 42.902344 13.214844 C 42.777344 12.671875 43.300781 12.125 43.914062 12.367188 L 46.074219 13.109375 L 48.082031 11.902344 C 48.597656 11.582031 49.25 12 49.199219 12.601562 Z M 47.660156 15.203125 L 47.691406 13.867188 L 46.542969 14.558594 C 46.359375 14.664062 46.132812 14.695312 45.917969 14.628906 L 44.652344 14.1875 L 44.945312 15.464844 C 45.003906 15.679688 44.964844 15.910156 44.820312 16.105469 L 44.011719 17.167969 L 45.335938 17.285156 C 45.550781 17.304688 45.753906 17.410156 45.878906 17.59375 L 46.648438 18.695312 L 47.164062 17.46875 C 47.242188 17.273438 47.410156 17.109375 47.632812 17.050781 L 48.917969 16.660156 L 47.90625 15.785156 C 47.757812 15.640625 47.660156 15.425781 47.660156 15.203125 Z M 23.992188 19.355469 L 21.277344 14.648438 C 20.992188 14.734375 20.703125 14.792969 20.410156 14.8125 L 23.203125 19.660156 C 23.464844 19.570312 23.726562 19.472656 23.992188 19.355469 Z M 22.550781 13.898438 L 25.277344 18.609375 C 25.507812 18.441406 25.722656 18.265625 25.929688 18.074219 L 23.132812 13.226562 C 22.960938 13.480469 22.773438 13.703125 22.550781 13.898438 Z M 23.308594 10.8125 C 23.445312 10.878906 23.554688 10.988281 23.621094 11.113281 L 27.496094 17.820312 C 27.660156 18.113281 27.613281 18.460938 27.40625 18.6875 C 26.851562 19.300781 26.152344 19.855469 25.390625 20.292969 C 24.632812 20.730469 23.816406 21.050781 23 21.226562 C 22.667969 21.292969 22.335938 21.128906 22.179688 20.847656 L 18.316406 14.148438 C 18.238281 14.015625 18.21875 13.886719 18.21875 13.75 L 18.152344 9.039062 C 18.140625 8.457031 18.785156 8.097656 19.28125 8.398438 Z M 19.6875 13.265625 C 20.203125 13.390625 20.738281 13.324219 21.207031 13.050781 C 21.664062 12.777344 22.003906 12.347656 22.152344 11.84375 L 19.648438 10.355469 Z M 26.792969 38.289062 L 26.921875 38.289062 L 26.921875 35.074219 C 22.667969 32.507812 20.410156 27.621094 21.238281 22.675781 C 21.292969 22.316406 21.617188 22.054688 21.964844 22.054688 L 44.390625 22.054688 C 44.78125 22.054688 45.09375 22.34375 45.132812 22.726562 C 45.207031 23.261719 45.226562 23.308594 45.265625 23.953125 C 45.296875 24.4375 45.296875 24.796875 45.277344 25.285156 C 45.265625 25.390625 45.265625 25.5 45.257812 25.605469 L 48.15625 29.976562 C 48.441406 30.402344 48.214844 30.96875 47.730469 31.105469 L 45.207031 31.777344 L 45.207031 36.058594 C 45.207031 36.46875 44.878906 36.808594 44.46875 36.808594 L 37.871094 36.808594 L 37.871094 38.277344 L 38.171875 38.277344 C 39.796875 38.277344 41.121094 39.601562 41.121094 41.226562 L 41.121094 43.425781 C 41.121094 43.835938 40.789062 44.175781 40.382812 44.175781 L 25.226562 44.175781 C 24.816406 44.175781 24.488281 43.84375 24.488281 43.425781 L 24.488281 40.605469 C 24.476562 39.328125 25.519531 38.289062 26.792969 38.289062 Z M 38.164062 39.785156 L 26.792969 39.785156 C 26.347656 39.785156 25.976562 40.15625 25.976562 40.605469 L 25.976562 42.707031 L 39.621094 42.707031 L 39.621094 41.246094 C 39.621094 40.4375 38.960938 39.785156 38.164062 39.785156 Z M 43.789062 24.046875 C 43.777344 23.894531 43.757812 23.726562 43.738281 23.550781 L 22.609375 23.550781 C 22.367188 25.878906 22.871094 28.15625 24.011719 30.09375 C 24.964844 31.707031 26.335938 33.050781 27.972656 33.976562 C 28.226562 34.09375 28.410156 34.355469 28.410156 34.65625 L 28.410156 38.296875 L 36.382812 38.296875 L 36.382812 36.089844 C 36.382812 35.679688 36.710938 35.347656 37.121094 35.347656 L 43.710938 35.347656 L 43.710938 31.242188 C 43.710938 30.910156 43.933594 30.609375 44.265625 30.519531 L 46.339844 29.964844 L 43.867188 26.238281 C 43.671875 25.945312 43.757812 25.644531 43.789062 25.246094 Z M 42.777344 9.488281 C 43.183594 9.488281 43.515625 9.820312 43.515625 10.226562 C 43.515625 10.636719 43.183594 10.96875 42.777344 10.96875 L 40.917969 10.96875 C 40.507812 10.96875 40.175781 10.636719 40.175781 10.226562 C 40.175781 9.820312 40.507812 9.488281 40.917969 9.488281 Z M 25.429688 10.976562 C 25.023438 10.976562 24.683594 10.644531 24.683594 10.238281 C 24.683594 9.828125 25.011719 9.496094 25.429688 9.496094 L 27.289062 9.496094 C 27.699219 9.496094 28.03125 9.828125 28.03125 10.238281 C 28.03125 10.644531 27.699219 10.976562 27.289062 10.976562 Z M 27.445312 4.621094 C 27.152344 4.328125 27.152344 3.863281 27.445312 3.570312 C 27.738281 3.277344 28.207031 3.277344 28.496094 3.570312 L 29.8125 4.882812 C 30.101562 5.175781 30.101562 5.644531 29.8125 5.933594 C 29.519531 6.226562 29.050781 6.226562 28.761719 5.933594 Z M 33.363281 1.554688 C 33.363281 1.148438 33.695312 0.816406 34.105469 0.816406 C 34.511719 0.816406 34.84375 1.148438 34.84375 1.554688 L 34.84375 3.414062 C 34.84375 3.824219 34.511719 4.152344 34.105469 4.152344 C 33.695312 4.152344 33.363281 3.824219 33.363281 3.414062 Z M 39.710938 3.570312 C 40 3.277344 40.46875 3.277344 40.761719 3.570312 C 41.054688 3.863281 41.054688 4.328125 40.761719 4.621094 L 39.445312 5.933594 C 39.15625 6.226562 38.6875 6.226562 38.394531 5.933594 C 38.105469 5.644531 38.105469 5.175781 38.394531 4.882812 Z M 37.394531 13.898438 C 38.328125 14.683594 38.191406 16.894531 36.9375 17.234375 C 35.398438 20.292969 32.800781 20.292969 31.261719 17.234375 C 30.007812 16.886719 29.871094 14.664062 30.8125 13.886719 C 30.6875 13.703125 30.550781 13.535156 30.414062 13.371094 C 29.8125 12.652344 29.21875 11.941406 29.21875 10.199219 C 29.21875 7.503906 31.40625 5.3125 34.105469 5.3125 C 36.800781 5.3125 38.988281 7.503906 38.988281 10.199219 C 38.988281 11.949219 38.394531 12.660156 37.792969 13.390625 C 37.65625 13.554688 37.519531 13.710938 37.394531 13.898438 Z M 35.183594 17.285156 L 33.023438 17.285156 C 33.753906 18.285156 34.445312 18.285156 35.183594 17.285156 Z M 36.585938 15.105469 L 31.621094 15.105469 C 31.535156 15.105469 31.730469 15.144531 31.71875 15.183594 C 31.679688 15.335938 31.679688 15.550781 31.71875 15.707031 C 31.730469 15.746094 31.535156 15.785156 31.621094 15.785156 L 36.585938 15.785156 C 36.671875 15.785156 36.46875 15.746094 36.488281 15.707031 C 36.527344 15.550781 36.527344 15.328125 36.488281 15.183594 C 36.46875 15.144531 36.671875 15.105469 36.585938 15.105469 Z M 36.496094 7.804688 C 35.175781 6.480469 33.023438 6.480469 31.699219 7.804688 C 31.085938 8.417969 30.707031 9.265625 30.707031 10.199219 C 30.707031 12.097656 31.71875 12.242188 32.371094 13.613281 L 35.847656 13.613281 C 36.496094 12.261719 37.5 12.097656 37.5 10.199219 C 37.5 9.265625 37.121094 8.40625 36.496094 7.804688 Z M 36.496094 7.804688 " fill-opacity="1" fill-rule="nonzero"/></g></svg>