<svg xmlns="http://www.w3.org/2000/svg" xmlns:xlink="http://www.w3.org/1999/xlink" width="93" zoomAndPan="magnify" viewBox="0 0 69.75 44.999999" height="60" preserveAspectRatio="xMidYMid meet" version="1.0"><defs><clipPath id="cbadc8535f"><path d="M 15.410156 1.273438 L 54 1.273438 L 54 43.871094 L 15.410156 43.871094 Z M 15.410156 1.273438 " clip-rule="nonzero"/></clipPath></defs><g clip-path="url(#cbadc8535f)"><path fill="#ffffff" d="M 34.792969 1.273438 C 31.144531 1.273438 28.191406 4.230469 28.191406 7.878906 C 28.191406 11.523438 31.144531 14.480469 34.792969 14.480469 C 38.441406 14.480469 41.394531 11.523438 41.394531 7.878906 C 41.394531 4.230469 38.441406 1.273438 34.792969 1.273438 Z M 28.191406 18.253906 C 25.125 18.253906 23.027344 20.398438 22.589844 20.976562 C 20.914062 23.199219 16.921875 29.722656 16.921875 29.722656 C 15.59375 32.003906 15.582031 33.78125 17.425781 35.621094 L 22.277344 40.476562 C 23.273438 41.476562 24.890625 41.476562 25.886719 40.476562 C 26.171875 40.195312 26.363281 39.859375 26.484375 39.503906 L 26.777344 43.71875 L 42.8125 43.71875 L 43.074219 39.769531 C 43.203125 40.078125 43.386719 40.359375 43.636719 40.609375 C 44.632812 41.605469 46.25 41.605469 47.246094 40.609375 L 52.160156 35.621094 C 54.003906 33.78125 53.992188 32.003906 52.664062 29.722656 C 52.664062 29.722656 48.671875 23.199219 46.996094 20.976562 C 46.558594 20.398438 44.460938 18.253906 41.394531 18.253906 L 40.410156 18.253906 L 36.210938 28.316406 L 37.210938 28.660156 C 37.535156 28.765625 37.699219 29.105469 37.585938 29.414062 L 35.910156 33.894531 C 35.792969 34.203125 35.4375 34.363281 35.113281 34.253906 L 32.375 33.316406 C 32.050781 33.207031 31.882812 32.871094 31.996094 32.558594 L 33.484375 28.589844 L 29.160156 18.253906 Z M 30.945312 18.253906 L 34.792969 27.429688 L 38.625 18.253906 Z M 25.355469 26.742188 L 26.304688 37.441406 C 26.191406 37.238281 26.058594 37.039062 25.886719 36.867188 L 21.3125 32.289062 Z M 44.230469 26.742188 L 48.273438 32.289062 L 43.636719 37 C 43.496094 37.136719 43.382812 37.289062 43.28125 37.445312 Z M 44.230469 26.742188 " fill-opacity="1" fill-rule="nonzero"/></g></svg>