<svg xmlns="http://www.w3.org/2000/svg" xmlns:xlink="http://www.w3.org/1999/xlink" width="232" zoomAndPan="magnify" viewBox="0 0 174 173.999997" height="232" preserveAspectRatio="xMidYMid meet" version="1.0"><defs><clipPath id="cd76dc0c16"><path d="M 17.398438 63 L 90 63 L 90 136 L 17.398438 136 Z M 17.398438 63 " clip-rule="nonzero"/></clipPath><clipPath id="af5e304575"><path d="M 71.992188 34.703125 L 82.796875 34.703125 L 82.796875 45.503906 L 71.992188 45.503906 Z M 71.992188 34.703125 " clip-rule="nonzero"/></clipPath><clipPath id="39a56bc014"><path d="M 77.394531 34.703125 C 74.410156 34.703125 71.992188 37.121094 71.992188 40.105469 C 71.992188 43.085938 74.410156 45.503906 77.394531 45.503906 C 80.378906 45.503906 82.796875 43.085938 82.796875 40.105469 C 82.796875 37.121094 80.378906 34.703125 77.394531 34.703125 Z M 77.394531 34.703125 " clip-rule="nonzero"/></clipPath></defs><path fill="#ffffff" d="M 74.5 160.097656 C 73.554688 165.472656 67.285156 169.167969 62.5625 165.851562 C 56.390625 161.628906 59.527344 152.882812 66.359375 151.777344 C 69.039062 150.996094 66.867188 148.492188 65.667969 147.324219 C 62.113281 143.769531 58.558594 140.210938 55.007812 136.652344 C 54.207031 135.851562 54.207031 135.832031 54.996094 135.042969 C 58.441406 131.597656 61.886719 128.15625 65.332031 124.710938 C 66.082031 124.109375 68.105469 121.664062 68.710938 123.433594 C 69.710938 128.117188 73.753906 131.796875 78.441406 131.207031 C 87.804688 130.011719 87.675781 117.101562 78.984375 114.78125 C 78.078125 114.527344 76.46875 114.195312 77.414062 112.988281 C 81.039062 108.535156 85.480469 104.773438 89.433594 100.605469 C 90.125 99.914062 90.191406 99.914062 90.875 100.597656 C 94.53125 104.238281 98.183594 107.878906 101.832031 111.523438 C 108.121094 117.597656 104.292969 106.5 112.582031 105.054688 C 123.3125 103.964844 124.84375 118.167969 113.753906 120.453125 C 111.875 121.445312 113.871094 123.488281 114.78125 124.472656 C 118.40625 128.105469 122.03125 131.738281 125.65625 135.375 C 126.460938 136.179688 126.460938 136.191406 125.671875 136.980469 C 123.777344 138.878906 121.878906 140.773438 119.980469 142.671875 C 118.09375 144.542969 116.25 146.453125 114.257812 148.21875 C 112.542969 149.742188 112.128906 149.375 111.589844 147.566406 C 109.96875 140.199219 99.484375 138.042969 95.929688 145.121094 C 93.199219 150.355469 97.101562 156.347656 102.511719 157.492188 C 105.300781 157.976562 101.453125 160.886719 100.742188 161.890625 C 97.59375 165.078125 94.414062 168.238281 91.246094 171.40625 C 90.542969 172.105469 90.460938 172.105469 89.742188 171.382812 C 85.492188 167.363281 81.652344 162.851562 77.15625 159.117188 C 75.859375 158.269531 74.910156 158.597656 74.503906 160.097656 Z M 74.5 160.097656 " fill-opacity="1" fill-rule="nonzero"/><g clip-path="url(#cd76dc0c16)"><path fill="#ffffff" d="M 54.46875 134.414062 C 53.640625 135.238281 53.59375 135.238281 52.792969 134.4375 C 49.640625 131.289062 46.488281 128.140625 43.34375 124.984375 C 42.640625 124.046875 38.742188 120.957031 41.476562 120.511719 C 55.773438 116.871094 46.636719 97.203125 35.125 105.925781 C 31.5 108.984375 32.75 113.6875 30.363281 111.664062 C 26.003906 108.027344 22.234375 103.734375 18.152344 99.796875 C 17.402344 99.042969 17.398438 98.972656 18.136719 98.234375 C 21.960938 94.328125 25.980469 90.59375 29.636719 86.527344 C 31.386719 84.511719 30.808594 83.441406 28.59375 82.878906 C 21.371094 81.425781 19.679688 71.175781 26.589844 68.425781 C 31.59375 66.078125 36.585938 70.378906 37.53125 75.273438 C 38.835938 78.082031 41.644531 74.546875 42.957031 73.402344 C 46.132812 70.242188 49.296875 67.066406 52.46875 63.902344 C 53.316406 63.054688 53.339844 63.054688 54.195312 63.910156 C 58.03125 67.8125 62.039062 71.550781 65.691406 75.621094 C 66.351562 76.40625 67.019531 77.53125 65.546875 77.769531 C 60.945312 78.792969 57.082031 83.054688 58.261719 87.9375 C 59.691406 96.046875 71.3125 96.828125 74.246094 88.976562 C 74.828125 88.082031 74.648438 85.367188 76.277344 86.421875 C 80.839844 90.039062 84.628906 94.566406 88.855469 98.574219 C 89.527344 99.25 89.53125 99.347656 88.855469 100.027344 C 84.878906 104.210938 80.425781 107.988281 76.792969 112.476562 C 74.53125 115.84375 80.175781 114.824219 82.726562 118.042969 C 85.484375 120.894531 85.492188 125.476562 82.710938 128.273438 C 77.808594 133.175781 70.511719 129.253906 69.445312 123.082031 C 68.160156 120.195312 65.363281 123.707031 64.035156 124.859375 C 60.835938 128.035156 57.65625 131.230469 54.46875 134.414062 Z M 54.46875 134.414062 " fill-opacity="1" fill-rule="nonzero"/></g><path fill="#eb9f18" d="M 90.542969 16.886719 C 89.914062 14.398438 88.363281 12.453125 86.304688 10.988281 C 84.472656 9.554688 87.933594 8.589844 88.929688 8.019531 C 93.273438 6.117188 97.617188 4.214844 101.960938 2.316406 C 102.960938 1.882812 103.015625 1.90625 103.460938 2.925781 C 106.027344 8.253906 107.835938 14.039062 110.875 19.101562 C 112.28125 20.90625 113.574219 18.726562 114.480469 17.628906 C 118.449219 12.578125 127.40625 14.550781 127.953125 21.242188 C 128.882812 26.863281 123.019531 30.648438 117.898438 29.582031 C 115.21875 29.453125 116.394531 32.578125 117.058594 34.035156 C 119.058594 38.617188 121.054688 43.203125 123.054688 47.789062 C 123.5 48.8125 123.480469 48.871094 122.484375 49.304688 C 117.828125 51.332031 113.167969 53.355469 108.507812 55.378906 C 107.667969 55.6875 105.398438 56.796875 105.46875 55.132812 C 106.34375 50.410156 103.648438 45.203125 98.972656 44.234375 C 89.699219 42.265625 85.597656 54.734375 93.109375 59.722656 C 94.53125 60.84375 94.574219 61.15625 92.984375 62.0625 C 91.855469 62.703125 90.644531 63.203125 89.453125 63.726562 C 85.617188 65.417969 81.769531 67.089844 77.925781 68.765625 C 76.957031 69.1875 76.890625 69.160156 76.46875 68.199219 C 73.90625 62.867188 72.097656 57.089844 69.058594 52.023438 C 68.226562 51.027344 67.445312 51.015625 66.582031 51.996094 C 62.082031 59.71875 50.253906 56.253906 52.074219 47.265625 C 52.863281 42.992188 57.410156 40.839844 61.460938 41.453125 C 64.335938 41.964844 63.871094 39.328125 63.054688 37.558594 C 62.039062 35.1875 60.996094 32.828125 59.964844 30.464844 L 59.984375 30.457031 C 58.929688 28.042969 57.878906 25.632812 56.828125 23.21875 C 56.417969 22.28125 56.445312 22.195312 57.339844 21.804688 C 62.582031 19.636719 67.679688 17.0625 73.019531 15.160156 C 74.191406 14.84375 74.554688 15.125 74.398438 16.320312 C 72.589844 30.023438 92.640625 30.648438 90.546875 16.886719 Z M 90.542969 16.886719 " fill-opacity="1" fill-rule="nonzero"/><path fill="#ffffff" d="M 132.753906 82.199219 C 126.320312 94.089844 144.835938 100.78125 148.132812 87.625 C 148.460938 86.332031 148.835938 86.1875 149.902344 86.996094 C 154.292969 90.667969 158.09375 95.011719 162.21875 98.976562 C 162.902344 99.660156 162.902344 99.746094 162.222656 100.425781 C 160.347656 102.304688 158.464844 104.183594 156.585938 106.0625 L 156.601562 106.078125 C 155.453125 107.75 147.1875 113.683594 150.367188 115.304688 C 164.246094 118.554688 157.226562 136.355469 146.046875 129.105469 C 142.386719 126.386719 143.546875 121.085938 140.546875 122.574219 C 135.890625 126.125 132.140625 130.824219 127.839844 134.808594 C 126.988281 135.660156 126.980469 135.660156 126.117188 134.796875 C 122.1875 130.742188 117.9375 126.96875 114.292969 122.652344 C 113.453125 121.585938 113.636719 121.175781 114.949219 120.835938 C 130.183594 116.5625 118.175781 96.035156 107.398438 107.410156 C 105.148438 109.960938 105.824219 113.726562 103.828125 112.144531 C 99.378906 108.507812 95.601562 104.09375 91.445312 100.125 C 90.695312 99.375 90.695312 99.34375 91.464844 98.574219 C 95.421875 94.378906 99.917969 90.628906 103.523438 86.125 C 104.390625 84.808594 104.097656 83.886719 102.578125 83.46875 C 96.59375 82.3125 92.898438 75.0625 97.597656 70.332031 C 102.792969 65.398438 109.753906 69.585938 110.957031 75.855469 C 112.066406 77.945312 114.308594 75.625 115.378906 74.628906 C 118.871094 71.160156 122.351562 67.675781 125.835938 64.199219 C 126.632812 63.40625 126.652344 63.40625 127.449219 64.199219 C 130.46875 67.21875 133.496094 70.234375 136.507812 73.265625 C 144.003906 80.652344 136.621094 75.996094 132.753906 82.195312 Z M 132.753906 82.199219 " fill-opacity="1" fill-rule="nonzero"/><g clip-path="url(#af5e304575)"><g clip-path="url(#39a56bc014)"><path fill="#eb9f18" d="M 71.992188 34.703125 L 82.796875 34.703125 L 82.796875 45.503906 L 71.992188 45.503906 Z M 71.992188 34.703125 " fill-opacity="1" fill-rule="nonzero"/></g></g></svg>