<svg xmlns="http://www.w3.org/2000/svg" xmlns:xlink="http://www.w3.org/1999/xlink" width="150" zoomAndPan="magnify" viewBox="0 0 810 809.999993" height="108" preserveAspectRatio="xMidYMid meet" version="1.0"><defs><clipPath id="be30771242"><path d="M 430.007812 310.191406 L 474.253906 310.191406 L 474.253906 354.4375 L 430.007812 354.4375 Z M 430.007812 310.191406 " clip-rule="nonzero"/></clipPath><clipPath id="c3387f9581"><path d="M 452.128906 310.191406 C 439.910156 310.191406 430.007812 320.097656 430.007812 332.316406 C 430.007812 344.535156 439.910156 354.4375 452.128906 354.4375 C 464.347656 354.4375 474.253906 344.535156 474.253906 332.316406 C 474.253906 320.097656 464.347656 310.191406 452.128906 310.191406 Z M 452.128906 310.191406 " clip-rule="nonzero"/></clipPath></defs><path fill="#373531" d="M 266.214844 405.5625 C 266.214844 328.914062 328.359375 266.773438 405.007812 266.773438 C 481.65625 266.773438 543.808594 328.914062 543.808594 405.5625 C 543.808594 482.214844 481.667969 544.363281 405.007812 544.363281 C 328.351562 544.363281 266.214844 482.222656 266.214844 405.5625 Z M 266.214844 405.5625 " fill-opacity="1" fill-rule="nonzero"/><path fill="#373531" d="M 325.039062 567.238281 C 280.050781 533.609375 236.042969 484.0625 236.042969 404.4375 C 236.042969 230.664062 505.234375 88.914062 749.972656 404.4375 L 810.035156 404.4375 C 554.496094 51.203125 195.226562 207.492188 195.226562 404.4375 C 195.226562 464.644531 229.894531 519.015625 263.910156 548.035156 C 283.902344 556.945312 304.300781 563.386719 325.03125 567.238281 Z M 325.039062 567.238281 " fill-opacity="1" fill-rule="nonzero"/><path fill="#373531" d="M 484.992188 242.78125 C 529.984375 276.410156 573.992188 325.957031 573.992188 405.582031 C 573.992188 579.351562 304.800781 721.101562 60.0625 405.582031 L 0 405.582031 C 255.535156 758.816406 614.808594 602.527344 614.808594 405.582031 C 614.808594 345.371094 580.140625 291.003906 546.113281 261.984375 C 526.121094 253.074219 505.726562 246.632812 484.992188 242.78125 Z M 484.992188 242.78125 " fill-opacity="1" fill-rule="nonzero"/><path fill="#39a3a6" d="M 405 299.550781 C 346.871094 299.550781 299.570312 346.859375 299.570312 405.011719 C 299.570312 463.167969 346.863281 510.46875 405 510.46875 C 463.136719 510.46875 510.453125 463.160156 510.453125 405.011719 C 510.453125 346.867188 463.144531 299.550781 405 299.550781 Z M 405 473.082031 C 367.484375 473.082031 336.957031 442.546875 336.957031 405.011719 C 336.957031 367.480469 367.484375 336.9375 405 336.9375 C 442.515625 336.9375 473.066406 367.472656 473.066406 405.011719 C 473.066406 442.554688 442.535156 473.082031 405 473.082031 Z M 405 473.082031 " fill-opacity="1" fill-rule="nonzero"/><path fill="#ffffff" d="M 477.402344 332.199219 C 477.402344 346.464844 465.835938 358.023438 451.578125 358.023438 C 437.324219 358.023438 425.757812 346.464844 425.757812 332.199219 C 425.757812 317.933594 437.3125 306.378906 451.578125 306.378906 C 465.84375 306.378906 477.402344 317.933594 477.402344 332.199219 Z M 477.402344 332.199219 " fill-opacity="1" fill-rule="nonzero"/><path fill="#ffffff" d="M 489.9375 387.832031 C 489.9375 397.480469 482.121094 405.296875 472.472656 405.296875 C 462.828125 405.296875 455.011719 397.480469 455.011719 387.832031 C 455.011719 378.1875 462.828125 370.359375 472.472656 370.359375 C 482.121094 370.359375 489.9375 378.175781 489.9375 387.832031 Z M 489.9375 387.832031 " fill-opacity="1" fill-rule="nonzero"/><g clip-path="url(#be30771242)"><g clip-path="url(#c3387f9581)"><path fill="#ffffff" d="M 430.007812 310.191406 L 474.253906 310.191406 L 474.253906 354.4375 L 430.007812 354.4375 Z M 430.007812 310.191406 " fill-opacity="1" fill-rule="nonzero"/></g></g></svg>