<svg xmlns="http://www.w3.org/2000/svg" xmlns:xlink="http://www.w3.org/1999/xlink" width="250" zoomAndPan="magnify" viewBox="0 0 187.5 187.499992" height="250" preserveAspectRatio="xMidYMid meet" version="1.0"><defs><clipPath id="dd1584452e"><path d="M 72 170 L 112 170 L 112 187 L 72 187 Z M 72 170 " clip-rule="nonzero"/></clipPath><clipPath id="27057993da"><path d="M 14.933594 65 L 45 65 L 45 74 L 14.933594 74 Z M 14.933594 65 " clip-rule="nonzero"/></clipPath><clipPath id="d6eb546eff"><path d="M 149 68 L 177.996094 68 L 177.996094 77 L 149 77 Z M 149 68 " clip-rule="nonzero"/></clipPath><clipPath id="2b93e00d74"><path d="M 149 67 L 177.996094 67 L 177.996094 77 L 149 77 Z M 149 67 " clip-rule="nonzero"/></clipPath></defs><path fill="#eb9f18" d="M 136.460938 83.210938 C 135.175781 83.988281 133.679688 84.441406 132.078125 84.441406 L 126.652344 84.441406 C 127.316406 87.054688 126.925781 90.085938 123.738281 93.375 C 123.554688 93.5625 123.339844 93.730469 123.113281 93.855469 C 116.453125 97.574219 109.691406 92.851562 109.691406 86.554688 C 109.691406 85.824219 109.792969 85.117188 109.964844 84.441406 L 98.273438 84.441406 C 97.027344 84.441406 96.007812 83.421875 96.007812 82.179688 L 96.007812 69.449219 C 93.175781 71.214844 89.269531 71.421875 85.441406 68.644531 C 85.210938 68.476562 85.003906 68.265625 84.835938 68.03125 C 79.929688 61.039062 84.816406 53.523438 91.457031 53.523438 C 93.128906 53.523438 94.6875 54.007812 96.007812 54.835938 L 96.007812 42.105469 C 96.007812 40.859375 97.027344 39.839844 98.273438 39.839844 L 109.964844 39.839844 C 109.886719 39.53125 109.828125 39.21875 109.785156 38.898438 C 98.269531 33.90625 84.246094 33.609375 70.089844 40.589844 C 62.472656 44.34375 56.359375 50.625 52.683594 58.28125 C 46.113281 71.957031 46.320312 85.480469 50.949219 96.703125 L 50.945312 96.703125 L 73.910156 158.6875 L 110.292969 158.6875 L 133.253906 96.703125 L 133.25 96.703125 C 134.992188 92.492188 136.09375 87.957031 136.460938 83.210938 " fill-opacity="1" fill-rule="nonzero"/><path fill="#1d1d1b" d="M 136.460938 83.210938 L 136.039062 82.511719 C 134.871094 83.214844 133.523438 83.625 132.078125 83.625 L 126.652344 83.625 C 126.402344 83.625 126.164062 83.742188 126.011719 83.9375 C 125.855469 84.136719 125.800781 84.398438 125.859375 84.640625 C 126.019531 85.261719 126.109375 85.898438 126.109375 86.550781 C 126.109375 87.488281 125.925781 88.464844 125.46875 89.503906 C 125.011719 90.539062 124.277344 91.644531 123.152344 92.804688 C 123.023438 92.9375 122.867188 93.058594 122.714844 93.140625 C 121.199219 93.988281 119.707031 94.351562 118.308594 94.351562 C 116.152344 94.351562 114.210938 93.480469 112.796875 92.066406 C 111.382812 90.65625 110.511719 88.710938 110.511719 86.550781 C 110.511719 85.898438 110.601562 85.261719 110.757812 84.640625 C 110.816406 84.398438 110.765625 84.136719 110.609375 83.9375 C 110.453125 83.742188 110.214844 83.625 109.964844 83.625 L 98.273438 83.625 C 97.875 83.625 97.515625 83.460938 97.25 83.199219 C 96.988281 82.933594 96.828125 82.574219 96.824219 82.175781 L 96.824219 69.445312 C 96.824219 69.148438 96.664062 68.875 96.40625 68.730469 C 96.144531 68.589844 95.828125 68.597656 95.574219 68.753906 C 94.375 69.5 92.972656 69.9375 91.457031 69.9375 C 89.726562 69.9375 87.839844 69.371094 85.921875 67.980469 C 85.765625 67.871094 85.617188 67.71875 85.503906 67.558594 L 85.507812 67.558594 C 84.203125 65.699219 83.660156 63.847656 83.660156 62.140625 C 83.660156 59.984375 84.53125 58.039062 85.941406 56.625 C 87.355469 55.214844 89.300781 54.34375 91.457031 54.339844 C 92.972656 54.34375 94.375 54.777344 95.574219 55.527344 C 95.828125 55.683594 96.144531 55.691406 96.40625 55.550781 C 96.664062 55.402344 96.824219 55.132812 96.824219 54.832031 L 96.824219 42.101562 C 96.828125 41.707031 96.988281 41.347656 97.25 41.082031 C 97.515625 40.816406 97.875 40.65625 98.273438 40.65625 L 109.964844 40.65625 C 110.214844 40.65625 110.457031 40.539062 110.609375 40.34375 C 110.765625 40.144531 110.816406 39.882812 110.757812 39.640625 C 110.6875 39.367188 110.636719 39.078125 110.59375 38.785156 C 110.550781 38.503906 110.367188 38.261719 110.109375 38.148438 C 104.589844 35.757812 98.5 34.421875 92.101562 34.421875 C 84.910156 34.421875 77.324219 36.109375 69.726562 39.855469 C 61.941406 43.691406 55.699219 50.109375 51.945312 57.925781 C 48.386719 65.339844 46.777344 72.726562 46.777344 79.746094 C 46.777344 85.859375 47.996094 91.691406 50.195312 97.015625 L 50.949219 96.703125 L 50.949219 95.886719 L 50.945312 95.886719 C 50.679688 95.886719 50.429688 96.019531 50.273438 96.238281 C 50.121094 96.457031 50.085938 96.738281 50.179688 96.988281 L 73.144531 158.96875 C 73.261719 159.289062 73.566406 159.503906 73.910156 159.503906 L 110.292969 159.503906 C 110.636719 159.503906 110.941406 159.289062 111.0625 158.96875 L 134.023438 96.988281 C 134.117188 96.738281 134.082031 96.457031 133.925781 96.238281 C 133.773438 96.019531 133.523438 95.886719 133.253906 95.886719 L 133.253906 96.703125 L 134.007812 97.015625 C 135.777344 92.726562 136.902344 88.105469 137.273438 83.273438 C 137.300781 82.96875 137.148438 82.675781 136.890625 82.515625 C 136.628906 82.355469 136.296875 82.355469 136.039062 82.511719 L 136.460938 83.210938 L 135.644531 83.148438 C 135.28125 87.804688 134.203125 92.261719 132.496094 96.394531 C 132.390625 96.644531 132.421875 96.933594 132.574219 97.160156 C 132.726562 97.386719 132.980469 97.523438 133.253906 97.523438 L 133.253906 96.703125 L 132.488281 96.421875 L 109.722656 157.867188 L 74.480469 157.867188 L 51.714844 96.421875 L 50.945312 96.703125 L 50.945312 97.523438 L 50.949219 97.523438 C 51.222656 97.523438 51.476562 97.386719 51.628906 97.160156 C 51.78125 96.933594 51.808594 96.644531 51.707031 96.394531 C 49.589844 91.261719 48.414062 85.644531 48.414062 79.746094 C 48.414062 72.976562 49.960938 65.839844 53.421875 58.636719 C 57.019531 51.140625 63.003906 44.992188 70.449219 41.320312 C 77.835938 37.679688 85.164062 36.058594 92.101562 36.058594 C 98.273438 36.058594 104.136719 37.34375 109.457031 39.648438 L 109.785156 38.898438 L 108.972656 39.015625 C 109.023438 39.355469 109.085938 39.699219 109.171875 40.039062 L 109.964844 39.839844 L 109.964844 39.023438 L 98.273438 39.023438 C 96.574219 39.023438 95.195312 40.402344 95.191406 42.101562 L 95.191406 54.832031 L 96.007812 54.832031 L 96.441406 54.140625 C 94.996094 53.238281 93.289062 52.707031 91.457031 52.707031 C 86.246094 52.707031 82.023438 56.929688 82.023438 62.140625 C 82.023438 64.199219 82.6875 66.394531 84.167969 68.5 C 84.386719 68.8125 84.65625 69.082031 84.960938 69.304688 C 87.121094 70.875 89.363281 71.574219 91.457031 71.574219 C 93.289062 71.574219 94.996094 71.042969 96.441406 70.140625 L 96.007812 69.445312 L 95.191406 69.445312 L 95.191406 82.175781 C 95.195312 83.878906 96.574219 85.257812 98.273438 85.257812 L 109.964844 85.257812 L 109.964844 84.441406 L 109.171875 84.242188 C 108.988281 84.976562 108.875 85.746094 108.875 86.550781 C 108.875 91.761719 113.097656 95.984375 118.308594 95.988281 C 119.992188 95.988281 121.769531 95.542969 123.511719 94.570312 C 123.816406 94.398438 124.089844 94.1875 124.324219 93.941406 C 125.5625 92.667969 126.421875 91.402344 126.964844 90.160156 C 127.511719 88.921875 127.742188 87.707031 127.742188 86.550781 C 127.742188 85.746094 127.632812 84.976562 127.445312 84.242188 L 126.652344 84.441406 L 126.652344 85.257812 L 132.078125 85.257812 C 133.835938 85.257812 135.480469 84.757812 136.882812 83.910156 L 136.460938 83.210938 L 135.644531 83.148438 L 136.460938 83.210938 " fill-opacity="1" fill-rule="nonzero"/><path fill="#eb9f18" d="M 148.152344 35.902344 L 145.648438 25.191406 C 145.292969 23.679688 143.765625 22.730469 142.253906 23.085938 L 131.414062 25.621094 C 131.460938 22.941406 130.40625 20.101562 126.613281 17.632812 C 126.347656 17.460938 126.050781 17.324219 125.746094 17.238281 C 118.453125 15.203125 112.988281 21.316406 114.417969 27.429688 C 114.585938 28.140625 114.84375 28.804688 115.164062 29.421875 L 104.324219 31.957031 C 102.8125 32.3125 101.863281 33.839844 102.21875 35.351562 L 104.992188 47.203125 C 101.851562 46.132812 98.027344 46.808594 94.945312 50.324219 C 94.714844 50.585938 94.53125 50.886719 94.402344 51.210938 C 91.296875 59.097656 97.742188 65.25 104.1875 63.742188 C 105.816406 63.363281 107.222656 62.535156 108.320312 61.433594 L 111.09375 73.28125 C 111.445312 74.792969 112.972656 75.742188 114.484375 75.386719 L 125.324219 72.851562 C 125.277344 75.53125 126.332031 78.375 130.128906 80.839844 C 130.394531 81.015625 130.691406 81.152344 130.996094 81.234375 C 138.289062 83.269531 143.75 77.15625 142.320312 71.042969 C 142.152344 70.332031 141.894531 69.671875 141.574219 69.050781 L 152.414062 66.515625 C 153.925781 66.160156 154.875 64.632812 154.523438 63.121094 L 152.015625 52.410156 C 147.914062 52.644531 144.117188 49.917969 143.148438 45.78125 C 142.179688 41.644531 144.375 37.511719 148.152344 35.902344 " fill-opacity="1" fill-rule="nonzero"/><path fill="#1d1d1b" d="M 148.152344 35.902344 L 148.949219 35.714844 L 146.441406 25.007812 C 146.246094 24.171875 145.769531 23.460938 145.140625 22.972656 C 144.507812 22.480469 143.722656 22.195312 142.894531 22.195312 C 142.621094 22.195312 142.34375 22.226562 142.066406 22.292969 L 131.226562 24.828125 L 131.414062 25.621094 L 132.230469 25.636719 C 132.230469 25.574219 132.230469 25.515625 132.230469 25.453125 C 132.234375 24.027344 131.933594 22.523438 131.121094 21.066406 C 130.3125 19.609375 129.003906 18.210938 127.054688 16.949219 L 127.058594 16.949219 C 126.726562 16.734375 126.359375 16.5625 125.964844 16.453125 C 124.921875 16.160156 123.902344 16.023438 122.925781 16.023438 C 120.160156 16.019531 117.757812 17.132812 116.0625 18.867188 C 114.371094 20.601562 113.371094 22.960938 113.371094 25.460938 C 113.371094 26.171875 113.453125 26.894531 113.621094 27.617188 C 113.804688 28.402344 114.089844 29.128906 114.4375 29.800781 L 115.164062 29.425781 L 114.976562 28.628906 L 104.136719 31.164062 C 103.300781 31.359375 102.59375 31.835938 102.101562 32.46875 C 101.609375 33.097656 101.324219 33.882812 101.324219 34.714844 C 101.324219 34.988281 101.355469 35.265625 101.421875 35.539062 L 104.195312 47.390625 L 104.992188 47.203125 L 105.253906 46.429688 C 104.289062 46.101562 103.261719 45.921875 102.207031 45.921875 C 99.515625 45.917969 96.671875 47.105469 94.328125 49.785156 C 94.039062 50.117188 93.804688 50.5 93.640625 50.914062 L 93.640625 50.910156 C 93.050781 52.40625 92.78125 53.863281 92.78125 55.238281 C 92.777344 58 93.890625 60.40625 95.625 62.097656 C 97.359375 63.792969 99.714844 64.789062 102.214844 64.789062 C 102.925781 64.789062 103.648438 64.710938 104.371094 64.539062 C 106.15625 64.121094 107.699219 63.214844 108.898438 62.007812 L 108.320312 61.433594 L 107.523438 61.617188 L 110.296875 73.46875 C 110.492188 74.304688 110.96875 75.011719 111.597656 75.503906 C 112.226562 75.996094 113.015625 76.28125 113.84375 76.28125 C 114.117188 76.28125 114.394531 76.25 114.671875 76.183594 L 125.511719 73.648438 L 125.324219 72.851562 L 124.507812 72.835938 C 124.507812 72.898438 124.503906 72.960938 124.503906 73.019531 C 124.503906 74.445312 124.804688 75.953125 125.617188 77.410156 C 126.429688 78.867188 127.734375 80.265625 129.683594 81.527344 C 130.015625 81.742188 130.382812 81.914062 130.773438 82.023438 C 131.820312 82.316406 132.835938 82.453125 133.8125 82.453125 C 136.574219 82.453125 138.980469 81.34375 140.675781 79.609375 C 142.367188 77.875 143.363281 75.515625 143.367188 73.015625 C 143.367188 72.304688 143.285156 71.582031 143.117188 70.859375 C 142.933594 70.074219 142.648438 69.347656 142.300781 68.675781 L 141.574219 69.050781 L 141.761719 69.847656 L 152.601562 67.3125 C 153.4375 67.117188 154.144531 66.636719 154.636719 66.007812 C 155.128906 65.378906 155.414062 64.589844 155.414062 63.761719 C 155.414062 63.488281 155.378906 63.210938 155.316406 62.9375 L 152.8125 52.226562 C 152.71875 51.839844 152.367188 51.574219 151.96875 51.597656 C 151.820312 51.605469 151.675781 51.609375 151.527344 51.609375 C 147.988281 51.609375 144.785156 49.191406 143.945312 45.59375 C 143.804688 44.996094 143.738281 44.398438 143.734375 43.8125 C 143.734375 40.71875 145.597656 37.878906 148.472656 36.65625 C 148.839844 36.5 149.039062 36.101562 148.949219 35.714844 L 148.152344 35.902344 L 147.832031 35.148438 C 144.351562 36.636719 142.101562 40.0625 142.101562 43.8125 C 142.101562 44.523438 142.183594 45.246094 142.351562 45.964844 C 143.371094 50.316406 147.246094 53.246094 151.527344 53.242188 C 151.707031 53.242188 151.882812 53.238281 152.0625 53.230469 L 152.015625 52.414062 L 151.21875 52.597656 L 153.722656 63.308594 C 153.757812 63.460938 153.777344 63.613281 153.777344 63.761719 C 153.777344 64.214844 153.621094 64.652344 153.347656 65.003906 C 153.074219 65.351562 152.691406 65.609375 152.226562 65.71875 L 141.386719 68.253906 C 141.144531 68.3125 140.9375 68.480469 140.832031 68.710938 C 140.726562 68.9375 140.734375 69.203125 140.847656 69.425781 C 141.140625 69.996094 141.375 70.59375 141.523438 71.230469 C 141.664062 71.828125 141.730469 72.429688 141.730469 73.015625 C 141.730469 75.078125 140.90625 77.03125 139.503906 78.464844 C 138.101562 79.898438 136.136719 80.816406 133.8125 80.816406 C 132.988281 80.816406 132.121094 80.703125 131.214844 80.449219 C 130.996094 80.390625 130.769531 80.285156 130.574219 80.15625 C 128.804688 79.007812 127.707031 77.804688 127.046875 76.613281 C 126.382812 75.421875 126.140625 74.222656 126.140625 73.019531 C 126.140625 72.96875 126.140625 72.917969 126.140625 72.871094 C 126.144531 72.617188 126.03125 72.375 125.835938 72.21875 C 125.640625 72.058594 125.382812 72 125.136719 72.058594 L 114.296875 74.59375 C 114.144531 74.628906 113.996094 74.644531 113.84375 74.644531 C 113.394531 74.644531 112.957031 74.488281 112.605469 74.214844 C 112.253906 73.941406 111.996094 73.558594 111.886719 73.097656 L 109.113281 61.246094 C 109.046875 60.957031 108.828125 60.726562 108.542969 60.644531 C 108.257812 60.566406 107.949219 60.644531 107.738281 60.855469 C 106.742188 61.859375 105.472656 62.601562 104 62.949219 C 103.402344 63.089844 102.804688 63.15625 102.214844 63.15625 C 100.152344 63.15625 98.203125 62.332031 96.765625 60.929688 C 95.332031 59.523438 94.417969 57.5625 94.414062 55.238281 C 94.414062 54.082031 94.644531 52.832031 95.164062 51.511719 C 95.253906 51.277344 95.390625 51.050781 95.558594 50.863281 C 97.644531 48.496094 99.992188 47.5625 102.207031 47.558594 C 103.074219 47.558594 103.925781 47.703125 104.726562 47.976562 C 105.007812 48.074219 105.320312 48.007812 105.539062 47.808594 C 105.757812 47.609375 105.855469 47.308594 105.785156 47.019531 L 103.011719 35.167969 L 103.011719 35.164062 C 102.976562 35.015625 102.960938 34.863281 102.960938 34.714844 C 102.960938 34.261719 103.117188 33.824219 103.390625 33.472656 C 103.664062 33.121094 104.046875 32.863281 104.511719 32.757812 L 115.347656 30.21875 C 115.59375 30.164062 115.800781 29.996094 115.90625 29.765625 C 116.011719 29.539062 116.003906 29.273438 115.890625 29.050781 C 115.597656 28.480469 115.363281 27.878906 115.214844 27.242188 C 115.074219 26.644531 115.007812 26.046875 115.007812 25.460938 C 115.003906 23.398438 115.832031 21.445312 117.234375 20.011719 C 118.636719 18.578125 120.601562 17.660156 122.925781 17.660156 C 123.746094 17.660156 124.617188 17.773438 125.527344 18.027344 C 125.742188 18.089844 125.96875 18.191406 126.167969 18.320312 C 127.9375 19.472656 129.027344 20.671875 129.691406 21.859375 C 130.351562 23.050781 130.597656 24.25 130.597656 25.453125 C 130.597656 25.503906 130.597656 25.558594 130.597656 25.609375 C 130.589844 25.859375 130.703125 26.101562 130.898438 26.257812 C 131.097656 26.417969 131.355469 26.476562 131.601562 26.417969 L 142.4375 23.882812 C 142.59375 23.847656 142.742188 23.828125 142.894531 23.828125 C 143.34375 23.828125 143.78125 23.984375 144.132812 24.261719 C 144.484375 24.535156 144.742188 24.917969 144.847656 25.378906 L 147.355469 36.089844 L 148.152344 35.902344 L 147.832031 35.148438 L 148.152344 35.902344 " fill-opacity="1" fill-rule="nonzero"/><path fill="#f8d386" d="M 105.390625 38.179688 L 108.082031 51.042969 C 108.082031 51.042969 100.414062 48.09375 97.074219 52.816406 C 97.074219 52.816406 107.71875 50.664062 110.632812 56.617188 L 123.304688 30.949219 C 123.304688 30.949219 116.796875 27.09375 121.488281 19.492188 C 121.488281 19.492188 112.828125 23.207031 118.191406 31.023438 L 106.15625 34.0625 C 104.488281 34.414062 105.019531 35.96875 105.390625 38.179688 " fill-opacity="1" fill-rule="nonzero"/><path fill="#61c0c6" d="M 73.136719 171.464844 C 75.304688 179.925781 82.960938 186.191406 92.101562 186.191406 C 101.242188 186.191406 108.898438 179.925781 111.066406 171.464844 L 73.136719 171.464844 " fill-opacity="1" fill-rule="nonzero"/><g clip-path="url(#dd1584452e)"><path fill="#1d1d1b" d="M 73.136719 171.464844 L 72.34375 171.667969 C 74.605469 180.480469 82.578125 187.003906 92.101562 187.007812 C 101.625 187.003906 109.597656 180.480469 111.859375 171.667969 C 111.921875 171.421875 111.871094 171.164062 111.714844 170.960938 C 111.558594 170.761719 111.320312 170.644531 111.066406 170.644531 L 73.136719 170.644531 C 72.882812 170.644531 72.644531 170.761719 72.488281 170.960938 C 72.332031 171.164062 72.28125 171.421875 72.34375 171.667969 L 73.136719 171.464844 L 73.136719 172.28125 L 111.066406 172.28125 L 111.066406 171.464844 L 110.277344 171.261719 C 108.195312 179.367188 100.859375 185.375 92.101562 185.371094 C 83.34375 185.375 76.007812 179.367188 73.925781 171.261719 L 73.136719 171.464844 L 73.136719 172.28125 L 73.136719 171.464844 " fill-opacity="1" fill-rule="nonzero"/></g><path fill="#61c0c6" d="M 112.421875 163.449219 L 71.78125 163.449219 C 70.09375 163.449219 68.710938 162.066406 68.710938 160.378906 L 68.710938 158.507812 C 68.710938 156.820312 70.09375 155.4375 71.78125 155.4375 L 112.421875 155.4375 C 114.109375 155.4375 115.492188 156.820312 115.492188 158.507812 L 115.492188 160.378906 C 115.492188 162.066406 114.109375 163.449219 112.421875 163.449219 " fill-opacity="1" fill-rule="nonzero"/><path fill="#1d1d1b" d="M 112.421875 163.449219 L 112.421875 162.632812 L 71.78125 162.632812 C 71.164062 162.632812 70.605469 162.382812 70.191406 161.96875 C 69.78125 161.558594 69.53125 160.996094 69.53125 160.378906 L 69.53125 158.507812 C 69.53125 157.890625 69.78125 157.328125 70.191406 156.917969 C 70.605469 156.507812 71.164062 156.253906 71.78125 156.253906 L 112.421875 156.253906 C 113.039062 156.253906 113.597656 156.507812 114.011719 156.917969 C 114.421875 157.328125 114.671875 157.890625 114.671875 158.507812 L 114.671875 160.378906 C 114.671875 160.996094 114.421875 161.558594 114.011719 161.96875 C 113.597656 162.382812 113.039062 162.632812 112.421875 162.632812 L 112.421875 164.269531 C 114.566406 164.265625 116.304688 162.523438 116.308594 160.378906 L 116.308594 158.507812 C 116.304688 156.363281 114.5625 154.625 112.421875 154.621094 L 71.78125 154.621094 C 69.640625 154.625 67.898438 156.363281 67.894531 158.507812 L 67.894531 160.378906 C 67.898438 162.523438 69.640625 164.265625 71.78125 164.269531 L 112.421875 164.269531 L 112.421875 163.449219 " fill-opacity="1" fill-rule="nonzero"/><path fill="#61c0c6" d="M 112.421875 171.464844 L 71.78125 171.464844 C 70.09375 171.464844 68.710938 170.082031 68.710938 168.394531 L 68.710938 166.519531 C 68.710938 164.832031 70.09375 163.449219 71.78125 163.449219 L 112.421875 163.449219 C 114.109375 163.449219 115.492188 164.832031 115.492188 166.519531 L 115.492188 168.394531 C 115.492188 170.082031 114.109375 171.464844 112.421875 171.464844 " fill-opacity="1" fill-rule="nonzero"/><path fill="#1d1d1b" d="M 112.421875 171.464844 L 112.421875 170.644531 L 71.78125 170.644531 C 71.164062 170.644531 70.605469 170.394531 70.191406 169.984375 C 69.78125 169.570312 69.53125 169.011719 69.53125 168.394531 L 69.53125 166.519531 C 69.53125 165.902344 69.78125 165.34375 70.191406 164.929688 C 70.605469 164.519531 71.164062 164.269531 71.78125 164.269531 L 112.421875 164.269531 C 113.039062 164.269531 113.597656 164.519531 114.011719 164.929688 C 114.421875 165.34375 114.671875 165.902344 114.671875 166.519531 L 114.671875 168.394531 C 114.671875 169.011719 114.421875 169.570312 114.011719 169.984375 C 113.597656 170.394531 113.039062 170.644531 112.421875 170.644531 L 112.421875 172.28125 C 114.5625 172.277344 116.304688 170.535156 116.308594 168.394531 L 116.308594 166.519531 C 116.304688 164.378906 114.5625 162.636719 112.421875 162.632812 L 71.78125 162.632812 C 69.640625 162.636719 67.898438 164.378906 67.894531 166.519531 L 67.894531 168.394531 C 67.898438 170.535156 69.640625 172.277344 71.78125 172.28125 L 112.421875 172.28125 L 112.421875 171.464844 " fill-opacity="1" fill-rule="nonzero"/><path fill="#f8d386" d="M 91.128906 38.054688 C 91.128906 38.054688 54.742188 54.511719 67.738281 95.226562 C 80.730469 135.941406 88.367188 152.398438 88.367188 152.398438 L 75.359375 152.398438 L 52.46875 93.066406 C 52.46875 93.066406 46.816406 74.746094 57.34375 57.546875 C 67.867188 40.347656 91.128906 38.054688 91.128906 38.054688 " fill-opacity="1" fill-rule="nonzero"/><path fill="#4a9194" d="M 111.214844 157.980469 L 96.652344 157.980469 C 97.621094 158.960938 98.601562 159.929688 99.574219 160.90625 L 111.214844 160.90625 C 112.019531 160.90625 112.675781 160.25 112.675781 159.441406 C 112.675781 158.640625 112.019531 157.980469 111.214844 157.980469 " fill-opacity="1" fill-rule="nonzero"/><path fill="#4a9194" d="M 111.214844 165.996094 L 96.652344 165.996094 C 97.621094 166.972656 98.601562 167.945312 99.574219 168.917969 L 111.214844 168.917969 C 112.019531 168.917969 112.675781 168.261719 112.675781 167.457031 C 112.675781 166.652344 112.019531 165.996094 111.214844 165.996094 " fill-opacity="1" fill-rule="nonzero"/><path fill="#4a9194" d="M 96.652344 173.898438 C 96.652344 173.898438 101.847656 179.53125 93.074219 183.917969 C 93.074219 183.917969 102.984375 183.050781 107.585938 173.898438 L 96.652344 173.898438 " fill-opacity="1" fill-rule="nonzero"/><path fill="#1d1d1b" d="M 77.835938 118.023438 C 77.09375 117.867188 76.359375 117.683594 75.761719 117.453125 C 75.273438 117.269531 74.554688 116.835938 74.027344 116.453125 C 72.90625 115.628906 71.980469 114.589844 71.429688 113.433594 C 71.144531 112.839844 70.976562 112.234375 71 111.917969 C 71.609375 112.105469 73.15625 112.996094 74.089844 113.632812 C 75.769531 114.726562 77.003906 116.257812 77.992188 118.046875 C 77.941406 118.039062 77.886719 118.035156 77.835938 118.023438 Z M 106.453125 114.390625 C 106.800781 114.269531 107.507812 114.242188 107.820312 114.371094 C 108.191406 114.523438 108.050781 114.515625 108.074219 114.554688 C 108.097656 114.589844 107.957031 115.066406 107.578125 115.488281 C 107.488281 115.597656 107.386719 115.699219 107.285156 115.804688 C 107.191406 115.867188 107.113281 115.933594 107.027344 116.007812 C 106.796875 116.15625 106.539062 116.304688 106.230469 116.445312 C 105.683594 116.683594 105.085938 116.882812 104.480469 117.070312 C 105.003906 115.742188 105.894531 114.5 106.453125 114.390625 Z M 83.414062 139.976562 C 84.226562 145.070312 84.84375 150.199219 85.5 155.332031 L 85.992188 155.332031 C 85.878906 150.140625 85.640625 144.960938 85.320312 139.765625 C 85.078125 136.429688 84.742188 133.09375 84.292969 129.757812 C 83.96875 127.367188 83.550781 124.980469 82.957031 122.597656 C 84.425781 122.703125 85.890625 122.765625 87.355469 122.796875 C 90.761719 122.832031 94.160156 122.667969 97.5625 122.296875 C 98.332031 122.210938 99.097656 122.109375 99.867188 121.996094 C 98.875 128.457031 98.839844 134.867188 98.945312 141.257812 C 99.132812 145.960938 99.390625 150.65625 99.835938 155.332031 L 100.511719 155.332031 C 100.539062 150.640625 100.632812 145.953125 100.917969 141.28125 C 101.265625 134.671875 101.742188 128.007812 103.074219 121.679688 C 103.097656 121.582031 103.125 121.492188 103.148438 121.398438 C 104.707031 121.046875 106.273438 120.644531 107.890625 119.859375 C 108.332031 119.644531 108.789062 119.367188 109.25 119.039062 C 109.480469 118.851562 109.71875 118.644531 109.941406 118.441406 C 110.128906 118.242188 110.3125 118.042969 110.480469 117.820312 C 111.125 116.960938 111.835938 115.851562 111.710938 114.199219 C 111.632812 113.394531 111.269531 112.601562 110.695312 112.015625 C 110.121094 111.417969 109.433594 111.101562 108.808594 110.925781 C 107.519531 110.609375 106.488281 110.683594 105.261719 111.089844 C 103.9375 111.59375 103.144531 112.535156 102.578125 113.371094 C 102.003906 114.230469 101.621094 115.09375 101.300781 115.953125 C 101.058594 116.613281 100.867188 117.269531 100.691406 117.925781 C 99.515625 118.121094 98.324219 118.285156 97.148438 118.410156 C 93.925781 118.738281 90.65625 118.84375 87.402344 118.808594 C 85.507812 118.789062 83.605469 118.710938 81.738281 118.542969 C 81.265625 117.289062 80.6875 116.046875 79.941406 114.855469 C 78.972656 113.269531 77.578125 111.863281 76.09375 110.800781 C 75.351562 110.257812 74.59375 109.792969 73.859375 109.355469 C 73.082031 108.933594 72.183594 108.273438 70.542969 108.28125 C 69.714844 108.269531 68.648438 108.8125 68.144531 109.5 C 67.585938 110.191406 67.375 111.003906 67.324219 111.671875 C 67.246094 113.03125 67.625 114.054688 68.007812 114.976562 C 68.832031 116.863281 70.1875 118.394531 71.738281 119.546875 C 72.558594 120.132812 73.261719 120.601562 74.316406 121.042969 C 75.269531 121.421875 76.15625 121.636719 77.042969 121.839844 C 77.957031 122.019531 78.867188 122.164062 79.769531 122.285156 C 80.597656 124.828125 81.191406 127.503906 81.75 130.1875 C 82.410156 133.414062 82.921875 136.691406 83.414062 139.976562 " fill-opacity="1" fill-rule="nonzero"/><path fill="#1d1d1b" d="M 123.601562 107.179688 L 119.925781 118.167969 L 116.167969 129.128906 C 114.90625 132.777344 113.78125 136.476562 112.339844 140.0625 C 110.90625 143.648438 109.414062 147.214844 107.664062 150.683594 L 107.550781 150.71875 L 107.507812 150.628906 C 108.414062 146.847656 109.578125 143.160156 110.804688 139.5 C 112.019531 135.832031 113.546875 132.28125 114.941406 128.679688 L 119.15625 117.886719 L 123.449219 107.125 L 123.554688 107.078125 L 123.601562 107.179688 " fill-opacity="1" fill-rule="nonzero"/><path fill="#1d1d1b" d="M 72.359375 159.363281 C 74.003906 158.910156 75.648438 158.738281 77.296875 158.625 C 78.941406 158.507812 80.585938 158.71875 82.230469 158.789062 L 87.167969 159.035156 C 88.8125 159.144531 90.457031 159.230469 92.101562 159.363281 L 92.175781 159.449219 L 92.101562 159.523438 C 90.457031 159.65625 88.8125 159.742188 87.167969 159.851562 L 82.230469 160.097656 C 80.585938 160.167969 78.941406 160.378906 77.296875 160.261719 C 75.648438 160.152344 74.003906 159.976562 72.359375 159.523438 L 72.300781 159.421875 L 72.359375 159.363281 " fill-opacity="1" fill-rule="nonzero"/><path fill="#1d1d1b" d="M 72.359375 167.375 C 74.15625 166.925781 75.953125 166.75 77.75 166.640625 C 79.546875 166.519531 81.339844 166.730469 83.136719 166.800781 L 88.527344 167.046875 C 90.324219 167.15625 92.121094 167.246094 93.917969 167.375 L 93.992188 167.460938 L 93.917969 167.539062 C 92.121094 167.667969 90.324219 167.753906 88.527344 167.863281 L 83.136719 168.109375 C 81.339844 168.183594 79.546875 168.394531 77.75 168.273438 C 75.953125 168.164062 74.15625 167.988281 72.359375 167.539062 L 72.296875 167.4375 L 72.359375 167.375 " fill-opacity="1" fill-rule="nonzero"/><path fill="#1d1d1b" d="M 77.425781 173.855469 C 78.507812 174.605469 79.421875 175.425781 80.324219 176.253906 C 81.238281 177.066406 81.960938 178.058594 82.847656 178.90625 C 83.734375 179.75 84.683594 180.515625 85.679688 181.234375 C 86.679688 181.953125 87.769531 182.53125 88.910156 183.042969 L 88.914062 183.042969 L 88.953125 183.152344 L 88.863281 183.199219 C 87.628906 182.929688 86.417969 182.496094 85.265625 181.941406 C 84.125 181.359375 83.023438 180.683594 82.003906 179.90625 C 80.984375 179.132812 79.90625 178.386719 79.121094 177.359375 C 78.730469 176.851562 78.359375 176.324219 78.050781 175.753906 C 77.734375 175.191406 77.460938 174.597656 77.289062 173.945312 L 77.351562 173.839844 L 77.425781 173.855469 " fill-opacity="1" fill-rule="nonzero"/><path fill="#1d1d1b" d="M 137.0625 76.480469 C 137.480469 75.785156 137.671875 75.011719 137.753906 74.257812 C 137.835938 73.496094 137.78125 72.734375 137.664062 71.980469 C 137.625 71.601562 137.511719 71.226562 137.445312 70.851562 L 137.15625 69.726562 L 136.824219 68.597656 L 136.441406 67.464844 L 136.40625 67.363281 C 136.285156 66.996094 136.480469 66.601562 136.84375 66.476562 L 136.929688 66.453125 C 139.09375 66.019531 141.246094 65.542969 143.402344 65.089844 C 144.476562 64.855469 145.5625 64.652344 146.644531 64.429688 L 149.890625 63.792969 L 149.988281 63.859375 L 149.933594 63.953125 L 146.78125 64.960938 C 145.726562 65.289062 144.679688 65.636719 143.621094 65.949219 C 141.515625 66.59375 139.402344 67.214844 137.296875 67.878906 L 137.785156 66.867188 L 138.339844 68.035156 C 138.503906 68.429688 138.644531 68.84375 138.789062 69.253906 C 139.023438 70.09375 139.191406 70.964844 139.191406 71.863281 C 139.214844 72.75 139.089844 73.664062 138.769531 74.507812 C 138.441406 75.34375 137.933594 76.140625 137.167969 76.605469 L 137.054688 76.578125 L 137.054688 76.492188 L 137.0625 76.480469 " fill-opacity="1" fill-rule="nonzero"/><path fill="#1d1d1b" d="M 133.167969 28.0625 C 133.835938 27.773438 134.511719 27.535156 135.183594 27.269531 C 135.859375 27.015625 136.539062 26.777344 137.222656 26.550781 C 137.902344 26.328125 138.554688 25.960938 139.277344 25.917969 C 139.636719 25.886719 140 25.878906 140.375 25.917969 C 140.75 25.949219 141.128906 26.011719 141.53125 26.160156 C 141.582031 26.179688 141.605469 26.234375 141.585938 26.285156 L 141.566406 26.320312 C 141.269531 26.628906 140.953125 26.847656 140.628906 27.039062 C 140.308594 27.234375 139.976562 27.386719 139.640625 27.511719 C 138.96875 27.789062 138.222656 27.738281 137.511719 27.828125 C 136.800781 27.921875 136.085938 28 135.367188 28.066406 C 134.644531 28.113281 133.929688 28.191406 133.203125 28.222656 L 133.117188 28.140625 L 133.167969 28.0625 " fill-opacity="1" fill-rule="nonzero"/><path fill="#1d1d1b" d="M 124.105469 20.457031 C 124.535156 20.464844 124.953125 20.527344 125.367188 20.648438 C 125.578125 20.699219 125.777344 20.78125 125.984375 20.847656 C 126.183594 20.941406 126.390625 21.023438 126.585938 21.128906 C 127.363281 21.554688 128.058594 22.21875 128.511719 23.050781 C 128.945312 23.871094 129.3125 24.808594 129.179688 25.730469 C 129.125 26.183594 128.984375 26.617188 128.824219 27.035156 C 128.617188 27.433594 128.386719 27.824219 128.070312 28.164062 L 127.9375 28.167969 L 127.914062 28.128906 L 127.914062 28.117188 C 127.773438 27.660156 127.714844 27.246094 127.6875 26.847656 C 127.605469 26.449219 127.589844 26.070312 127.546875 25.707031 C 127.476562 25.347656 127.503906 24.988281 127.46875 24.644531 C 127.480469 24.28125 127.40625 23.941406 127.320312 23.59375 C 127.09375 22.925781 126.679688 22.3125 126.117188 21.800781 C 125.566406 21.273438 124.84375 20.890625 124.085938 20.621094 L 124.078125 20.617188 L 124.027344 20.511719 L 124.105469 20.457031 " fill-opacity="1" fill-rule="nonzero"/><path fill="#1d1d1b" d="M 78.613281 63.882812 C 78.53125 65.484375 78.746094 67.101562 79.242188 68.597656 C 79.746094 70.09375 80.578125 71.453125 81.710938 72.476562 C 82.839844 73.511719 84.25 74.183594 85.738281 74.546875 C 87.230469 74.925781 88.792969 74.953125 90.347656 74.933594 C 90.816406 74.925781 91.203125 75.300781 91.207031 75.765625 L 91.207031 75.785156 C 91.207031 76.523438 91.195312 77.261719 91.152344 78 C 91.117188 78.738281 91.074219 79.480469 91.011719 80.21875 C 90.953125 80.957031 90.882812 81.695312 90.785156 82.433594 C 90.695312 83.175781 90.589844 83.914062 90.4375 84.652344 L 90.339844 84.71875 L 90.277344 84.652344 C 90.125 83.914062 90.019531 83.175781 89.929688 82.433594 C 89.832031 81.695312 89.761719 80.957031 89.703125 80.21875 C 89.640625 79.480469 89.597656 78.738281 89.5625 78 C 89.523438 77.261719 89.507812 76.523438 89.507812 75.785156 L 90.367188 76.636719 C 88.683594 76.644531 86.988281 76.355469 85.363281 75.835938 C 83.746094 75.3125 82.195312 74.441406 81.011719 73.195312 C 79.8125 71.960938 79.023438 70.390625 78.644531 68.769531 C 78.261719 67.148438 78.1875 65.480469 78.449219 63.859375 L 78.542969 63.792969 L 78.613281 63.878906 L 78.613281 63.882812 " fill-opacity="1" fill-rule="nonzero"/><path fill="#eb9f18" d="M 93.074219 28.679688 C 94.824219 28.679688 96.253906 3.996094 96.253906 3.996094 C 96.253906 2.25 94.824219 0.820312 93.074219 0.820312 C 91.328125 0.820312 89.898438 2.25 89.898438 3.996094 C 89.898438 3.996094 91.328125 28.679688 93.074219 28.679688 " fill-opacity="1" fill-rule="nonzero"/><path fill="#1d1d1b" d="M 93.074219 28.679688 L 93.074219 29.496094 C 93.222656 29.496094 93.367188 29.460938 93.484375 29.410156 C 93.71875 29.304688 93.855469 29.160156 93.960938 29.03125 C 94.160156 28.769531 94.269531 28.503906 94.390625 28.179688 C 94.601562 27.578125 94.785156 26.789062 94.964844 25.824219 C 95.585938 22.472656 96.105469 17.046875 96.480469 12.4375 C 96.851562 7.828125 97.070312 4.046875 97.070312 4.042969 L 97.070312 3.996094 C 97.066406 1.792969 95.277344 0.00390625 93.074219 0 C 90.875 0.00390625 89.085938 1.792969 89.082031 3.996094 L 89.082031 4.042969 C 89.082031 4.046875 89.441406 10.222656 90.019531 16.414062 C 90.308594 19.507812 90.652344 22.605469 91.035156 24.953125 C 91.230469 26.132812 91.429688 27.117188 91.65625 27.855469 C 91.773438 28.230469 91.886719 28.539062 92.046875 28.816406 C 92.132812 28.957031 92.226562 29.089844 92.378906 29.226562 C 92.453125 29.292969 92.550781 29.359375 92.667969 29.410156 C 92.785156 29.460938 92.929688 29.496094 93.074219 29.496094 L 93.074219 27.859375 L 93.074219 28.472656 L 93.320312 27.914062 C 93.257812 27.882812 93.167969 27.859375 93.074219 27.859375 L 93.074219 28.472656 L 93.320312 27.914062 L 93.125 28.367188 L 93.449219 27.988281 C 93.425781 27.96875 93.386719 27.9375 93.320312 27.914062 L 93.125 28.367188 L 93.449219 27.988281 L 93.300781 28.160156 L 93.476562 28.019531 L 93.449219 27.988281 L 93.300781 28.160156 L 93.476562 28.019531 C 93.472656 28.019531 93.382812 27.867188 93.304688 27.632812 C 93.144531 27.1875 92.964844 26.449219 92.796875 25.535156 C 92.199219 22.3125 91.671875 16.894531 91.304688 12.308594 C 91.117188 10.011719 90.972656 7.921875 90.871094 6.40625 C 90.820312 5.648438 90.78125 5.03125 90.753906 4.609375 C 90.730469 4.183594 90.714844 3.949219 90.714844 3.949219 L 89.898438 3.996094 L 90.714844 3.996094 C 90.714844 3.347656 90.980469 2.761719 91.410156 2.332031 C 91.839844 1.898438 92.429688 1.636719 93.074219 1.636719 C 93.726562 1.636719 94.3125 1.898438 94.742188 2.332031 C 95.171875 2.761719 95.433594 3.347656 95.4375 3.996094 L 96.253906 3.996094 L 95.4375 3.949219 C 95.4375 3.949219 95.414062 4.332031 95.371094 5.003906 C 95.222656 7.359375 94.828125 13.261719 94.28125 18.554688 C 94.007812 21.199219 93.695312 23.699219 93.363281 25.503906 C 93.195312 26.402344 93.023438 27.136719 92.863281 27.589844 C 92.789062 27.816406 92.710938 27.972656 92.679688 28.007812 L 92.675781 28.019531 L 92.785156 28.101562 L 92.6875 28.003906 L 92.675781 28.019531 L 92.785156 28.101562 L 92.6875 28.003906 L 93.003906 28.324219 L 92.804688 27.921875 C 92.738281 27.957031 92.703125 27.988281 92.6875 28.003906 L 93.003906 28.324219 L 92.804688 27.921875 L 93.074219 28.46875 L 93.074219 27.859375 C 92.96875 27.859375 92.867188 27.890625 92.804688 27.921875 L 93.074219 28.46875 L 93.074219 27.859375 L 93.074219 28.679688 " fill-opacity="1" fill-rule="nonzero"/><path fill="#eb9f18" d="M 67.082031 35.226562 C 68.714844 34.605469 61.273438 11.027344 61.273438 11.027344 C 60.652344 9.394531 58.808594 8.566406 57.171875 9.1875 C 55.539062 9.808594 54.710938 11.65625 55.335938 13.289062 C 55.335938 13.289062 65.445312 35.847656 67.082031 35.226562 " fill-opacity="1" fill-rule="nonzero"/><path fill="#1d1d1b" d="M 67.082031 35.226562 L 67.371094 35.992188 C 67.59375 35.90625 67.761719 35.75 67.859375 35.605469 C 68.007812 35.382812 68.050781 35.191406 68.089844 35 C 68.121094 34.8125 68.132812 34.621094 68.132812 34.414062 C 68.128906 33.792969 68.027344 33.003906 67.859375 32.046875 C 67.269531 28.726562 65.820312 23.433594 64.515625 18.941406 C 63.210938 14.453125 62.054688 10.785156 62.050781 10.78125 L 62.035156 10.738281 C 61.429688 9.144531 59.90625 8.164062 58.296875 8.164062 C 57.824219 8.164062 57.34375 8.246094 56.882812 8.425781 C 55.289062 9.03125 54.308594 10.554688 54.308594 12.164062 C 54.308594 12.636719 54.394531 13.117188 54.570312 13.578125 L 54.589844 13.621094 C 54.589844 13.625 57.050781 19.117188 59.75 24.625 C 61.097656 27.375 62.503906 30.128906 63.703125 32.214844 C 64.300781 33.261719 64.847656 34.136719 65.324219 34.78125 C 65.566406 35.109375 65.785156 35.375 66.019531 35.589844 C 66.136719 35.703125 66.257812 35.800781 66.40625 35.886719 C 66.558594 35.96875 66.746094 36.054688 67.007812 36.058594 C 67.125 36.058594 67.25 36.039062 67.367188 35.992188 L 67.371094 35.992188 L 66.792969 34.460938 L 67.007812 35.039062 L 67.007812 34.421875 C 66.945312 34.421875 66.863281 34.433594 66.792969 34.460938 L 67.007812 35.039062 L 67.007812 34.421875 L 67.007812 34.835938 L 67.222656 34.46875 C 67.214844 34.46875 67.160156 34.425781 67.007812 34.421875 L 67.007812 34.835938 L 67.222656 34.46875 L 67.21875 34.464844 C 67.183594 34.449219 67.042969 34.320312 66.875 34.117188 C 66.558594 33.734375 66.125 33.089844 65.640625 32.285156 C 63.929688 29.457031 61.527344 24.601562 59.566406 20.480469 C 58.585938 18.417969 57.714844 16.535156 57.085938 15.167969 C 56.773438 14.484375 56.523438 13.929688 56.347656 13.546875 C 56.175781 13.164062 56.082031 12.953125 56.078125 12.953125 L 55.335938 13.285156 L 56.097656 12.996094 C 55.992188 12.722656 55.945312 12.441406 55.945312 12.164062 C 55.945312 11.210938 56.527344 10.304688 57.464844 9.953125 C 57.738281 9.847656 58.019531 9.796875 58.296875 9.796875 C 59.246094 9.796875 60.15625 10.382812 60.507812 11.316406 L 61.273438 11.027344 L 60.492188 11.273438 C 60.492188 11.273438 60.585938 11.570312 60.75 12.101562 C 61.328125 13.957031 62.773438 18.664062 64.070312 23.359375 C 64.71875 25.707031 65.328125 28.050781 65.777344 30.027344 C 66 31.015625 66.183594 31.914062 66.308594 32.664062 C 66.433594 33.417969 66.5 34.03125 66.496094 34.414062 C 66.5 34.605469 66.476562 34.734375 66.472656 34.753906 L 66.8125 34.871094 L 66.53125 34.652344 C 66.484375 34.710938 66.472656 34.746094 66.472656 34.753906 L 66.8125 34.871094 L 66.53125 34.652344 L 67.003906 35.019531 L 66.789062 34.464844 C 66.667969 34.507812 66.574219 34.59375 66.53125 34.652344 L 67.003906 35.019531 L 66.789062 34.464844 L 66.792969 34.460938 L 67.082031 35.226562 " fill-opacity="1" fill-rule="nonzero"/><path fill="#eb9f18" d="M 43.480469 66.84375 C 43.265625 65.109375 18.59375 66.714844 18.59375 66.714844 C 16.859375 66.929688 15.613281 68.523438 15.828125 70.257812 C 16.042969 71.992188 17.636719 73.238281 19.371094 73.023438 C 19.371094 73.023438 43.695312 68.578125 43.480469 66.84375 " fill-opacity="1" fill-rule="nonzero"/><g clip-path="url(#27057993da)"><path fill="#1d1d1b" d="M 43.480469 66.84375 L 44.289062 66.746094 C 44.265625 66.535156 44.171875 66.351562 44.070312 66.226562 C 43.875 65.988281 43.675781 65.890625 43.484375 65.804688 C 43.144531 65.660156 42.765625 65.578125 42.304688 65.503906 C 40.929688 65.292969 38.816406 65.222656 36.351562 65.222656 C 28.953125 65.222656 18.550781 65.898438 18.539062 65.898438 L 18.492188 65.90625 C 16.472656 66.15625 14.988281 67.878906 14.988281 69.867188 C 14.988281 70.03125 14.996094 70.195312 15.019531 70.359375 C 15.269531 72.378906 16.992188 73.863281 18.984375 73.863281 C 19.144531 73.863281 19.308594 73.851562 19.472656 73.832031 L 19.519531 73.828125 C 19.523438 73.824219 25.554688 72.722656 31.601562 71.398438 C 34.625 70.738281 37.648438 70.019531 39.941406 69.351562 C 41.089844 69.015625 42.054688 68.695312 42.773438 68.382812 C 43.132812 68.222656 43.429688 68.074219 43.691406 67.886719 C 43.820312 67.789062 43.945312 67.6875 44.0625 67.535156 C 44.175781 67.386719 44.296875 67.164062 44.296875 66.867188 L 44.292969 66.773438 L 44.289062 66.746094 L 43.480469 66.84375 L 42.664062 66.914062 L 43.21875 66.867188 L 42.664062 66.867188 L 42.664062 66.914062 L 43.21875 66.867188 L 42.664062 66.867188 L 43.1875 66.867188 L 42.761719 66.542969 C 42.742188 66.570312 42.664062 66.679688 42.664062 66.867188 L 43.1875 66.867188 L 42.761719 66.542969 L 42.925781 66.667969 L 42.773438 66.527344 L 42.761719 66.542969 L 42.925781 66.667969 L 42.773438 66.527344 C 42.753906 66.550781 42.601562 66.660156 42.367188 66.769531 C 41.925781 66.988281 41.203125 67.253906 40.304688 67.535156 C 37.15625 68.523438 31.867188 69.699219 27.386719 70.621094 C 25.144531 71.082031 23.105469 71.484375 21.625 71.765625 C 20.882812 71.910156 20.28125 72.019531 19.867188 72.097656 C 19.453125 72.175781 19.226562 72.21875 19.226562 72.21875 L 19.371094 73.023438 L 19.273438 72.210938 C 19.171875 72.222656 19.078125 72.226562 18.984375 72.226562 C 17.816406 72.230469 16.78125 71.34375 16.640625 70.160156 L 16.640625 70.15625 C 16.628906 70.058594 16.621094 69.964844 16.621094 69.867188 C 16.621094 68.703125 17.507812 67.667969 18.691406 67.527344 L 18.59375 66.714844 L 18.644531 67.53125 C 18.648438 67.53125 19.292969 67.488281 20.378906 67.425781 C 23.644531 67.238281 30.867188 66.855469 36.351562 66.855469 C 38.320312 66.855469 40.070312 66.90625 41.296875 67.027344 C 41.90625 67.085938 42.390625 67.167969 42.667969 67.246094 C 42.734375 67.265625 42.789062 67.285156 42.824219 67.300781 L 42.875 67.324219 L 42.875 67.320312 L 42.871094 67.324219 L 42.875 67.324219 L 42.875 67.320312 L 42.871094 67.324219 L 43.070312 67.019531 L 42.789062 67.242188 C 42.835938 67.300781 42.867188 67.320312 42.871094 67.324219 L 43.070312 67.019531 L 42.789062 67.242188 L 43.261719 66.871094 L 42.667969 66.945312 C 42.683594 67.074219 42.742188 67.183594 42.789062 67.242188 L 43.261719 66.871094 L 42.667969 66.945312 L 43.480469 66.84375 L 42.664062 66.914062 L 43.480469 66.84375 " fill-opacity="1" fill-rule="nonzero"/></g><path fill="#eb9f18" d="M 141.851562 90.210938 C 141.105469 91.789062 162.828125 103.597656 162.828125 103.597656 C 164.410156 104.339844 166.3125 103.65625 167.058594 102.074219 C 167.800781 100.496094 167.117188 98.59375 165.535156 97.847656 C 165.535156 97.847656 142.59375 88.628906 141.851562 90.210938 " fill-opacity="1" fill-rule="nonzero"/><path fill="#1d1d1b" d="M 141.851562 90.210938 L 141.113281 89.859375 C 141.042969 90.003906 141.011719 90.160156 141.015625 90.296875 C 141.015625 90.546875 141.089844 90.730469 141.164062 90.878906 C 141.316406 91.164062 141.511719 91.378906 141.753906 91.625 C 142.210938 92.074219 142.851562 92.578125 143.648438 93.148438 C 146.425781 95.140625 151.105469 97.917969 155.113281 100.214844 C 159.117188 102.511719 162.433594 104.3125 162.4375 104.316406 L 162.480469 104.339844 C 163.027344 104.59375 163.605469 104.71875 164.171875 104.714844 C 165.671875 104.71875 167.113281 103.871094 167.796875 102.425781 C 168.054688 101.878906 168.175781 101.300781 168.175781 100.734375 C 168.175781 99.234375 167.328125 97.792969 165.882812 97.109375 L 165.839844 97.089844 C 165.835938 97.089844 160.964844 95.132812 155.628906 93.171875 C 152.960938 92.191406 150.175781 91.210938 147.816406 90.46875 C 146.636719 90.101562 145.5625 89.789062 144.65625 89.570312 C 144.199219 89.460938 143.785156 89.371094 143.414062 89.308594 C 143.042969 89.25 142.71875 89.210938 142.417969 89.210938 C 142.210938 89.210938 142.015625 89.222656 141.796875 89.292969 C 141.683594 89.328125 141.5625 89.378906 141.4375 89.46875 C 141.316406 89.554688 141.1875 89.691406 141.109375 89.863281 L 141.113281 89.859375 L 141.851562 90.210938 L 142.589844 90.554688 L 142.042969 90.300781 L 142.398438 90.789062 C 142.460938 90.75 142.539062 90.664062 142.589844 90.554688 L 142.042969 90.300781 L 142.398438 90.789062 L 142.136719 90.429688 L 142.300781 90.847656 L 142.398438 90.789062 L 142.136719 90.429688 L 142.300781 90.847656 L 142.230469 90.675781 L 142.273438 90.855469 L 142.300781 90.847656 L 142.230469 90.675781 L 142.273438 90.855469 C 142.273438 90.855469 142.328125 90.84375 142.417969 90.84375 C 142.574219 90.84375 142.832031 90.867188 143.144531 90.921875 C 144.339844 91.121094 146.367188 91.703125 148.675781 92.464844 C 152.144531 93.605469 156.289062 95.140625 159.558594 96.394531 C 161.195312 97.019531 162.613281 97.570312 163.621094 97.96875 C 164.128906 98.167969 164.527344 98.328125 164.804688 98.4375 C 165.082031 98.546875 165.230469 98.605469 165.230469 98.605469 L 165.535156 97.847656 L 165.1875 98.589844 C 166.035156 98.988281 166.539062 99.84375 166.539062 100.734375 C 166.539062 101.066406 166.46875 101.40625 166.316406 101.730469 C 165.917969 102.578125 165.0625 103.082031 164.171875 103.082031 C 163.835938 103.082031 163.5 103.011719 163.175781 102.859375 L 162.828125 103.597656 L 163.21875 102.878906 C 163.21875 102.878906 162.890625 102.703125 162.320312 102.386719 C 160.316406 101.285156 155.296875 98.5 150.792969 95.792969 C 148.542969 94.4375 146.417969 93.101562 144.875 92.015625 C 144.109375 91.476562 143.484375 90.992188 143.078125 90.628906 C 142.878906 90.445312 142.734375 90.289062 142.664062 90.195312 L 142.625 90.144531 L 142.617188 90.128906 L 142.4375 90.21875 L 142.628906 90.164062 L 142.617188 90.128906 L 142.4375 90.21875 L 142.628906 90.164062 L 142.167969 90.296875 L 142.648438 90.296875 C 142.648438 90.234375 142.636719 90.191406 142.628906 90.164062 L 142.167969 90.296875 L 142.648438 90.296875 L 142.035156 90.296875 L 142.589844 90.558594 C 142.632812 90.46875 142.648438 90.371094 142.648438 90.296875 L 142.035156 90.296875 L 142.589844 90.558594 L 142.589844 90.554688 L 141.851562 90.210938 " fill-opacity="1" fill-rule="nonzero"/><path fill="#eb9f18" d="M 137.542969 105.523438 C 135.972656 106.292969 145.542969 129.085938 145.542969 129.085938 C 146.3125 130.65625 148.226562 131.3125 149.792969 130.542969 C 151.363281 129.773438 152.019531 127.863281 151.25 126.292969 C 151.25 126.292969 139.109375 104.753906 137.542969 105.523438 " fill-opacity="1" fill-rule="nonzero"/><path fill="#1d1d1b" d="M 137.542969 105.523438 L 137.179688 104.789062 C 137.019531 104.867188 136.886719 104.988281 136.800781 105.109375 C 136.671875 105.292969 136.621094 105.460938 136.589844 105.613281 C 136.558594 105.765625 136.550781 105.910156 136.550781 106.058594 C 136.550781 106.355469 136.589844 106.679688 136.652344 107.042969 C 136.898438 108.410156 137.523438 110.4375 138.328125 112.773438 C 140.742188 119.769531 144.789062 129.394531 144.789062 129.402344 L 144.808594 129.449219 C 145.503906 130.863281 146.929688 131.683594 148.40625 131.683594 C 148.996094 131.683594 149.59375 131.550781 150.152344 131.277344 C 151.570312 130.582031 152.390625 129.15625 152.390625 127.679688 C 152.390625 127.09375 152.257812 126.492188 151.984375 125.933594 L 151.960938 125.890625 C 151.960938 125.886719 149.027344 120.683594 145.851562 115.472656 C 144.261719 112.867188 142.617188 110.257812 141.230469 108.28125 C 140.539062 107.292969 139.914062 106.464844 139.375 105.855469 C 139.105469 105.550781 138.859375 105.296875 138.609375 105.097656 C 138.484375 105 138.359375 104.910156 138.207031 104.832031 C 138.058594 104.757812 137.878906 104.6875 137.632812 104.6875 C 137.496094 104.683594 137.332031 104.714844 137.179688 104.789062 L 137.542969 105.523438 L 137.902344 106.253906 L 137.632812 105.707031 L 137.632812 106.320312 C 137.703125 106.320312 137.804688 106.304688 137.902344 106.253906 L 137.632812 105.707031 L 137.632812 106.320312 L 137.632812 105.847656 L 137.5 106.304688 C 137.527344 106.308594 137.570312 106.320312 137.632812 106.320312 L 137.632812 105.847656 L 137.5 106.304688 L 137.550781 106.132812 L 137.46875 106.292969 L 137.5 106.304688 L 137.550781 106.132812 L 137.46875 106.292969 C 137.484375 106.296875 137.632812 106.398438 137.8125 106.574219 C 138.15625 106.914062 138.644531 107.503906 139.199219 108.253906 C 141.15625 110.894531 144.003906 115.523438 146.347656 119.46875 C 147.519531 121.441406 148.566406 123.25 149.324219 124.5625 C 149.699219 125.21875 150.003906 125.753906 150.214844 126.121094 C 150.421875 126.492188 150.539062 126.695312 150.539062 126.695312 L 151.25 126.292969 L 150.515625 126.652344 C 150.679688 126.984375 150.753906 127.332031 150.753906 127.679688 C 150.753906 128.558594 150.265625 129.402344 149.4375 129.808594 C 149.101562 129.972656 148.753906 130.046875 148.40625 130.046875 C 147.53125 130.046875 146.683594 129.558594 146.277344 128.726562 L 145.542969 129.085938 L 146.296875 128.773438 C 146.296875 128.769531 146.171875 128.46875 145.949219 127.929688 C 145.167969 126.046875 143.214844 121.285156 141.457031 116.613281 C 140.582031 114.28125 139.753906 111.96875 139.148438 110.058594 C 138.847656 109.105469 138.601562 108.253906 138.433594 107.558594 C 138.265625 106.867188 138.179688 106.316406 138.183594 106.058594 L 138.191406 105.953125 L 138.191406 105.941406 L 137.84375 105.855469 L 138.140625 106.046875 C 138.183594 105.980469 138.191406 105.945312 138.191406 105.941406 L 137.84375 105.855469 L 138.140625 106.046875 L 137.640625 105.722656 L 137.902344 106.257812 C 138.019531 106.199219 138.101562 106.109375 138.140625 106.046875 L 137.640625 105.722656 L 137.902344 106.257812 L 137.902344 106.253906 L 137.542969 105.523438 " fill-opacity="1" fill-rule="nonzero"/><g clip-path="url(#d6eb546eff)"><path fill="#eb9f18" d="M 149.914062 75.550781 C 150.195312 77.273438 174.785156 74.675781 174.785156 74.675781 C 176.507812 74.390625 177.6875 72.75 177.402344 71.023438 C 177.121094 69.300781 175.476562 68.121094 173.753906 68.40625 C 173.753906 68.40625 149.628906 73.824219 149.914062 75.550781 " fill-opacity="1" fill-rule="nonzero"/></g><g clip-path="url(#2b93e00d74)"><path fill="#1d1d1b" d="M 149.914062 75.550781 L 149.109375 75.683594 C 149.128906 75.828125 149.1875 75.964844 149.257812 76.070312 C 149.394531 76.273438 149.546875 76.382812 149.6875 76.464844 C 149.9375 76.605469 150.175781 76.671875 150.453125 76.730469 C 150.863281 76.820312 151.351562 76.871094 151.929688 76.90625 C 152.503906 76.941406 153.167969 76.957031 153.894531 76.957031 C 157.460938 76.957031 162.6875 76.589844 167.042969 76.222656 C 171.398438 75.855469 174.867188 75.488281 174.871094 75.488281 L 174.917969 75.484375 C 175.894531 75.324219 176.734375 74.8125 177.324219 74.109375 C 177.914062 73.40625 178.265625 72.5 178.265625 71.539062 C 178.265625 71.324219 178.246094 71.109375 178.210938 70.894531 L 178.210938 70.890625 C 177.886719 68.9375 176.191406 67.546875 174.269531 67.546875 C 174.054688 67.546875 173.839844 67.5625 173.621094 67.601562 L 173.574219 67.609375 C 173.566406 67.609375 167.601562 68.949219 161.625 70.511719 C 158.636719 71.292969 155.644531 72.132812 153.375 72.890625 C 152.242188 73.273438 151.289062 73.632812 150.582031 73.972656 C 150.222656 74.144531 149.929688 74.308594 149.679688 74.503906 C 149.550781 74.605469 149.429688 74.710938 149.320312 74.863281 C 149.214844 75.011719 149.097656 75.226562 149.09375 75.519531 C 149.09375 75.566406 149.097656 75.628906 149.113281 75.707031 L 149.914062 75.550781 L 149.109375 75.683594 L 149.914062 75.550781 L 150.714844 75.390625 L 150.070312 75.519531 L 150.730469 75.519531 C 150.730469 75.496094 150.726562 75.449219 150.714844 75.390625 L 150.070312 75.519531 L 150.730469 75.519531 L 150.21875 75.519531 L 150.640625 75.828125 C 150.65625 75.804688 150.726562 75.703125 150.730469 75.519531 L 150.21875 75.519531 L 150.640625 75.828125 L 150.503906 75.726562 L 150.628906 75.839844 L 150.640625 75.828125 L 150.503906 75.726562 L 150.628906 75.839844 L 150.632812 75.835938 C 150.660156 75.808594 150.8125 75.691406 151.042969 75.570312 C 151.480469 75.335938 152.199219 75.039062 153.085938 74.722656 C 156.199219 73.609375 161.429688 72.222656 165.859375 71.121094 C 168.078125 70.570312 170.09375 70.09375 171.558594 69.75 C 172.292969 69.578125 172.886719 69.441406 173.296875 69.347656 C 173.707031 69.253906 173.933594 69.203125 173.933594 69.203125 L 173.753906 68.40625 L 173.886719 69.210938 C 174.015625 69.191406 174.140625 69.179688 174.269531 69.179688 C 175.394531 69.179688 176.414062 70.011719 176.597656 71.15625 C 176.621094 71.285156 176.628906 71.414062 176.628906 71.539062 C 176.628906 72.101562 176.421875 72.636719 176.070312 73.058594 C 175.71875 73.476562 175.226562 73.773438 174.652344 73.867188 L 174.785156 74.675781 L 174.699219 73.863281 C 174.699219 73.863281 174.484375 73.886719 174.09375 73.925781 C 172.722656 74.066406 169.195312 74.414062 165.246094 74.730469 C 161.296875 75.042969 156.921875 75.324219 153.894531 75.324219 C 152.75 75.324219 151.792969 75.28125 151.167969 75.195312 C 150.855469 75.15625 150.621094 75.097656 150.535156 75.0625 L 150.5 75.046875 L 150.351562 75.320312 L 150.578125 75.113281 C 150.527344 75.058594 150.5 75.046875 150.5 75.046875 L 150.351562 75.320312 L 150.578125 75.113281 L 150.136719 75.511719 L 150.71875 75.417969 C 150.699219 75.277344 150.625 75.164062 150.578125 75.113281 L 150.136719 75.511719 L 150.71875 75.417969 L 150.714844 75.390625 L 149.914062 75.550781 " fill-opacity="1" fill-rule="nonzero"/></g><path fill="#eb9f18" d="M 50.910156 49.132812 C 51.949219 47.726562 32.929688 31.929688 32.929688 31.929688 C 31.523438 30.890625 29.523438 31.195312 28.488281 32.601562 C 27.449219 34.007812 27.753906 36.007812 29.160156 37.042969 C 29.160156 37.042969 49.875 50.542969 50.910156 49.132812 " fill-opacity="1" fill-rule="nonzero"/><path fill="#1d1d1b" d="M 50.910156 49.136719 L 51.570312 49.621094 C 51.722656 49.414062 51.773438 49.171875 51.769531 48.992188 C 51.769531 48.78125 51.71875 48.621094 51.664062 48.46875 C 51.554688 48.183594 51.394531 47.929688 51.191406 47.640625 C 50.808594 47.105469 50.261719 46.476562 49.578125 45.753906 C 47.199219 43.242188 43.179688 39.644531 39.742188 36.65625 C 36.304688 33.667969 33.457031 31.304688 33.453125 31.300781 L 33.414062 31.269531 C 32.707031 30.746094 31.871094 30.496094 31.050781 30.496094 C 29.828125 30.496094 28.613281 31.054688 27.832031 32.117188 L 27.832031 32.113281 C 27.308594 32.824219 27.054688 33.660156 27.054688 34.480469 C 27.054688 35.703125 27.613281 36.917969 28.675781 37.703125 L 28.714844 37.726562 C 28.71875 37.730469 33.402344 40.78125 38.433594 43.839844 C 40.953125 45.367188 43.558594 46.898438 45.722656 48.054688 C 46.804688 48.632812 47.777344 49.117188 48.585938 49.464844 C 48.988281 49.640625 49.355469 49.78125 49.683594 49.882812 C 50.015625 49.980469 50.300781 50.050781 50.617188 50.054688 C 50.753906 50.054688 50.898438 50.042969 51.066406 49.984375 C 51.230469 49.929688 51.429688 49.8125 51.570312 49.621094 L 50.910156 49.136719 L 50.253906 48.648438 L 50.722656 48.996094 L 50.53125 48.4375 C 50.464844 48.460938 50.34375 48.527344 50.253906 48.648438 L 50.722656 48.996094 L 50.53125 48.4375 L 50.65625 48.800781 L 50.605469 48.421875 L 50.53125 48.4375 L 50.65625 48.800781 L 50.605469 48.421875 L 50.628906 48.597656 L 50.617188 48.421875 L 50.605469 48.421875 L 50.628906 48.597656 L 50.617188 48.421875 C 50.59375 48.425781 50.410156 48.398438 50.167969 48.320312 C 49.703125 48.175781 48.992188 47.875 48.152344 47.464844 C 45.191406 46.019531 40.535156 43.234375 36.640625 40.820312 C 34.695312 39.613281 32.933594 38.496094 31.664062 37.683594 C 31.027344 37.277344 30.511719 36.945312 30.15625 36.714844 C 29.800781 36.484375 29.605469 36.359375 29.605469 36.359375 L 29.160156 37.042969 L 29.644531 36.386719 C 29.019531 35.925781 28.691406 35.210938 28.6875 34.480469 C 28.6875 33.992188 28.835938 33.503906 29.144531 33.085938 L 29.148438 33.085938 C 29.605469 32.460938 30.320312 32.128906 31.050781 32.128906 C 31.539062 32.128906 32.027344 32.277344 32.445312 32.585938 L 32.929688 31.929688 L 32.410156 32.558594 C 32.410156 32.558594 32.6875 32.789062 33.179688 33.203125 C 34.898438 34.644531 39.207031 38.289062 43.074219 41.789062 C 45.007812 43.539062 46.832031 45.253906 48.152344 46.632812 C 48.816406 47.316406 49.351562 47.917969 49.703125 48.378906 C 49.878906 48.605469 50.007812 48.800781 50.078125 48.929688 C 50.113281 48.996094 50.132812 49.042969 50.140625 49.058594 L 50.476562 48.992188 L 50.136719 48.992188 L 50.140625 49.058594 L 50.476562 48.992188 L 50.136719 48.992188 L 50.71875 48.992188 L 50.253906 48.652344 C 50.15625 48.78125 50.132812 48.929688 50.136719 48.992188 L 50.71875 48.992188 L 50.253906 48.652344 L 50.253906 48.648438 L 50.910156 49.136719 " fill-opacity="1" fill-rule="nonzero"/></svg>