<svg xmlns="http://www.w3.org/2000/svg" xmlns:xlink="http://www.w3.org/1999/xlink" width="40" zoomAndPan="magnify" viewBox="0 0 30 30.000001" height="40" preserveAspectRatio="xMidYMid meet" version="1.0"><defs><clipPath id="a2642daf96"><path d="M 4 1.0625 L 26 1.0625 L 26 27.917969 L 4 27.917969 Z M 4 1.0625 " clip-rule="nonzero"/></clipPath></defs><g clip-path="url(#a2642daf96)"><path fill="#999999" d="M 16.105469 3.398438 C 17.871094 1.074219 20.324219 1.0625 20.324219 1.0625 C 20.324219 1.0625 20.6875 3.246094 18.933594 5.355469 C 17.0625 7.601562 14.9375 7.234375 14.9375 7.234375 C 14.9375 7.234375 14.535156 5.464844 16.105469 3.398438 Z M 15.160156 8.765625 C 16.070312 8.765625 17.753906 7.519531 19.945312 7.519531 C 23.722656 7.519531 25.207031 10.207031 25.207031 10.207031 C 25.207031 10.207031 22.300781 11.691406 22.300781 15.292969 C 22.300781 19.359375 25.917969 20.757812 25.917969 20.757812 C 25.917969 20.757812 23.390625 27.875 19.972656 27.875 C 18.40625 27.875 17.183594 26.820312 15.53125 26.820312 C 13.847656 26.820312 12.175781 27.917969 11.085938 27.917969 C 7.96875 27.917969 4.027344 21.164062 4.027344 15.734375 C 4.027344 10.394531 7.363281 7.59375 10.492188 7.59375 C 12.523438 7.59375 14.101562 8.765625 15.160156 8.765625 Z M 15.160156 8.765625 " fill-opacity="1" fill-rule="nonzero"/></g></svg>