<svg xmlns="http://www.w3.org/2000/svg" xmlns:xlink="http://www.w3.org/1999/xlink" width="40" zoomAndPan="magnify" viewBox="0 0 30 30.000001" height="40" preserveAspectRatio="xMidYMid meet" version="1.0"><path fill="#4280ef" d="M 27.160156 14.992188 C 27.160156 14.167969 27.078125 13.316406 26.945312 12.515625 L 15.421875 12.515625 L 15.421875 17.226562 L 22.023438 17.226562 C 21.757812 18.742188 20.878906 20.074219 19.574219 20.925781 L 23.511719 23.988281 C 25.828125 21.832031 27.160156 18.691406 27.160156 14.992188 Z M 27.160156 14.992188 " fill-opacity="1" fill-rule="nonzero"/><path fill="#34a353" d="M 15.421875 26.914062 C 18.722656 26.914062 21.488281 25.824219 23.511719 23.960938 L 19.574219 20.925781 C 18.484375 21.671875 17.070312 22.097656 15.421875 22.097656 C 12.230469 22.097656 9.539062 19.941406 8.554688 17.066406 L 4.511719 20.179688 C 6.585938 24.304688 10.792969 26.914062 15.421875 26.914062 Z M 15.421875 26.914062 " fill-opacity="1" fill-rule="nonzero"/><path fill="#f6b704" d="M 8.554688 17.039062 C 8.050781 15.523438 8.050781 13.875 8.554688 12.355469 L 4.511719 9.214844 C 2.78125 12.675781 2.78125 16.746094 4.511719 20.179688 Z M 8.554688 17.039062 " fill-opacity="1" fill-rule="nonzero"/><path fill="#e54335" d="M 15.421875 7.328125 C 17.152344 7.300781 18.855469 7.964844 20.105469 9.164062 L 23.59375 5.652344 C 21.382812 3.574219 18.457031 2.457031 15.421875 2.484375 C 10.792969 2.484375 6.585938 5.089844 4.511719 9.214844 L 8.554688 12.355469 C 9.539062 9.457031 12.230469 7.328125 15.421875 7.328125 Z M 15.421875 7.328125 " fill-opacity="1" fill-rule="nonzero"/></svg>